%TF.GenerationSoftware,KiCad,Pcbnew,8.0.4*%
%TF.CreationDate,2024-08-04T23:07:33+09:00*%
%TF.ProjectId,sdvx-encoder-holder,73647678-2d65-46e6-936f-6465722d686f,rev?*%
%TF.SameCoordinates,Original*%
%TF.FileFunction,Copper,L1,Top*%
%TF.FilePolarity,Positive*%
%FSLAX46Y46*%
G04 Gerber Fmt 4.6, Leading zero omitted, Abs format (unit mm)*
G04 Created by KiCad (PCBNEW 8.0.4) date 2024-08-04 23:07:33*
%MOMM*%
%LPD*%
G01*
G04 APERTURE LIST*
G04 Aperture macros list*
%AMRoundRect*
0 Rectangle with rounded corners*
0 $1 Rounding radius*
0 $2 $3 $4 $5 $6 $7 $8 $9 X,Y pos of 4 corners*
0 Add a 4 corners polygon primitive as box body*
4,1,4,$2,$3,$4,$5,$6,$7,$8,$9,$2,$3,0*
0 Add four circle primitives for the rounded corners*
1,1,$1+$1,$2,$3*
1,1,$1+$1,$4,$5*
1,1,$1+$1,$6,$7*
1,1,$1+$1,$8,$9*
0 Add four rect primitives between the rounded corners*
20,1,$1+$1,$2,$3,$4,$5,0*
20,1,$1+$1,$4,$5,$6,$7,0*
20,1,$1+$1,$6,$7,$8,$9,0*
20,1,$1+$1,$8,$9,$2,$3,0*%
G04 Aperture macros list end*
%TA.AperFunction,SMDPad,CuDef*%
%ADD10RoundRect,0.250000X0.450000X-0.350000X0.450000X0.350000X-0.450000X0.350000X-0.450000X-0.350000X0*%
%TD*%
%TA.AperFunction,ComponentPad*%
%ADD11C,2.800000*%
%TD*%
%TA.AperFunction,ComponentPad*%
%ADD12C,1.803400*%
%TD*%
%TA.AperFunction,ComponentPad*%
%ADD13RoundRect,0.250000X0.600000X0.725000X-0.600000X0.725000X-0.600000X-0.725000X0.600000X-0.725000X0*%
%TD*%
%TA.AperFunction,ComponentPad*%
%ADD14O,1.700000X1.950000*%
%TD*%
%TA.AperFunction,Conductor*%
%ADD15C,0.200000*%
%TD*%
G04 APERTURE END LIST*
D10*
%TO.P,R1,1*%
%TO.N,Net-(J1-Pin_1)*%
X123000000Y-102000000D03*
%TO.P,R1,2*%
%TO.N,Net-(J1-Pin_2)*%
X123000000Y-100000000D03*
%TD*%
%TO.P,R2,1*%
%TO.N,Net-(J1-Pin_1)*%
X133000000Y-102000000D03*
%TO.P,R2,2*%
%TO.N,Net-(J1-Pin_3)*%
X133000000Y-100000000D03*
%TD*%
D11*
%TO.P,PEC16-4xxx-Nxxx1,*%
%TO.N,*%
X120600000Y-85999998D03*
X135400001Y-85999998D03*
D12*
%TO.P,PEC16-4xxx-Nxxx1,1,Channel_A*%
%TO.N,Net-(J1-Pin_2)*%
X123000000Y-96500000D03*
%TO.P,PEC16-4xxx-Nxxx1,2,Channel_B*%
%TO.N,Net-(J1-Pin_4)*%
X128000000Y-96500000D03*
%TO.P,PEC16-4xxx-Nxxx1,3,Common*%
%TO.N,Net-(J1-Pin_3)*%
X133000000Y-96500000D03*
%TD*%
D13*
%TO.P,J1,1,Pin_1*%
%TO.N,Net-(J1-Pin_1)*%
X131500000Y-106975000D03*
D14*
%TO.P,J1,2,Pin_2*%
%TO.N,Net-(J1-Pin_2)*%
X129000000Y-106975000D03*
%TO.P,J1,3,Pin_3*%
%TO.N,Net-(J1-Pin_3)*%
X126500000Y-106975000D03*
%TO.P,J1,4,Pin_4*%
%TO.N,Net-(J1-Pin_4)*%
X124000000Y-106975000D03*
%TD*%
D15*
%TO.N,Net-(J1-Pin_1)*%
X123000000Y-102000000D02*
X125150000Y-104150000D01*
X133000000Y-102500000D02*
X131500000Y-104000000D01*
X125150000Y-109150000D02*
X125500000Y-109500000D01*
X125500000Y-109500000D02*
X131500000Y-109500000D01*
X133000000Y-102000000D02*
X133000000Y-102500000D01*
X131500000Y-109500000D02*
X131500000Y-106975000D01*
X131500000Y-104000000D02*
X131500000Y-106975000D01*
X125150000Y-104150000D02*
X125150000Y-109150000D01*
%TO.N,Net-(J1-Pin_2)*%
X123000000Y-96500000D02*
X123000000Y-100000000D01*
X123000000Y-100000000D02*
X129000000Y-106000000D01*
X129000000Y-106000000D02*
X129000000Y-106975000D01*
%TO.N,Net-(J1-Pin_3)*%
X133000000Y-100000000D02*
X130350000Y-102650000D01*
X130350000Y-102650000D02*
X130350000Y-108650000D01*
X126500000Y-108000000D02*
X126500000Y-106975000D01*
X127500000Y-109000000D02*
X126500000Y-108000000D01*
X130350000Y-108650000D02*
X130000000Y-109000000D01*
X130000000Y-109000000D02*
X127500000Y-109000000D01*
X133000000Y-96500000D02*
X133000000Y-100000000D01*
%TO.N,Net-(J1-Pin_4)*%
X124000000Y-106975000D02*
X121556800Y-104531800D01*
X121556800Y-104531800D02*
X121556800Y-96243739D01*
X126500000Y-95000000D02*
X128000000Y-96500000D01*
X121556800Y-96243739D02*
X122800539Y-95000000D01*
X122800539Y-95000000D02*
X126500000Y-95000000D01*
%TD*%
%TA.AperFunction,NonConductor*%
G36*
X137442539Y-77520185D02*
G01*
X137488294Y-77572989D01*
X137499500Y-77624500D01*
X137499500Y-85557085D01*
X137479815Y-85624124D01*
X137427011Y-85669879D01*
X137357853Y-85679823D01*
X137294297Y-85650798D01*
X137256523Y-85592020D01*
X137254334Y-85583443D01*
X137243261Y-85532546D01*
X137228176Y-85463197D01*
X137133173Y-85208485D01*
X137133171Y-85208482D01*
X137133170Y-85208478D01*
X137002891Y-84969890D01*
X137002890Y-84969889D01*
X137002888Y-84969885D01*
X136839972Y-84752256D01*
X136839967Y-84752251D01*
X136839962Y-84752245D01*
X136647753Y-84560036D01*
X136647747Y-84560031D01*
X136647743Y-84560027D01*
X136430114Y-84397111D01*
X136430109Y-84397108D01*
X136430108Y-84397107D01*
X136191519Y-84266828D01*
X136191520Y-84266828D01*
X136141921Y-84248328D01*
X135936802Y-84171823D01*
X135936795Y-84171821D01*
X135936794Y-84171821D01*
X135671168Y-84114038D01*
X135671161Y-84114037D01*
X135400002Y-84094643D01*
X135400000Y-84094643D01*
X135128840Y-84114037D01*
X135128833Y-84114038D01*
X134863207Y-84171821D01*
X134863203Y-84171822D01*
X134863200Y-84171823D01*
X134735844Y-84219324D01*
X134608481Y-84266828D01*
X134369893Y-84397107D01*
X134369892Y-84397108D01*
X134152260Y-84560026D01*
X134152248Y-84560036D01*
X133960039Y-84752245D01*
X133960029Y-84752257D01*
X133797111Y-84969889D01*
X133797110Y-84969890D01*
X133666831Y-85208478D01*
X133619327Y-85335841D01*
X133571826Y-85463197D01*
X133571825Y-85463200D01*
X133571824Y-85463204D01*
X133514041Y-85728830D01*
X133514040Y-85728837D01*
X133494646Y-85999996D01*
X133494646Y-85999999D01*
X133514040Y-86271158D01*
X133514041Y-86271165D01*
X133551401Y-86442906D01*
X133571826Y-86536799D01*
X133648331Y-86741918D01*
X133666831Y-86791517D01*
X133797110Y-87030105D01*
X133797111Y-87030106D01*
X133797114Y-87030111D01*
X133960030Y-87247740D01*
X133960034Y-87247744D01*
X133960039Y-87247750D01*
X134152248Y-87439959D01*
X134152254Y-87439964D01*
X134152259Y-87439969D01*
X134369888Y-87602885D01*
X134369892Y-87602887D01*
X134369893Y-87602888D01*
X134608482Y-87733167D01*
X134608481Y-87733167D01*
X134608485Y-87733168D01*
X134608488Y-87733170D01*
X134863200Y-87828173D01*
X135128841Y-87885959D01*
X135380606Y-87903965D01*
X135400000Y-87905353D01*
X135400001Y-87905353D01*
X135400002Y-87905353D01*
X135418101Y-87904058D01*
X135671161Y-87885959D01*
X135936802Y-87828173D01*
X136191514Y-87733170D01*
X136191518Y-87733167D01*
X136191520Y-87733167D01*
X136310814Y-87668027D01*
X136430114Y-87602885D01*
X136647743Y-87439969D01*
X136839972Y-87247740D01*
X137002888Y-87030111D01*
X137133173Y-86791511D01*
X137228176Y-86536799D01*
X137254334Y-86416552D01*
X137287818Y-86355229D01*
X137349142Y-86321744D01*
X137418833Y-86326728D01*
X137474767Y-86368599D01*
X137499184Y-86434064D01*
X137499500Y-86442910D01*
X137499500Y-112375500D01*
X137479815Y-112442539D01*
X137427011Y-112488294D01*
X137375500Y-112499500D01*
X118624500Y-112499500D01*
X118557461Y-112479815D01*
X118511706Y-112427011D01*
X118500500Y-112375500D01*
X118500500Y-104610854D01*
X120956298Y-104610854D01*
X120997223Y-104763585D01*
X121026158Y-104813700D01*
X121026159Y-104813704D01*
X121026160Y-104813704D01*
X121076279Y-104900514D01*
X121076281Y-104900517D01*
X121195149Y-105019385D01*
X121195155Y-105019390D01*
X122641738Y-106465974D01*
X122675223Y-106527297D01*
X122676530Y-106573053D01*
X122649500Y-106743713D01*
X122649500Y-107206286D01*
X122682753Y-107416239D01*
X122748444Y-107618414D01*
X122844951Y-107807820D01*
X122969890Y-107979786D01*
X123120213Y-108130109D01*
X123292179Y-108255048D01*
X123292181Y-108255049D01*
X123292184Y-108255051D01*
X123481588Y-108351557D01*
X123683757Y-108417246D01*
X123893713Y-108450500D01*
X123893714Y-108450500D01*
X124106286Y-108450500D01*
X124106287Y-108450500D01*
X124316243Y-108417246D01*
X124387183Y-108394195D01*
X124457023Y-108392201D01*
X124516856Y-108428281D01*
X124547684Y-108490982D01*
X124549500Y-108512127D01*
X124549500Y-109063330D01*
X124549499Y-109063348D01*
X124549499Y-109229054D01*
X124549498Y-109229054D01*
X124590424Y-109381789D01*
X124590425Y-109381790D01*
X124613030Y-109420942D01*
X124613031Y-109420944D01*
X124669475Y-109518709D01*
X124669479Y-109518714D01*
X124669480Y-109518716D01*
X124781284Y-109630520D01*
X124781285Y-109630521D01*
X125131284Y-109980520D01*
X125131286Y-109980521D01*
X125131290Y-109980524D01*
X125268209Y-110059573D01*
X125268216Y-110059577D01*
X125420943Y-110100501D01*
X125420945Y-110100501D01*
X125586654Y-110100501D01*
X125586670Y-110100500D01*
X131579055Y-110100500D01*
X131579057Y-110100500D01*
X131731784Y-110059577D01*
X131868716Y-109980520D01*
X131980520Y-109868716D01*
X132059577Y-109731784D01*
X132100500Y-109579057D01*
X132100500Y-108567534D01*
X132120185Y-108500495D01*
X132172989Y-108454740D01*
X132211897Y-108444176D01*
X132252797Y-108439999D01*
X132419334Y-108384814D01*
X132568656Y-108292712D01*
X132692712Y-108168656D01*
X132784814Y-108019334D01*
X132839999Y-107852797D01*
X132850500Y-107750009D01*
X132850499Y-106199992D01*
X132839999Y-106097203D01*
X132784814Y-105930666D01*
X132692712Y-105781344D01*
X132568656Y-105657288D01*
X132473253Y-105598443D01*
X132419336Y-105565187D01*
X132419331Y-105565185D01*
X132416956Y-105564398D01*
X132252797Y-105510001D01*
X132252795Y-105510000D01*
X132211896Y-105505822D01*
X132147205Y-105479425D01*
X132107054Y-105422244D01*
X132100500Y-105382464D01*
X132100500Y-104300096D01*
X132120185Y-104233057D01*
X132136814Y-104212419D01*
X133212416Y-103136817D01*
X133273739Y-103103333D01*
X133300097Y-103100499D01*
X133500002Y-103100499D01*
X133500008Y-103100499D01*
X133602797Y-103089999D01*
X133769334Y-103034814D01*
X133918656Y-102942712D01*
X134042712Y-102818656D01*
X134134814Y-102669334D01*
X134189999Y-102502797D01*
X134200500Y-102400009D01*
X134200499Y-101599992D01*
X134189999Y-101497203D01*
X134134814Y-101330666D01*
X134042712Y-101181344D01*
X133949049Y-101087681D01*
X133915564Y-101026358D01*
X133920548Y-100956666D01*
X133949049Y-100912319D01*
X134042712Y-100818656D01*
X134134814Y-100669334D01*
X134189999Y-100502797D01*
X134200500Y-100400009D01*
X134200499Y-99599992D01*
X134189999Y-99497203D01*
X134134814Y-99330666D01*
X134042712Y-99181344D01*
X133918656Y-99057288D01*
X133769334Y-98965186D01*
X133685495Y-98937404D01*
X133628051Y-98897632D01*
X133601228Y-98833116D01*
X133600500Y-98819699D01*
X133600500Y-97843276D01*
X133620185Y-97776237D01*
X133665483Y-97734221D01*
X133769559Y-97677898D01*
X133952939Y-97535168D01*
X134110325Y-97364201D01*
X134237425Y-97169661D01*
X134330771Y-96956854D01*
X134387816Y-96731586D01*
X134407006Y-96500000D01*
X134387816Y-96268414D01*
X134330771Y-96043146D01*
X134237425Y-95830339D01*
X134212586Y-95792321D01*
X134110326Y-95635801D01*
X134110325Y-95635799D01*
X133952939Y-95464832D01*
X133952934Y-95464828D01*
X133952932Y-95464826D01*
X133769567Y-95322107D01*
X133769561Y-95322103D01*
X133565188Y-95211501D01*
X133565180Y-95211498D01*
X133345402Y-95136048D01*
X133116190Y-95097800D01*
X132883810Y-95097800D01*
X132654597Y-95136048D01*
X132434819Y-95211498D01*
X132434811Y-95211501D01*
X132230438Y-95322103D01*
X132230432Y-95322107D01*
X132047067Y-95464826D01*
X132047064Y-95464829D01*
X131889676Y-95635797D01*
X131889673Y-95635801D01*
X131762575Y-95830337D01*
X131669229Y-96043145D01*
X131612183Y-96268417D01*
X131592994Y-96499994D01*
X131592994Y-96500005D01*
X131612183Y-96731582D01*
X131669229Y-96956854D01*
X131762575Y-97169662D01*
X131889673Y-97364198D01*
X131889675Y-97364201D01*
X132047061Y-97535168D01*
X132047064Y-97535170D01*
X132047067Y-97535173D01*
X132230432Y-97677892D01*
X132230443Y-97677899D01*
X132334517Y-97734221D01*
X132384108Y-97783440D01*
X132399500Y-97843276D01*
X132399500Y-98819699D01*
X132379815Y-98886738D01*
X132327011Y-98932493D01*
X132314507Y-98937403D01*
X132281962Y-98948188D01*
X132230668Y-98965185D01*
X132230663Y-98965187D01*
X132081342Y-99057289D01*
X131957289Y-99181342D01*
X131865187Y-99330663D01*
X131865186Y-99330666D01*
X131810001Y-99497203D01*
X131810001Y-99497204D01*
X131810000Y-99497204D01*
X131799500Y-99599983D01*
X131799500Y-100299902D01*
X131779815Y-100366941D01*
X131763181Y-100387583D01*
X129869481Y-102281282D01*
X129869480Y-102281284D01*
X129829078Y-102351264D01*
X129819361Y-102368094D01*
X129819359Y-102368096D01*
X129790425Y-102418209D01*
X129790424Y-102418210D01*
X129790423Y-102418215D01*
X129749499Y-102570943D01*
X129749499Y-102570945D01*
X129749499Y-102739046D01*
X129749500Y-102739059D01*
X129749500Y-105513838D01*
X129729815Y-105580877D01*
X129677011Y-105626632D01*
X129607853Y-105636576D01*
X129569205Y-105624323D01*
X129518416Y-105598444D01*
X129441945Y-105573597D01*
X129392583Y-105543347D01*
X129368716Y-105519480D01*
X129368715Y-105519479D01*
X129364384Y-105515148D01*
X129364374Y-105515139D01*
X124236818Y-100387583D01*
X124203333Y-100326260D01*
X124200499Y-100299902D01*
X124200499Y-99599998D01*
X124200498Y-99599981D01*
X124189999Y-99497203D01*
X124189998Y-99497200D01*
X124134814Y-99330666D01*
X124042712Y-99181344D01*
X123918656Y-99057288D01*
X123769334Y-98965186D01*
X123685495Y-98937404D01*
X123628051Y-98897632D01*
X123601228Y-98833116D01*
X123600500Y-98819699D01*
X123600500Y-97843276D01*
X123620185Y-97776237D01*
X123665483Y-97734221D01*
X123769559Y-97677898D01*
X123952939Y-97535168D01*
X124110325Y-97364201D01*
X124237425Y-97169661D01*
X124330771Y-96956854D01*
X124387816Y-96731586D01*
X124407006Y-96500000D01*
X124387816Y-96268414D01*
X124330771Y-96043146D01*
X124237425Y-95830339D01*
X124237424Y-95830337D01*
X124212587Y-95792321D01*
X124192399Y-95725432D01*
X124211580Y-95658246D01*
X124264039Y-95612096D01*
X124316396Y-95600500D01*
X126199903Y-95600500D01*
X126266942Y-95620185D01*
X126287584Y-95636819D01*
X126624395Y-95973630D01*
X126657880Y-96034953D01*
X126656920Y-96091750D01*
X126612183Y-96268415D01*
X126592994Y-96499994D01*
X126592994Y-96500005D01*
X126612183Y-96731582D01*
X126669229Y-96956854D01*
X126762575Y-97169662D01*
X126889673Y-97364198D01*
X126889675Y-97364201D01*
X127047061Y-97535168D01*
X127047064Y-97535170D01*
X127047067Y-97535173D01*
X127230432Y-97677892D01*
X127230438Y-97677896D01*
X127230441Y-97677898D01*
X127434812Y-97788499D01*
X127654600Y-97863952D01*
X127883810Y-97902200D01*
X128116190Y-97902200D01*
X128345400Y-97863952D01*
X128565188Y-97788499D01*
X128769559Y-97677898D01*
X128952939Y-97535168D01*
X129110325Y-97364201D01*
X129237425Y-97169661D01*
X129330771Y-96956854D01*
X129387816Y-96731586D01*
X129407006Y-96500000D01*
X129387816Y-96268414D01*
X129330771Y-96043146D01*
X129237425Y-95830339D01*
X129212586Y-95792321D01*
X129110326Y-95635801D01*
X129110325Y-95635799D01*
X128952939Y-95464832D01*
X128952934Y-95464828D01*
X128952932Y-95464826D01*
X128769567Y-95322107D01*
X128769561Y-95322103D01*
X128565188Y-95211501D01*
X128565180Y-95211498D01*
X128345402Y-95136048D01*
X128116190Y-95097800D01*
X127883810Y-95097800D01*
X127654598Y-95136048D01*
X127601761Y-95154186D01*
X127531963Y-95157334D01*
X127473820Y-95124585D01*
X126987590Y-94638355D01*
X126987588Y-94638352D01*
X126868717Y-94519481D01*
X126868716Y-94519480D01*
X126781904Y-94469360D01*
X126781904Y-94469359D01*
X126781900Y-94469358D01*
X126731785Y-94440423D01*
X126579057Y-94399499D01*
X126420943Y-94399499D01*
X126413347Y-94399499D01*
X126413331Y-94399500D01*
X122887209Y-94399500D01*
X122887193Y-94399499D01*
X122879597Y-94399499D01*
X122721482Y-94399499D01*
X122645118Y-94419961D01*
X122568753Y-94440423D01*
X122568748Y-94440426D01*
X122431829Y-94519475D01*
X122431821Y-94519481D01*
X121076281Y-95875021D01*
X121076275Y-95875029D01*
X121038522Y-95940421D01*
X121038522Y-95940423D01*
X120997223Y-96011953D01*
X120997223Y-96011954D01*
X120956299Y-96164682D01*
X120956299Y-96164684D01*
X120956299Y-96332785D01*
X120956300Y-96332798D01*
X120956300Y-104445130D01*
X120956299Y-104445148D01*
X120956299Y-104610854D01*
X120956298Y-104610854D01*
X118500500Y-104610854D01*
X118500500Y-86442906D01*
X118520185Y-86375867D01*
X118572989Y-86330112D01*
X118642147Y-86320168D01*
X118705703Y-86349193D01*
X118743477Y-86407971D01*
X118745666Y-86416548D01*
X118751400Y-86442906D01*
X118771825Y-86536799D01*
X118848330Y-86741918D01*
X118866830Y-86791517D01*
X118997109Y-87030105D01*
X118997110Y-87030106D01*
X118997113Y-87030111D01*
X119160029Y-87247740D01*
X119160033Y-87247744D01*
X119160038Y-87247750D01*
X119352247Y-87439959D01*
X119352253Y-87439964D01*
X119352258Y-87439969D01*
X119569887Y-87602885D01*
X119569891Y-87602887D01*
X119569892Y-87602888D01*
X119808481Y-87733167D01*
X119808480Y-87733167D01*
X119808484Y-87733168D01*
X119808487Y-87733170D01*
X120063199Y-87828173D01*
X120328840Y-87885959D01*
X120580605Y-87903965D01*
X120599999Y-87905353D01*
X120600000Y-87905353D01*
X120600001Y-87905353D01*
X120618100Y-87904058D01*
X120871160Y-87885959D01*
X121136801Y-87828173D01*
X121391513Y-87733170D01*
X121391517Y-87733167D01*
X121391519Y-87733167D01*
X121510813Y-87668027D01*
X121630113Y-87602885D01*
X121847742Y-87439969D01*
X122039971Y-87247740D01*
X122202887Y-87030111D01*
X122333172Y-86791511D01*
X122428175Y-86536799D01*
X122485961Y-86271158D01*
X122505355Y-85999998D01*
X122485961Y-85728838D01*
X122428175Y-85463197D01*
X122333172Y-85208485D01*
X122333170Y-85208482D01*
X122333169Y-85208478D01*
X122202890Y-84969890D01*
X122202889Y-84969889D01*
X122202887Y-84969885D01*
X122039971Y-84752256D01*
X122039966Y-84752251D01*
X122039961Y-84752245D01*
X121847752Y-84560036D01*
X121847746Y-84560031D01*
X121847742Y-84560027D01*
X121630113Y-84397111D01*
X121630108Y-84397108D01*
X121630107Y-84397107D01*
X121391518Y-84266828D01*
X121391519Y-84266828D01*
X121341920Y-84248328D01*
X121136801Y-84171823D01*
X121136794Y-84171821D01*
X121136793Y-84171821D01*
X120871167Y-84114038D01*
X120871160Y-84114037D01*
X120600001Y-84094643D01*
X120599999Y-84094643D01*
X120328839Y-84114037D01*
X120328832Y-84114038D01*
X120063206Y-84171821D01*
X120063202Y-84171822D01*
X120063199Y-84171823D01*
X119935843Y-84219324D01*
X119808480Y-84266828D01*
X119569892Y-84397107D01*
X119569891Y-84397108D01*
X119352259Y-84560026D01*
X119352247Y-84560036D01*
X119160038Y-84752245D01*
X119160028Y-84752257D01*
X118997110Y-84969889D01*
X118997109Y-84969890D01*
X118866830Y-85208478D01*
X118819326Y-85335841D01*
X118771825Y-85463197D01*
X118771824Y-85463200D01*
X118771823Y-85463204D01*
X118745666Y-85583447D01*
X118712181Y-85644770D01*
X118650858Y-85678255D01*
X118581167Y-85673271D01*
X118525233Y-85631399D01*
X118500816Y-85565935D01*
X118500500Y-85557089D01*
X118500500Y-77624500D01*
X118520185Y-77557461D01*
X118572989Y-77511706D01*
X118624500Y-77500500D01*
X137375500Y-77500500D01*
X137442539Y-77520185D01*
G37*
%TD.AperFunction*%
%TA.AperFunction,NonConductor*%
G36*
X131718833Y-102232913D02*
G01*
X131774767Y-102274784D01*
X131799184Y-102340249D01*
X131799500Y-102349093D01*
X131799500Y-102400000D01*
X131799501Y-102400019D01*
X131810000Y-102502796D01*
X131810001Y-102502799D01*
X131865185Y-102669331D01*
X131865461Y-102669922D01*
X131865528Y-102670366D01*
X131867458Y-102676189D01*
X131866462Y-102676518D01*
X131875951Y-102739000D01*
X131847429Y-102802783D01*
X131840758Y-102810005D01*
X131162181Y-103488583D01*
X131100858Y-103522068D01*
X131031167Y-103517084D01*
X130975233Y-103475213D01*
X130950816Y-103409748D01*
X130950500Y-103400902D01*
X130950500Y-102950096D01*
X130970185Y-102883057D01*
X130986815Y-102862419D01*
X131587821Y-102261412D01*
X131649142Y-102227929D01*
X131718833Y-102232913D01*
G37*
%TD.AperFunction*%
%TA.AperFunction,NonConductor*%
G36*
X122320289Y-103064512D02*
G01*
X122397203Y-103089999D01*
X122499991Y-103100500D01*
X123199902Y-103100499D01*
X123266941Y-103120183D01*
X123287583Y-103136818D01*
X124513181Y-104362416D01*
X124546666Y-104423739D01*
X124549500Y-104450097D01*
X124549500Y-105437872D01*
X124529815Y-105504911D01*
X124477011Y-105550666D01*
X124407853Y-105560610D01*
X124387183Y-105555803D01*
X124316244Y-105532754D01*
X124316240Y-105532753D01*
X124140450Y-105504911D01*
X124106287Y-105499500D01*
X123893713Y-105499500D01*
X123859550Y-105504911D01*
X123683759Y-105532753D01*
X123683755Y-105532754D01*
X123547130Y-105577146D01*
X123477289Y-105579141D01*
X123421132Y-105546896D01*
X122193619Y-104319383D01*
X122160134Y-104258060D01*
X122157300Y-104231702D01*
X122157300Y-103182222D01*
X122176985Y-103115183D01*
X122229789Y-103069428D01*
X122298947Y-103059484D01*
X122320289Y-103064512D01*
G37*
%TD.AperFunction*%
%TA.AperFunction,NonConductor*%
G36*
X125882512Y-103731796D02*
G01*
X125884625Y-103733860D01*
X127958583Y-105807818D01*
X127992068Y-105869141D01*
X127987084Y-105938833D01*
X127971220Y-105968384D01*
X127850318Y-106134793D01*
X127794989Y-106177459D01*
X127725375Y-106183438D01*
X127663580Y-106150833D01*
X127649682Y-106134793D01*
X127530109Y-105970214D01*
X127530105Y-105970209D01*
X127379786Y-105819890D01*
X127207820Y-105694951D01*
X127018414Y-105598444D01*
X127018413Y-105598443D01*
X127018412Y-105598443D01*
X126816243Y-105532754D01*
X126816241Y-105532753D01*
X126816240Y-105532753D01*
X126640450Y-105504911D01*
X126606287Y-105499500D01*
X126393713Y-105499500D01*
X126359550Y-105504911D01*
X126183760Y-105532753D01*
X125981585Y-105598444D01*
X125930795Y-105624323D01*
X125862125Y-105637219D01*
X125797385Y-105610942D01*
X125757128Y-105553836D01*
X125750500Y-105513838D01*
X125750500Y-104070945D01*
X125750500Y-104070943D01*
X125709577Y-103918216D01*
X125709577Y-103918215D01*
X125689557Y-103883541D01*
X125673084Y-103815644D01*
X125695935Y-103749616D01*
X125750855Y-103706424D01*
X125820408Y-103699781D01*
X125882512Y-103731796D01*
G37*
%TD.AperFunction*%
%TA.AperFunction,NonConductor*%
G36*
X127836420Y-107799166D02*
G01*
X127850313Y-107815199D01*
X127969892Y-107979786D01*
X127969896Y-107979792D01*
X128120207Y-108130103D01*
X128182252Y-108175181D01*
X128224918Y-108230511D01*
X128230897Y-108300124D01*
X128198292Y-108361920D01*
X128137453Y-108396277D01*
X128109367Y-108399500D01*
X127800098Y-108399500D01*
X127733059Y-108379815D01*
X127712417Y-108363181D01*
X127517247Y-108168011D01*
X127483762Y-108106688D01*
X127488746Y-108036996D01*
X127517247Y-107992648D01*
X127530104Y-107979792D01*
X127649683Y-107815204D01*
X127705011Y-107772540D01*
X127774624Y-107766561D01*
X127836420Y-107799166D01*
G37*
%TD.AperFunction*%
%TA.AperFunction,NonConductor*%
G36*
X125930791Y-108325674D02*
G01*
X125981588Y-108351557D01*
X125983981Y-108352334D01*
X125985056Y-108352993D01*
X125986089Y-108353421D01*
X125986021Y-108353584D01*
X126033350Y-108382586D01*
X126138349Y-108487585D01*
X126138355Y-108487590D01*
X126338584Y-108687819D01*
X126372069Y-108749142D01*
X126367085Y-108818834D01*
X126325213Y-108874767D01*
X126259749Y-108899184D01*
X126250903Y-108899500D01*
X125874500Y-108899500D01*
X125807461Y-108879815D01*
X125761706Y-108827011D01*
X125750500Y-108775500D01*
X125750500Y-108436161D01*
X125770185Y-108369122D01*
X125822989Y-108323367D01*
X125892147Y-108313423D01*
X125930791Y-108325674D01*
G37*
%TD.AperFunction*%
M02*
