%TF.GenerationSoftware,KiCad,Pcbnew,8.0.4*%
%TF.CreationDate,2024-08-04T23:07:36+09:00*%
%TF.ProjectId,sdvx-encoder-holder,73647678-2d65-46e6-936f-6465722d686f,rev?*%
%TF.SameCoordinates,Original*%
%TF.FileFunction,Drillmap*%
%TF.FilePolarity,Positive*%
%FSLAX45Y45*%
G04 Gerber Fmt 4.5, Leading zero omitted, Abs format (unit mm)*
G04 Created by KiCad (PCBNEW 8.0.4) date 2024-08-04 23:07:36*
%MOMM*%
%LPD*%
G01*
G04 APERTURE LIST*
%ADD10C,0.050000*%
%ADD11C,0.200000*%
%ADD12C,0.100000*%
%ADD13C,0.129540*%
G04 APERTURE END LIST*
D10*
X11800000Y-7700000D02*
X13800000Y-7700000D01*
X13800000Y-11300000D01*
X11800000Y-11300000D01*
X11800000Y-7700000D01*
D11*
D12*
X12352500Y-10650000D02*
X12447500Y-10745000D01*
X12447500Y-10650000D02*
X12352500Y-10745000D01*
X12602500Y-10650000D02*
X12697500Y-10745000D01*
X12697500Y-10650000D02*
X12602500Y-10745000D01*
X12852500Y-10650000D02*
X12947500Y-10745000D01*
X12947500Y-10650000D02*
X12852500Y-10745000D01*
X13102500Y-10650000D02*
X13197500Y-10745000D01*
X13197500Y-10650000D02*
X13102500Y-10745000D01*
D13*
X12364770Y-9650000D02*
G75*
G02*
X12235230Y-9650000I-64770J0D01*
G01*
X12235230Y-9650000D02*
G75*
G02*
X12364770Y-9650000I64770J0D01*
G01*
X12864770Y-9650000D02*
G75*
G02*
X12735230Y-9650000I-64770J0D01*
G01*
X12735230Y-9650000D02*
G75*
G02*
X12864770Y-9650000I64770J0D01*
G01*
X13364770Y-9650000D02*
G75*
G02*
X13235230Y-9650000I-64770J0D01*
G01*
X13235230Y-9650000D02*
G75*
G02*
X13364770Y-9650000I64770J0D01*
G01*
D11*
X12060000Y-8500000D02*
X12060000Y-8700000D01*
X11960000Y-8600000D02*
X12160000Y-8600000D01*
X13540000Y-8500000D02*
X13540000Y-8700000D01*
X13440000Y-8600000D02*
X13640000Y-8600000D01*
X12058277Y-11613984D02*
X12058277Y-11413984D01*
X12058277Y-11413984D02*
X12105896Y-11413984D01*
X12105896Y-11413984D02*
X12134467Y-11423508D01*
X12134467Y-11423508D02*
X12153515Y-11442555D01*
X12153515Y-11442555D02*
X12163039Y-11461603D01*
X12163039Y-11461603D02*
X12172562Y-11499698D01*
X12172562Y-11499698D02*
X12172562Y-11528269D01*
X12172562Y-11528269D02*
X12163039Y-11566365D01*
X12163039Y-11566365D02*
X12153515Y-11585412D01*
X12153515Y-11585412D02*
X12134467Y-11604460D01*
X12134467Y-11604460D02*
X12105896Y-11613984D01*
X12105896Y-11613984D02*
X12058277Y-11613984D01*
X12258277Y-11613984D02*
X12258277Y-11480650D01*
X12258277Y-11518746D02*
X12267801Y-11499698D01*
X12267801Y-11499698D02*
X12277324Y-11490174D01*
X12277324Y-11490174D02*
X12296372Y-11480650D01*
X12296372Y-11480650D02*
X12315420Y-11480650D01*
X12382086Y-11613984D02*
X12382086Y-11480650D01*
X12382086Y-11413984D02*
X12372562Y-11423508D01*
X12372562Y-11423508D02*
X12382086Y-11433031D01*
X12382086Y-11433031D02*
X12391610Y-11423508D01*
X12391610Y-11423508D02*
X12382086Y-11413984D01*
X12382086Y-11413984D02*
X12382086Y-11433031D01*
X12505896Y-11613984D02*
X12486848Y-11604460D01*
X12486848Y-11604460D02*
X12477324Y-11585412D01*
X12477324Y-11585412D02*
X12477324Y-11413984D01*
X12610658Y-11613984D02*
X12591610Y-11604460D01*
X12591610Y-11604460D02*
X12582086Y-11585412D01*
X12582086Y-11585412D02*
X12582086Y-11413984D01*
X12839229Y-11613984D02*
X12839229Y-11413984D01*
X12839229Y-11413984D02*
X12905896Y-11556841D01*
X12905896Y-11556841D02*
X12972562Y-11413984D01*
X12972562Y-11413984D02*
X12972562Y-11613984D01*
X13153515Y-11613984D02*
X13153515Y-11509222D01*
X13153515Y-11509222D02*
X13143991Y-11490174D01*
X13143991Y-11490174D02*
X13124943Y-11480650D01*
X13124943Y-11480650D02*
X13086848Y-11480650D01*
X13086848Y-11480650D02*
X13067801Y-11490174D01*
X13153515Y-11604460D02*
X13134467Y-11613984D01*
X13134467Y-11613984D02*
X13086848Y-11613984D01*
X13086848Y-11613984D02*
X13067801Y-11604460D01*
X13067801Y-11604460D02*
X13058277Y-11585412D01*
X13058277Y-11585412D02*
X13058277Y-11566365D01*
X13058277Y-11566365D02*
X13067801Y-11547317D01*
X13067801Y-11547317D02*
X13086848Y-11537793D01*
X13086848Y-11537793D02*
X13134467Y-11537793D01*
X13134467Y-11537793D02*
X13153515Y-11528269D01*
X13248753Y-11480650D02*
X13248753Y-11680650D01*
X13248753Y-11490174D02*
X13267801Y-11480650D01*
X13267801Y-11480650D02*
X13305896Y-11480650D01*
X13305896Y-11480650D02*
X13324943Y-11490174D01*
X13324943Y-11490174D02*
X13334467Y-11499698D01*
X13334467Y-11499698D02*
X13343991Y-11518746D01*
X13343991Y-11518746D02*
X13343991Y-11575888D01*
X13343991Y-11575888D02*
X13334467Y-11594936D01*
X13334467Y-11594936D02*
X13324943Y-11604460D01*
X13324943Y-11604460D02*
X13305896Y-11613984D01*
X13305896Y-11613984D02*
X13267801Y-11613984D01*
X13267801Y-11613984D02*
X13248753Y-11604460D01*
X13429705Y-11594936D02*
X13439229Y-11604460D01*
X13439229Y-11604460D02*
X13429705Y-11613984D01*
X13429705Y-11613984D02*
X13420182Y-11604460D01*
X13420182Y-11604460D02*
X13429705Y-11594936D01*
X13429705Y-11594936D02*
X13429705Y-11613984D01*
X13429705Y-11490174D02*
X13439229Y-11499698D01*
X13439229Y-11499698D02*
X13429705Y-11509222D01*
X13429705Y-11509222D02*
X13420182Y-11499698D01*
X13420182Y-11499698D02*
X13429705Y-11490174D01*
X13429705Y-11490174D02*
X13429705Y-11509222D01*
D12*
X11702500Y-11895000D02*
X11797500Y-11990000D01*
X11797500Y-11895000D02*
X11702500Y-11990000D01*
D11*
X12096372Y-11833984D02*
X12115420Y-11833984D01*
X12115420Y-11833984D02*
X12134467Y-11843508D01*
X12134467Y-11843508D02*
X12143991Y-11853031D01*
X12143991Y-11853031D02*
X12153515Y-11872079D01*
X12153515Y-11872079D02*
X12163039Y-11910174D01*
X12163039Y-11910174D02*
X12163039Y-11957793D01*
X12163039Y-11957793D02*
X12153515Y-11995888D01*
X12153515Y-11995888D02*
X12143991Y-12014936D01*
X12143991Y-12014936D02*
X12134467Y-12024460D01*
X12134467Y-12024460D02*
X12115420Y-12033984D01*
X12115420Y-12033984D02*
X12096372Y-12033984D01*
X12096372Y-12033984D02*
X12077324Y-12024460D01*
X12077324Y-12024460D02*
X12067801Y-12014936D01*
X12067801Y-12014936D02*
X12058277Y-11995888D01*
X12058277Y-11995888D02*
X12048753Y-11957793D01*
X12048753Y-11957793D02*
X12048753Y-11910174D01*
X12048753Y-11910174D02*
X12058277Y-11872079D01*
X12058277Y-11872079D02*
X12067801Y-11853031D01*
X12067801Y-11853031D02*
X12077324Y-11843508D01*
X12077324Y-11843508D02*
X12096372Y-11833984D01*
X12248753Y-12014936D02*
X12258277Y-12024460D01*
X12258277Y-12024460D02*
X12248753Y-12033984D01*
X12248753Y-12033984D02*
X12239229Y-12024460D01*
X12239229Y-12024460D02*
X12248753Y-12014936D01*
X12248753Y-12014936D02*
X12248753Y-12033984D01*
X12353515Y-12033984D02*
X12391610Y-12033984D01*
X12391610Y-12033984D02*
X12410658Y-12024460D01*
X12410658Y-12024460D02*
X12420182Y-12014936D01*
X12420182Y-12014936D02*
X12439229Y-11986365D01*
X12439229Y-11986365D02*
X12448753Y-11948269D01*
X12448753Y-11948269D02*
X12448753Y-11872079D01*
X12448753Y-11872079D02*
X12439229Y-11853031D01*
X12439229Y-11853031D02*
X12429705Y-11843508D01*
X12429705Y-11843508D02*
X12410658Y-11833984D01*
X12410658Y-11833984D02*
X12372562Y-11833984D01*
X12372562Y-11833984D02*
X12353515Y-11843508D01*
X12353515Y-11843508D02*
X12343991Y-11853031D01*
X12343991Y-11853031D02*
X12334467Y-11872079D01*
X12334467Y-11872079D02*
X12334467Y-11919698D01*
X12334467Y-11919698D02*
X12343991Y-11938746D01*
X12343991Y-11938746D02*
X12353515Y-11948269D01*
X12353515Y-11948269D02*
X12372562Y-11957793D01*
X12372562Y-11957793D02*
X12410658Y-11957793D01*
X12410658Y-11957793D02*
X12429705Y-11948269D01*
X12429705Y-11948269D02*
X12439229Y-11938746D01*
X12439229Y-11938746D02*
X12448753Y-11919698D01*
X12629705Y-11833984D02*
X12534467Y-11833984D01*
X12534467Y-11833984D02*
X12524943Y-11929222D01*
X12524943Y-11929222D02*
X12534467Y-11919698D01*
X12534467Y-11919698D02*
X12553515Y-11910174D01*
X12553515Y-11910174D02*
X12601134Y-11910174D01*
X12601134Y-11910174D02*
X12620182Y-11919698D01*
X12620182Y-11919698D02*
X12629705Y-11929222D01*
X12629705Y-11929222D02*
X12639229Y-11948269D01*
X12639229Y-11948269D02*
X12639229Y-11995888D01*
X12639229Y-11995888D02*
X12629705Y-12014936D01*
X12629705Y-12014936D02*
X12620182Y-12024460D01*
X12620182Y-12024460D02*
X12601134Y-12033984D01*
X12601134Y-12033984D02*
X12553515Y-12033984D01*
X12553515Y-12033984D02*
X12534467Y-12024460D01*
X12534467Y-12024460D02*
X12524943Y-12014936D01*
X12763039Y-11833984D02*
X12782086Y-11833984D01*
X12782086Y-11833984D02*
X12801134Y-11843508D01*
X12801134Y-11843508D02*
X12810658Y-11853031D01*
X12810658Y-11853031D02*
X12820182Y-11872079D01*
X12820182Y-11872079D02*
X12829705Y-11910174D01*
X12829705Y-11910174D02*
X12829705Y-11957793D01*
X12829705Y-11957793D02*
X12820182Y-11995888D01*
X12820182Y-11995888D02*
X12810658Y-12014936D01*
X12810658Y-12014936D02*
X12801134Y-12024460D01*
X12801134Y-12024460D02*
X12782086Y-12033984D01*
X12782086Y-12033984D02*
X12763039Y-12033984D01*
X12763039Y-12033984D02*
X12743991Y-12024460D01*
X12743991Y-12024460D02*
X12734467Y-12014936D01*
X12734467Y-12014936D02*
X12724943Y-11995888D01*
X12724943Y-11995888D02*
X12715420Y-11957793D01*
X12715420Y-11957793D02*
X12715420Y-11910174D01*
X12715420Y-11910174D02*
X12724943Y-11872079D01*
X12724943Y-11872079D02*
X12734467Y-11853031D01*
X12734467Y-11853031D02*
X12743991Y-11843508D01*
X12743991Y-11843508D02*
X12763039Y-11833984D01*
X12915420Y-12033984D02*
X12915420Y-11900650D01*
X12915420Y-11919698D02*
X12924943Y-11910174D01*
X12924943Y-11910174D02*
X12943991Y-11900650D01*
X12943991Y-11900650D02*
X12972563Y-11900650D01*
X12972563Y-11900650D02*
X12991610Y-11910174D01*
X12991610Y-11910174D02*
X13001134Y-11929222D01*
X13001134Y-11929222D02*
X13001134Y-12033984D01*
X13001134Y-11929222D02*
X13010658Y-11910174D01*
X13010658Y-11910174D02*
X13029705Y-11900650D01*
X13029705Y-11900650D02*
X13058277Y-11900650D01*
X13058277Y-11900650D02*
X13077324Y-11910174D01*
X13077324Y-11910174D02*
X13086848Y-11929222D01*
X13086848Y-11929222D02*
X13086848Y-12033984D01*
X13182086Y-12033984D02*
X13182086Y-11900650D01*
X13182086Y-11919698D02*
X13191610Y-11910174D01*
X13191610Y-11910174D02*
X13210658Y-11900650D01*
X13210658Y-11900650D02*
X13239229Y-11900650D01*
X13239229Y-11900650D02*
X13258277Y-11910174D01*
X13258277Y-11910174D02*
X13267801Y-11929222D01*
X13267801Y-11929222D02*
X13267801Y-12033984D01*
X13267801Y-11929222D02*
X13277324Y-11910174D01*
X13277324Y-11910174D02*
X13296372Y-11900650D01*
X13296372Y-11900650D02*
X13324943Y-11900650D01*
X13324943Y-11900650D02*
X13343991Y-11910174D01*
X13343991Y-11910174D02*
X13353515Y-11929222D01*
X13353515Y-11929222D02*
X13353515Y-12033984D01*
X13743991Y-11824460D02*
X13572563Y-12081603D01*
X14001134Y-11833984D02*
X14020182Y-11833984D01*
X14020182Y-11833984D02*
X14039229Y-11843508D01*
X14039229Y-11843508D02*
X14048753Y-11853031D01*
X14048753Y-11853031D02*
X14058277Y-11872079D01*
X14058277Y-11872079D02*
X14067801Y-11910174D01*
X14067801Y-11910174D02*
X14067801Y-11957793D01*
X14067801Y-11957793D02*
X14058277Y-11995888D01*
X14058277Y-11995888D02*
X14048753Y-12014936D01*
X14048753Y-12014936D02*
X14039229Y-12024460D01*
X14039229Y-12024460D02*
X14020182Y-12033984D01*
X14020182Y-12033984D02*
X14001134Y-12033984D01*
X14001134Y-12033984D02*
X13982086Y-12024460D01*
X13982086Y-12024460D02*
X13972563Y-12014936D01*
X13972563Y-12014936D02*
X13963039Y-11995888D01*
X13963039Y-11995888D02*
X13953515Y-11957793D01*
X13953515Y-11957793D02*
X13953515Y-11910174D01*
X13953515Y-11910174D02*
X13963039Y-11872079D01*
X13963039Y-11872079D02*
X13972563Y-11853031D01*
X13972563Y-11853031D02*
X13982086Y-11843508D01*
X13982086Y-11843508D02*
X14001134Y-11833984D01*
X14153515Y-12014936D02*
X14163039Y-12024460D01*
X14163039Y-12024460D02*
X14153515Y-12033984D01*
X14153515Y-12033984D02*
X14143991Y-12024460D01*
X14143991Y-12024460D02*
X14153515Y-12014936D01*
X14153515Y-12014936D02*
X14153515Y-12033984D01*
X14286848Y-11833984D02*
X14305896Y-11833984D01*
X14305896Y-11833984D02*
X14324944Y-11843508D01*
X14324944Y-11843508D02*
X14334467Y-11853031D01*
X14334467Y-11853031D02*
X14343991Y-11872079D01*
X14343991Y-11872079D02*
X14353515Y-11910174D01*
X14353515Y-11910174D02*
X14353515Y-11957793D01*
X14353515Y-11957793D02*
X14343991Y-11995888D01*
X14343991Y-11995888D02*
X14334467Y-12014936D01*
X14334467Y-12014936D02*
X14324944Y-12024460D01*
X14324944Y-12024460D02*
X14305896Y-12033984D01*
X14305896Y-12033984D02*
X14286848Y-12033984D01*
X14286848Y-12033984D02*
X14267801Y-12024460D01*
X14267801Y-12024460D02*
X14258277Y-12014936D01*
X14258277Y-12014936D02*
X14248753Y-11995888D01*
X14248753Y-11995888D02*
X14239229Y-11957793D01*
X14239229Y-11957793D02*
X14239229Y-11910174D01*
X14239229Y-11910174D02*
X14248753Y-11872079D01*
X14248753Y-11872079D02*
X14258277Y-11853031D01*
X14258277Y-11853031D02*
X14267801Y-11843508D01*
X14267801Y-11843508D02*
X14286848Y-11833984D01*
X14420182Y-11833984D02*
X14543991Y-11833984D01*
X14543991Y-11833984D02*
X14477325Y-11910174D01*
X14477325Y-11910174D02*
X14505896Y-11910174D01*
X14505896Y-11910174D02*
X14524944Y-11919698D01*
X14524944Y-11919698D02*
X14534467Y-11929222D01*
X14534467Y-11929222D02*
X14543991Y-11948269D01*
X14543991Y-11948269D02*
X14543991Y-11995888D01*
X14543991Y-11995888D02*
X14534467Y-12014936D01*
X14534467Y-12014936D02*
X14524944Y-12024460D01*
X14524944Y-12024460D02*
X14505896Y-12033984D01*
X14505896Y-12033984D02*
X14448753Y-12033984D01*
X14448753Y-12033984D02*
X14429706Y-12024460D01*
X14429706Y-12024460D02*
X14420182Y-12014936D01*
X14610658Y-11833984D02*
X14743991Y-11833984D01*
X14743991Y-11833984D02*
X14658277Y-12033984D01*
X14905896Y-11900650D02*
X14905896Y-12033984D01*
X14858277Y-11824460D02*
X14810658Y-11967317D01*
X14810658Y-11967317D02*
X14934467Y-11967317D01*
X15001134Y-11833984D02*
X15001134Y-11872079D01*
X15077325Y-11833984D02*
X15077325Y-11872079D01*
X15372563Y-12110174D02*
X15363039Y-12100650D01*
X15363039Y-12100650D02*
X15343991Y-12072079D01*
X15343991Y-12072079D02*
X15334468Y-12053031D01*
X15334468Y-12053031D02*
X15324944Y-12024460D01*
X15324944Y-12024460D02*
X15315420Y-11976841D01*
X15315420Y-11976841D02*
X15315420Y-11938746D01*
X15315420Y-11938746D02*
X15324944Y-11891127D01*
X15324944Y-11891127D02*
X15334468Y-11862555D01*
X15334468Y-11862555D02*
X15343991Y-11843508D01*
X15343991Y-11843508D02*
X15363039Y-11814936D01*
X15363039Y-11814936D02*
X15372563Y-11805412D01*
X15534468Y-11900650D02*
X15534468Y-12033984D01*
X15486848Y-11824460D02*
X15439229Y-11967317D01*
X15439229Y-11967317D02*
X15563039Y-11967317D01*
X15791610Y-12033984D02*
X15791610Y-11833984D01*
X15877325Y-12033984D02*
X15877325Y-11929222D01*
X15877325Y-11929222D02*
X15867801Y-11910174D01*
X15867801Y-11910174D02*
X15848753Y-11900650D01*
X15848753Y-11900650D02*
X15820182Y-11900650D01*
X15820182Y-11900650D02*
X15801134Y-11910174D01*
X15801134Y-11910174D02*
X15791610Y-11919698D01*
X16001134Y-12033984D02*
X15982087Y-12024460D01*
X15982087Y-12024460D02*
X15972563Y-12014936D01*
X15972563Y-12014936D02*
X15963039Y-11995888D01*
X15963039Y-11995888D02*
X15963039Y-11938746D01*
X15963039Y-11938746D02*
X15972563Y-11919698D01*
X15972563Y-11919698D02*
X15982087Y-11910174D01*
X15982087Y-11910174D02*
X16001134Y-11900650D01*
X16001134Y-11900650D02*
X16029706Y-11900650D01*
X16029706Y-11900650D02*
X16048753Y-11910174D01*
X16048753Y-11910174D02*
X16058277Y-11919698D01*
X16058277Y-11919698D02*
X16067801Y-11938746D01*
X16067801Y-11938746D02*
X16067801Y-11995888D01*
X16067801Y-11995888D02*
X16058277Y-12014936D01*
X16058277Y-12014936D02*
X16048753Y-12024460D01*
X16048753Y-12024460D02*
X16029706Y-12033984D01*
X16029706Y-12033984D02*
X16001134Y-12033984D01*
X16182087Y-12033984D02*
X16163039Y-12024460D01*
X16163039Y-12024460D02*
X16153515Y-12005412D01*
X16153515Y-12005412D02*
X16153515Y-11833984D01*
X16334468Y-12024460D02*
X16315420Y-12033984D01*
X16315420Y-12033984D02*
X16277325Y-12033984D01*
X16277325Y-12033984D02*
X16258277Y-12024460D01*
X16258277Y-12024460D02*
X16248753Y-12005412D01*
X16248753Y-12005412D02*
X16248753Y-11929222D01*
X16248753Y-11929222D02*
X16258277Y-11910174D01*
X16258277Y-11910174D02*
X16277325Y-11900650D01*
X16277325Y-11900650D02*
X16315420Y-11900650D01*
X16315420Y-11900650D02*
X16334468Y-11910174D01*
X16334468Y-11910174D02*
X16343991Y-11929222D01*
X16343991Y-11929222D02*
X16343991Y-11948269D01*
X16343991Y-11948269D02*
X16248753Y-11967317D01*
X16420182Y-12024460D02*
X16439230Y-12033984D01*
X16439230Y-12033984D02*
X16477325Y-12033984D01*
X16477325Y-12033984D02*
X16496372Y-12024460D01*
X16496372Y-12024460D02*
X16505896Y-12005412D01*
X16505896Y-12005412D02*
X16505896Y-11995888D01*
X16505896Y-11995888D02*
X16496372Y-11976841D01*
X16496372Y-11976841D02*
X16477325Y-11967317D01*
X16477325Y-11967317D02*
X16448753Y-11967317D01*
X16448753Y-11967317D02*
X16429706Y-11957793D01*
X16429706Y-11957793D02*
X16420182Y-11938746D01*
X16420182Y-11938746D02*
X16420182Y-11929222D01*
X16420182Y-11929222D02*
X16429706Y-11910174D01*
X16429706Y-11910174D02*
X16448753Y-11900650D01*
X16448753Y-11900650D02*
X16477325Y-11900650D01*
X16477325Y-11900650D02*
X16496372Y-11910174D01*
X16572563Y-12110174D02*
X16582087Y-12100650D01*
X16582087Y-12100650D02*
X16601134Y-12072079D01*
X16601134Y-12072079D02*
X16610658Y-12053031D01*
X16610658Y-12053031D02*
X16620182Y-12024460D01*
X16620182Y-12024460D02*
X16629706Y-11976841D01*
X16629706Y-11976841D02*
X16629706Y-11938746D01*
X16629706Y-11938746D02*
X16620182Y-11891127D01*
X16620182Y-11891127D02*
X16610658Y-11862555D01*
X16610658Y-11862555D02*
X16601134Y-11843508D01*
X16601134Y-11843508D02*
X16582087Y-11814936D01*
X16582087Y-11814936D02*
X16572563Y-11805412D01*
D13*
X11797500Y-12206500D02*
G75*
G02*
X11667960Y-12206500I-64770J0D01*
G01*
X11667960Y-12206500D02*
G75*
G02*
X11797500Y-12206500I64770J0D01*
G01*
D11*
X12163039Y-12297984D02*
X12048753Y-12297984D01*
X12105896Y-12297984D02*
X12105896Y-12097984D01*
X12105896Y-12097984D02*
X12086848Y-12126555D01*
X12086848Y-12126555D02*
X12067801Y-12145603D01*
X12067801Y-12145603D02*
X12048753Y-12155127D01*
X12248753Y-12278936D02*
X12258277Y-12288460D01*
X12258277Y-12288460D02*
X12248753Y-12297984D01*
X12248753Y-12297984D02*
X12239229Y-12288460D01*
X12239229Y-12288460D02*
X12248753Y-12278936D01*
X12248753Y-12278936D02*
X12248753Y-12297984D01*
X12334467Y-12117031D02*
X12343991Y-12107508D01*
X12343991Y-12107508D02*
X12363039Y-12097984D01*
X12363039Y-12097984D02*
X12410658Y-12097984D01*
X12410658Y-12097984D02*
X12429705Y-12107508D01*
X12429705Y-12107508D02*
X12439229Y-12117031D01*
X12439229Y-12117031D02*
X12448753Y-12136079D01*
X12448753Y-12136079D02*
X12448753Y-12155127D01*
X12448753Y-12155127D02*
X12439229Y-12183698D01*
X12439229Y-12183698D02*
X12324943Y-12297984D01*
X12324943Y-12297984D02*
X12448753Y-12297984D01*
X12543991Y-12297984D02*
X12582086Y-12297984D01*
X12582086Y-12297984D02*
X12601134Y-12288460D01*
X12601134Y-12288460D02*
X12610658Y-12278936D01*
X12610658Y-12278936D02*
X12629705Y-12250365D01*
X12629705Y-12250365D02*
X12639229Y-12212269D01*
X12639229Y-12212269D02*
X12639229Y-12136079D01*
X12639229Y-12136079D02*
X12629705Y-12117031D01*
X12629705Y-12117031D02*
X12620182Y-12107508D01*
X12620182Y-12107508D02*
X12601134Y-12097984D01*
X12601134Y-12097984D02*
X12563039Y-12097984D01*
X12563039Y-12097984D02*
X12543991Y-12107508D01*
X12543991Y-12107508D02*
X12534467Y-12117031D01*
X12534467Y-12117031D02*
X12524943Y-12136079D01*
X12524943Y-12136079D02*
X12524943Y-12183698D01*
X12524943Y-12183698D02*
X12534467Y-12202746D01*
X12534467Y-12202746D02*
X12543991Y-12212269D01*
X12543991Y-12212269D02*
X12563039Y-12221793D01*
X12563039Y-12221793D02*
X12601134Y-12221793D01*
X12601134Y-12221793D02*
X12620182Y-12212269D01*
X12620182Y-12212269D02*
X12629705Y-12202746D01*
X12629705Y-12202746D02*
X12639229Y-12183698D01*
X12820182Y-12097984D02*
X12724943Y-12097984D01*
X12724943Y-12097984D02*
X12715420Y-12193222D01*
X12715420Y-12193222D02*
X12724943Y-12183698D01*
X12724943Y-12183698D02*
X12743991Y-12174174D01*
X12743991Y-12174174D02*
X12791610Y-12174174D01*
X12791610Y-12174174D02*
X12810658Y-12183698D01*
X12810658Y-12183698D02*
X12820182Y-12193222D01*
X12820182Y-12193222D02*
X12829705Y-12212269D01*
X12829705Y-12212269D02*
X12829705Y-12259888D01*
X12829705Y-12259888D02*
X12820182Y-12278936D01*
X12820182Y-12278936D02*
X12810658Y-12288460D01*
X12810658Y-12288460D02*
X12791610Y-12297984D01*
X12791610Y-12297984D02*
X12743991Y-12297984D01*
X12743991Y-12297984D02*
X12724943Y-12288460D01*
X12724943Y-12288460D02*
X12715420Y-12278936D01*
X12915420Y-12297984D02*
X12915420Y-12164650D01*
X12915420Y-12183698D02*
X12924943Y-12174174D01*
X12924943Y-12174174D02*
X12943991Y-12164650D01*
X12943991Y-12164650D02*
X12972563Y-12164650D01*
X12972563Y-12164650D02*
X12991610Y-12174174D01*
X12991610Y-12174174D02*
X13001134Y-12193222D01*
X13001134Y-12193222D02*
X13001134Y-12297984D01*
X13001134Y-12193222D02*
X13010658Y-12174174D01*
X13010658Y-12174174D02*
X13029705Y-12164650D01*
X13029705Y-12164650D02*
X13058277Y-12164650D01*
X13058277Y-12164650D02*
X13077324Y-12174174D01*
X13077324Y-12174174D02*
X13086848Y-12193222D01*
X13086848Y-12193222D02*
X13086848Y-12297984D01*
X13182086Y-12297984D02*
X13182086Y-12164650D01*
X13182086Y-12183698D02*
X13191610Y-12174174D01*
X13191610Y-12174174D02*
X13210658Y-12164650D01*
X13210658Y-12164650D02*
X13239229Y-12164650D01*
X13239229Y-12164650D02*
X13258277Y-12174174D01*
X13258277Y-12174174D02*
X13267801Y-12193222D01*
X13267801Y-12193222D02*
X13267801Y-12297984D01*
X13267801Y-12193222D02*
X13277324Y-12174174D01*
X13277324Y-12174174D02*
X13296372Y-12164650D01*
X13296372Y-12164650D02*
X13324943Y-12164650D01*
X13324943Y-12164650D02*
X13343991Y-12174174D01*
X13343991Y-12174174D02*
X13353515Y-12193222D01*
X13353515Y-12193222D02*
X13353515Y-12297984D01*
X13743991Y-12088460D02*
X13572563Y-12345603D01*
X14001134Y-12097984D02*
X14020182Y-12097984D01*
X14020182Y-12097984D02*
X14039229Y-12107508D01*
X14039229Y-12107508D02*
X14048753Y-12117031D01*
X14048753Y-12117031D02*
X14058277Y-12136079D01*
X14058277Y-12136079D02*
X14067801Y-12174174D01*
X14067801Y-12174174D02*
X14067801Y-12221793D01*
X14067801Y-12221793D02*
X14058277Y-12259888D01*
X14058277Y-12259888D02*
X14048753Y-12278936D01*
X14048753Y-12278936D02*
X14039229Y-12288460D01*
X14039229Y-12288460D02*
X14020182Y-12297984D01*
X14020182Y-12297984D02*
X14001134Y-12297984D01*
X14001134Y-12297984D02*
X13982086Y-12288460D01*
X13982086Y-12288460D02*
X13972563Y-12278936D01*
X13972563Y-12278936D02*
X13963039Y-12259888D01*
X13963039Y-12259888D02*
X13953515Y-12221793D01*
X13953515Y-12221793D02*
X13953515Y-12174174D01*
X13953515Y-12174174D02*
X13963039Y-12136079D01*
X13963039Y-12136079D02*
X13972563Y-12117031D01*
X13972563Y-12117031D02*
X13982086Y-12107508D01*
X13982086Y-12107508D02*
X14001134Y-12097984D01*
X14153515Y-12278936D02*
X14163039Y-12288460D01*
X14163039Y-12288460D02*
X14153515Y-12297984D01*
X14153515Y-12297984D02*
X14143991Y-12288460D01*
X14143991Y-12288460D02*
X14153515Y-12278936D01*
X14153515Y-12278936D02*
X14153515Y-12297984D01*
X14286848Y-12097984D02*
X14305896Y-12097984D01*
X14305896Y-12097984D02*
X14324944Y-12107508D01*
X14324944Y-12107508D02*
X14334467Y-12117031D01*
X14334467Y-12117031D02*
X14343991Y-12136079D01*
X14343991Y-12136079D02*
X14353515Y-12174174D01*
X14353515Y-12174174D02*
X14353515Y-12221793D01*
X14353515Y-12221793D02*
X14343991Y-12259888D01*
X14343991Y-12259888D02*
X14334467Y-12278936D01*
X14334467Y-12278936D02*
X14324944Y-12288460D01*
X14324944Y-12288460D02*
X14305896Y-12297984D01*
X14305896Y-12297984D02*
X14286848Y-12297984D01*
X14286848Y-12297984D02*
X14267801Y-12288460D01*
X14267801Y-12288460D02*
X14258277Y-12278936D01*
X14258277Y-12278936D02*
X14248753Y-12259888D01*
X14248753Y-12259888D02*
X14239229Y-12221793D01*
X14239229Y-12221793D02*
X14239229Y-12174174D01*
X14239229Y-12174174D02*
X14248753Y-12136079D01*
X14248753Y-12136079D02*
X14258277Y-12117031D01*
X14258277Y-12117031D02*
X14267801Y-12107508D01*
X14267801Y-12107508D02*
X14286848Y-12097984D01*
X14534467Y-12097984D02*
X14439229Y-12097984D01*
X14439229Y-12097984D02*
X14429706Y-12193222D01*
X14429706Y-12193222D02*
X14439229Y-12183698D01*
X14439229Y-12183698D02*
X14458277Y-12174174D01*
X14458277Y-12174174D02*
X14505896Y-12174174D01*
X14505896Y-12174174D02*
X14524944Y-12183698D01*
X14524944Y-12183698D02*
X14534467Y-12193222D01*
X14534467Y-12193222D02*
X14543991Y-12212269D01*
X14543991Y-12212269D02*
X14543991Y-12259888D01*
X14543991Y-12259888D02*
X14534467Y-12278936D01*
X14534467Y-12278936D02*
X14524944Y-12288460D01*
X14524944Y-12288460D02*
X14505896Y-12297984D01*
X14505896Y-12297984D02*
X14458277Y-12297984D01*
X14458277Y-12297984D02*
X14439229Y-12288460D01*
X14439229Y-12288460D02*
X14429706Y-12278936D01*
X14734467Y-12297984D02*
X14620182Y-12297984D01*
X14677325Y-12297984D02*
X14677325Y-12097984D01*
X14677325Y-12097984D02*
X14658277Y-12126555D01*
X14658277Y-12126555D02*
X14639229Y-12145603D01*
X14639229Y-12145603D02*
X14620182Y-12155127D01*
X14858277Y-12097984D02*
X14877325Y-12097984D01*
X14877325Y-12097984D02*
X14896372Y-12107508D01*
X14896372Y-12107508D02*
X14905896Y-12117031D01*
X14905896Y-12117031D02*
X14915420Y-12136079D01*
X14915420Y-12136079D02*
X14924944Y-12174174D01*
X14924944Y-12174174D02*
X14924944Y-12221793D01*
X14924944Y-12221793D02*
X14915420Y-12259888D01*
X14915420Y-12259888D02*
X14905896Y-12278936D01*
X14905896Y-12278936D02*
X14896372Y-12288460D01*
X14896372Y-12288460D02*
X14877325Y-12297984D01*
X14877325Y-12297984D02*
X14858277Y-12297984D01*
X14858277Y-12297984D02*
X14839229Y-12288460D01*
X14839229Y-12288460D02*
X14829706Y-12278936D01*
X14829706Y-12278936D02*
X14820182Y-12259888D01*
X14820182Y-12259888D02*
X14810658Y-12221793D01*
X14810658Y-12221793D02*
X14810658Y-12174174D01*
X14810658Y-12174174D02*
X14820182Y-12136079D01*
X14820182Y-12136079D02*
X14829706Y-12117031D01*
X14829706Y-12117031D02*
X14839229Y-12107508D01*
X14839229Y-12107508D02*
X14858277Y-12097984D01*
X15001134Y-12097984D02*
X15001134Y-12136079D01*
X15077325Y-12097984D02*
X15077325Y-12136079D01*
X15372563Y-12374174D02*
X15363039Y-12364650D01*
X15363039Y-12364650D02*
X15343991Y-12336079D01*
X15343991Y-12336079D02*
X15334468Y-12317031D01*
X15334468Y-12317031D02*
X15324944Y-12288460D01*
X15324944Y-12288460D02*
X15315420Y-12240841D01*
X15315420Y-12240841D02*
X15315420Y-12202746D01*
X15315420Y-12202746D02*
X15324944Y-12155127D01*
X15324944Y-12155127D02*
X15334468Y-12126555D01*
X15334468Y-12126555D02*
X15343991Y-12107508D01*
X15343991Y-12107508D02*
X15363039Y-12078936D01*
X15363039Y-12078936D02*
X15372563Y-12069412D01*
X15429706Y-12097984D02*
X15553515Y-12097984D01*
X15553515Y-12097984D02*
X15486848Y-12174174D01*
X15486848Y-12174174D02*
X15515420Y-12174174D01*
X15515420Y-12174174D02*
X15534468Y-12183698D01*
X15534468Y-12183698D02*
X15543991Y-12193222D01*
X15543991Y-12193222D02*
X15553515Y-12212269D01*
X15553515Y-12212269D02*
X15553515Y-12259888D01*
X15553515Y-12259888D02*
X15543991Y-12278936D01*
X15543991Y-12278936D02*
X15534468Y-12288460D01*
X15534468Y-12288460D02*
X15515420Y-12297984D01*
X15515420Y-12297984D02*
X15458277Y-12297984D01*
X15458277Y-12297984D02*
X15439229Y-12288460D01*
X15439229Y-12288460D02*
X15429706Y-12278936D01*
X15791610Y-12297984D02*
X15791610Y-12097984D01*
X15877325Y-12297984D02*
X15877325Y-12193222D01*
X15877325Y-12193222D02*
X15867801Y-12174174D01*
X15867801Y-12174174D02*
X15848753Y-12164650D01*
X15848753Y-12164650D02*
X15820182Y-12164650D01*
X15820182Y-12164650D02*
X15801134Y-12174174D01*
X15801134Y-12174174D02*
X15791610Y-12183698D01*
X16001134Y-12297984D02*
X15982087Y-12288460D01*
X15982087Y-12288460D02*
X15972563Y-12278936D01*
X15972563Y-12278936D02*
X15963039Y-12259888D01*
X15963039Y-12259888D02*
X15963039Y-12202746D01*
X15963039Y-12202746D02*
X15972563Y-12183698D01*
X15972563Y-12183698D02*
X15982087Y-12174174D01*
X15982087Y-12174174D02*
X16001134Y-12164650D01*
X16001134Y-12164650D02*
X16029706Y-12164650D01*
X16029706Y-12164650D02*
X16048753Y-12174174D01*
X16048753Y-12174174D02*
X16058277Y-12183698D01*
X16058277Y-12183698D02*
X16067801Y-12202746D01*
X16067801Y-12202746D02*
X16067801Y-12259888D01*
X16067801Y-12259888D02*
X16058277Y-12278936D01*
X16058277Y-12278936D02*
X16048753Y-12288460D01*
X16048753Y-12288460D02*
X16029706Y-12297984D01*
X16029706Y-12297984D02*
X16001134Y-12297984D01*
X16182087Y-12297984D02*
X16163039Y-12288460D01*
X16163039Y-12288460D02*
X16153515Y-12269412D01*
X16153515Y-12269412D02*
X16153515Y-12097984D01*
X16334468Y-12288460D02*
X16315420Y-12297984D01*
X16315420Y-12297984D02*
X16277325Y-12297984D01*
X16277325Y-12297984D02*
X16258277Y-12288460D01*
X16258277Y-12288460D02*
X16248753Y-12269412D01*
X16248753Y-12269412D02*
X16248753Y-12193222D01*
X16248753Y-12193222D02*
X16258277Y-12174174D01*
X16258277Y-12174174D02*
X16277325Y-12164650D01*
X16277325Y-12164650D02*
X16315420Y-12164650D01*
X16315420Y-12164650D02*
X16334468Y-12174174D01*
X16334468Y-12174174D02*
X16343991Y-12193222D01*
X16343991Y-12193222D02*
X16343991Y-12212269D01*
X16343991Y-12212269D02*
X16248753Y-12231317D01*
X16420182Y-12288460D02*
X16439230Y-12297984D01*
X16439230Y-12297984D02*
X16477325Y-12297984D01*
X16477325Y-12297984D02*
X16496372Y-12288460D01*
X16496372Y-12288460D02*
X16505896Y-12269412D01*
X16505896Y-12269412D02*
X16505896Y-12259888D01*
X16505896Y-12259888D02*
X16496372Y-12240841D01*
X16496372Y-12240841D02*
X16477325Y-12231317D01*
X16477325Y-12231317D02*
X16448753Y-12231317D01*
X16448753Y-12231317D02*
X16429706Y-12221793D01*
X16429706Y-12221793D02*
X16420182Y-12202746D01*
X16420182Y-12202746D02*
X16420182Y-12193222D01*
X16420182Y-12193222D02*
X16429706Y-12174174D01*
X16429706Y-12174174D02*
X16448753Y-12164650D01*
X16448753Y-12164650D02*
X16477325Y-12164650D01*
X16477325Y-12164650D02*
X16496372Y-12174174D01*
X16572563Y-12374174D02*
X16582087Y-12364650D01*
X16582087Y-12364650D02*
X16601134Y-12336079D01*
X16601134Y-12336079D02*
X16610658Y-12317031D01*
X16610658Y-12317031D02*
X16620182Y-12288460D01*
X16620182Y-12288460D02*
X16629706Y-12240841D01*
X16629706Y-12240841D02*
X16629706Y-12202746D01*
X16629706Y-12202746D02*
X16620182Y-12155127D01*
X16620182Y-12155127D02*
X16610658Y-12126555D01*
X16610658Y-12126555D02*
X16601134Y-12107508D01*
X16601134Y-12107508D02*
X16582087Y-12078936D01*
X16582087Y-12078936D02*
X16572563Y-12069412D01*
X11697500Y-12370500D02*
X11697500Y-12570500D01*
X11597500Y-12470500D02*
X11797500Y-12470500D01*
X12048753Y-12381031D02*
X12058277Y-12371508D01*
X12058277Y-12371508D02*
X12077324Y-12361984D01*
X12077324Y-12361984D02*
X12124943Y-12361984D01*
X12124943Y-12361984D02*
X12143991Y-12371508D01*
X12143991Y-12371508D02*
X12153515Y-12381031D01*
X12153515Y-12381031D02*
X12163039Y-12400079D01*
X12163039Y-12400079D02*
X12163039Y-12419127D01*
X12163039Y-12419127D02*
X12153515Y-12447698D01*
X12153515Y-12447698D02*
X12039229Y-12561984D01*
X12039229Y-12561984D02*
X12163039Y-12561984D01*
X12248753Y-12542936D02*
X12258277Y-12552460D01*
X12258277Y-12552460D02*
X12248753Y-12561984D01*
X12248753Y-12561984D02*
X12239229Y-12552460D01*
X12239229Y-12552460D02*
X12248753Y-12542936D01*
X12248753Y-12542936D02*
X12248753Y-12561984D01*
X12382086Y-12361984D02*
X12401134Y-12361984D01*
X12401134Y-12361984D02*
X12420182Y-12371508D01*
X12420182Y-12371508D02*
X12429705Y-12381031D01*
X12429705Y-12381031D02*
X12439229Y-12400079D01*
X12439229Y-12400079D02*
X12448753Y-12438174D01*
X12448753Y-12438174D02*
X12448753Y-12485793D01*
X12448753Y-12485793D02*
X12439229Y-12523888D01*
X12439229Y-12523888D02*
X12429705Y-12542936D01*
X12429705Y-12542936D02*
X12420182Y-12552460D01*
X12420182Y-12552460D02*
X12401134Y-12561984D01*
X12401134Y-12561984D02*
X12382086Y-12561984D01*
X12382086Y-12561984D02*
X12363039Y-12552460D01*
X12363039Y-12552460D02*
X12353515Y-12542936D01*
X12353515Y-12542936D02*
X12343991Y-12523888D01*
X12343991Y-12523888D02*
X12334467Y-12485793D01*
X12334467Y-12485793D02*
X12334467Y-12438174D01*
X12334467Y-12438174D02*
X12343991Y-12400079D01*
X12343991Y-12400079D02*
X12353515Y-12381031D01*
X12353515Y-12381031D02*
X12363039Y-12371508D01*
X12363039Y-12371508D02*
X12382086Y-12361984D01*
X12572562Y-12361984D02*
X12591610Y-12361984D01*
X12591610Y-12361984D02*
X12610658Y-12371508D01*
X12610658Y-12371508D02*
X12620182Y-12381031D01*
X12620182Y-12381031D02*
X12629705Y-12400079D01*
X12629705Y-12400079D02*
X12639229Y-12438174D01*
X12639229Y-12438174D02*
X12639229Y-12485793D01*
X12639229Y-12485793D02*
X12629705Y-12523888D01*
X12629705Y-12523888D02*
X12620182Y-12542936D01*
X12620182Y-12542936D02*
X12610658Y-12552460D01*
X12610658Y-12552460D02*
X12591610Y-12561984D01*
X12591610Y-12561984D02*
X12572562Y-12561984D01*
X12572562Y-12561984D02*
X12553515Y-12552460D01*
X12553515Y-12552460D02*
X12543991Y-12542936D01*
X12543991Y-12542936D02*
X12534467Y-12523888D01*
X12534467Y-12523888D02*
X12524943Y-12485793D01*
X12524943Y-12485793D02*
X12524943Y-12438174D01*
X12524943Y-12438174D02*
X12534467Y-12400079D01*
X12534467Y-12400079D02*
X12543991Y-12381031D01*
X12543991Y-12381031D02*
X12553515Y-12371508D01*
X12553515Y-12371508D02*
X12572562Y-12361984D01*
X12763039Y-12361984D02*
X12782086Y-12361984D01*
X12782086Y-12361984D02*
X12801134Y-12371508D01*
X12801134Y-12371508D02*
X12810658Y-12381031D01*
X12810658Y-12381031D02*
X12820182Y-12400079D01*
X12820182Y-12400079D02*
X12829705Y-12438174D01*
X12829705Y-12438174D02*
X12829705Y-12485793D01*
X12829705Y-12485793D02*
X12820182Y-12523888D01*
X12820182Y-12523888D02*
X12810658Y-12542936D01*
X12810658Y-12542936D02*
X12801134Y-12552460D01*
X12801134Y-12552460D02*
X12782086Y-12561984D01*
X12782086Y-12561984D02*
X12763039Y-12561984D01*
X12763039Y-12561984D02*
X12743991Y-12552460D01*
X12743991Y-12552460D02*
X12734467Y-12542936D01*
X12734467Y-12542936D02*
X12724943Y-12523888D01*
X12724943Y-12523888D02*
X12715420Y-12485793D01*
X12715420Y-12485793D02*
X12715420Y-12438174D01*
X12715420Y-12438174D02*
X12724943Y-12400079D01*
X12724943Y-12400079D02*
X12734467Y-12381031D01*
X12734467Y-12381031D02*
X12743991Y-12371508D01*
X12743991Y-12371508D02*
X12763039Y-12361984D01*
X12915420Y-12561984D02*
X12915420Y-12428650D01*
X12915420Y-12447698D02*
X12924943Y-12438174D01*
X12924943Y-12438174D02*
X12943991Y-12428650D01*
X12943991Y-12428650D02*
X12972563Y-12428650D01*
X12972563Y-12428650D02*
X12991610Y-12438174D01*
X12991610Y-12438174D02*
X13001134Y-12457222D01*
X13001134Y-12457222D02*
X13001134Y-12561984D01*
X13001134Y-12457222D02*
X13010658Y-12438174D01*
X13010658Y-12438174D02*
X13029705Y-12428650D01*
X13029705Y-12428650D02*
X13058277Y-12428650D01*
X13058277Y-12428650D02*
X13077324Y-12438174D01*
X13077324Y-12438174D02*
X13086848Y-12457222D01*
X13086848Y-12457222D02*
X13086848Y-12561984D01*
X13182086Y-12561984D02*
X13182086Y-12428650D01*
X13182086Y-12447698D02*
X13191610Y-12438174D01*
X13191610Y-12438174D02*
X13210658Y-12428650D01*
X13210658Y-12428650D02*
X13239229Y-12428650D01*
X13239229Y-12428650D02*
X13258277Y-12438174D01*
X13258277Y-12438174D02*
X13267801Y-12457222D01*
X13267801Y-12457222D02*
X13267801Y-12561984D01*
X13267801Y-12457222D02*
X13277324Y-12438174D01*
X13277324Y-12438174D02*
X13296372Y-12428650D01*
X13296372Y-12428650D02*
X13324943Y-12428650D01*
X13324943Y-12428650D02*
X13343991Y-12438174D01*
X13343991Y-12438174D02*
X13353515Y-12457222D01*
X13353515Y-12457222D02*
X13353515Y-12561984D01*
X13743991Y-12352460D02*
X13572563Y-12609603D01*
X14001134Y-12361984D02*
X14020182Y-12361984D01*
X14020182Y-12361984D02*
X14039229Y-12371508D01*
X14039229Y-12371508D02*
X14048753Y-12381031D01*
X14048753Y-12381031D02*
X14058277Y-12400079D01*
X14058277Y-12400079D02*
X14067801Y-12438174D01*
X14067801Y-12438174D02*
X14067801Y-12485793D01*
X14067801Y-12485793D02*
X14058277Y-12523888D01*
X14058277Y-12523888D02*
X14048753Y-12542936D01*
X14048753Y-12542936D02*
X14039229Y-12552460D01*
X14039229Y-12552460D02*
X14020182Y-12561984D01*
X14020182Y-12561984D02*
X14001134Y-12561984D01*
X14001134Y-12561984D02*
X13982086Y-12552460D01*
X13982086Y-12552460D02*
X13972563Y-12542936D01*
X13972563Y-12542936D02*
X13963039Y-12523888D01*
X13963039Y-12523888D02*
X13953515Y-12485793D01*
X13953515Y-12485793D02*
X13953515Y-12438174D01*
X13953515Y-12438174D02*
X13963039Y-12400079D01*
X13963039Y-12400079D02*
X13972563Y-12381031D01*
X13972563Y-12381031D02*
X13982086Y-12371508D01*
X13982086Y-12371508D02*
X14001134Y-12361984D01*
X14153515Y-12542936D02*
X14163039Y-12552460D01*
X14163039Y-12552460D02*
X14153515Y-12561984D01*
X14153515Y-12561984D02*
X14143991Y-12552460D01*
X14143991Y-12552460D02*
X14153515Y-12542936D01*
X14153515Y-12542936D02*
X14153515Y-12561984D01*
X14286848Y-12361984D02*
X14305896Y-12361984D01*
X14305896Y-12361984D02*
X14324944Y-12371508D01*
X14324944Y-12371508D02*
X14334467Y-12381031D01*
X14334467Y-12381031D02*
X14343991Y-12400079D01*
X14343991Y-12400079D02*
X14353515Y-12438174D01*
X14353515Y-12438174D02*
X14353515Y-12485793D01*
X14353515Y-12485793D02*
X14343991Y-12523888D01*
X14343991Y-12523888D02*
X14334467Y-12542936D01*
X14334467Y-12542936D02*
X14324944Y-12552460D01*
X14324944Y-12552460D02*
X14305896Y-12561984D01*
X14305896Y-12561984D02*
X14286848Y-12561984D01*
X14286848Y-12561984D02*
X14267801Y-12552460D01*
X14267801Y-12552460D02*
X14258277Y-12542936D01*
X14258277Y-12542936D02*
X14248753Y-12523888D01*
X14248753Y-12523888D02*
X14239229Y-12485793D01*
X14239229Y-12485793D02*
X14239229Y-12438174D01*
X14239229Y-12438174D02*
X14248753Y-12400079D01*
X14248753Y-12400079D02*
X14258277Y-12381031D01*
X14258277Y-12381031D02*
X14267801Y-12371508D01*
X14267801Y-12371508D02*
X14286848Y-12361984D01*
X14420182Y-12361984D02*
X14553515Y-12361984D01*
X14553515Y-12361984D02*
X14467801Y-12561984D01*
X14658277Y-12447698D02*
X14639229Y-12438174D01*
X14639229Y-12438174D02*
X14629706Y-12428650D01*
X14629706Y-12428650D02*
X14620182Y-12409603D01*
X14620182Y-12409603D02*
X14620182Y-12400079D01*
X14620182Y-12400079D02*
X14629706Y-12381031D01*
X14629706Y-12381031D02*
X14639229Y-12371508D01*
X14639229Y-12371508D02*
X14658277Y-12361984D01*
X14658277Y-12361984D02*
X14696372Y-12361984D01*
X14696372Y-12361984D02*
X14715420Y-12371508D01*
X14715420Y-12371508D02*
X14724944Y-12381031D01*
X14724944Y-12381031D02*
X14734467Y-12400079D01*
X14734467Y-12400079D02*
X14734467Y-12409603D01*
X14734467Y-12409603D02*
X14724944Y-12428650D01*
X14724944Y-12428650D02*
X14715420Y-12438174D01*
X14715420Y-12438174D02*
X14696372Y-12447698D01*
X14696372Y-12447698D02*
X14658277Y-12447698D01*
X14658277Y-12447698D02*
X14639229Y-12457222D01*
X14639229Y-12457222D02*
X14629706Y-12466746D01*
X14629706Y-12466746D02*
X14620182Y-12485793D01*
X14620182Y-12485793D02*
X14620182Y-12523888D01*
X14620182Y-12523888D02*
X14629706Y-12542936D01*
X14629706Y-12542936D02*
X14639229Y-12552460D01*
X14639229Y-12552460D02*
X14658277Y-12561984D01*
X14658277Y-12561984D02*
X14696372Y-12561984D01*
X14696372Y-12561984D02*
X14715420Y-12552460D01*
X14715420Y-12552460D02*
X14724944Y-12542936D01*
X14724944Y-12542936D02*
X14734467Y-12523888D01*
X14734467Y-12523888D02*
X14734467Y-12485793D01*
X14734467Y-12485793D02*
X14724944Y-12466746D01*
X14724944Y-12466746D02*
X14715420Y-12457222D01*
X14715420Y-12457222D02*
X14696372Y-12447698D01*
X14801134Y-12361984D02*
X14934467Y-12361984D01*
X14934467Y-12361984D02*
X14848753Y-12561984D01*
X15001134Y-12361984D02*
X15001134Y-12400079D01*
X15077325Y-12361984D02*
X15077325Y-12400079D01*
X15372563Y-12638174D02*
X15363039Y-12628650D01*
X15363039Y-12628650D02*
X15343991Y-12600079D01*
X15343991Y-12600079D02*
X15334468Y-12581031D01*
X15334468Y-12581031D02*
X15324944Y-12552460D01*
X15324944Y-12552460D02*
X15315420Y-12504841D01*
X15315420Y-12504841D02*
X15315420Y-12466746D01*
X15315420Y-12466746D02*
X15324944Y-12419127D01*
X15324944Y-12419127D02*
X15334468Y-12390555D01*
X15334468Y-12390555D02*
X15343991Y-12371508D01*
X15343991Y-12371508D02*
X15363039Y-12342936D01*
X15363039Y-12342936D02*
X15372563Y-12333412D01*
X15439229Y-12381031D02*
X15448753Y-12371508D01*
X15448753Y-12371508D02*
X15467801Y-12361984D01*
X15467801Y-12361984D02*
X15515420Y-12361984D01*
X15515420Y-12361984D02*
X15534468Y-12371508D01*
X15534468Y-12371508D02*
X15543991Y-12381031D01*
X15543991Y-12381031D02*
X15553515Y-12400079D01*
X15553515Y-12400079D02*
X15553515Y-12419127D01*
X15553515Y-12419127D02*
X15543991Y-12447698D01*
X15543991Y-12447698D02*
X15429706Y-12561984D01*
X15429706Y-12561984D02*
X15553515Y-12561984D01*
X15791610Y-12561984D02*
X15791610Y-12361984D01*
X15877325Y-12561984D02*
X15877325Y-12457222D01*
X15877325Y-12457222D02*
X15867801Y-12438174D01*
X15867801Y-12438174D02*
X15848753Y-12428650D01*
X15848753Y-12428650D02*
X15820182Y-12428650D01*
X15820182Y-12428650D02*
X15801134Y-12438174D01*
X15801134Y-12438174D02*
X15791610Y-12447698D01*
X16001134Y-12561984D02*
X15982087Y-12552460D01*
X15982087Y-12552460D02*
X15972563Y-12542936D01*
X15972563Y-12542936D02*
X15963039Y-12523888D01*
X15963039Y-12523888D02*
X15963039Y-12466746D01*
X15963039Y-12466746D02*
X15972563Y-12447698D01*
X15972563Y-12447698D02*
X15982087Y-12438174D01*
X15982087Y-12438174D02*
X16001134Y-12428650D01*
X16001134Y-12428650D02*
X16029706Y-12428650D01*
X16029706Y-12428650D02*
X16048753Y-12438174D01*
X16048753Y-12438174D02*
X16058277Y-12447698D01*
X16058277Y-12447698D02*
X16067801Y-12466746D01*
X16067801Y-12466746D02*
X16067801Y-12523888D01*
X16067801Y-12523888D02*
X16058277Y-12542936D01*
X16058277Y-12542936D02*
X16048753Y-12552460D01*
X16048753Y-12552460D02*
X16029706Y-12561984D01*
X16029706Y-12561984D02*
X16001134Y-12561984D01*
X16182087Y-12561984D02*
X16163039Y-12552460D01*
X16163039Y-12552460D02*
X16153515Y-12533412D01*
X16153515Y-12533412D02*
X16153515Y-12361984D01*
X16334468Y-12552460D02*
X16315420Y-12561984D01*
X16315420Y-12561984D02*
X16277325Y-12561984D01*
X16277325Y-12561984D02*
X16258277Y-12552460D01*
X16258277Y-12552460D02*
X16248753Y-12533412D01*
X16248753Y-12533412D02*
X16248753Y-12457222D01*
X16248753Y-12457222D02*
X16258277Y-12438174D01*
X16258277Y-12438174D02*
X16277325Y-12428650D01*
X16277325Y-12428650D02*
X16315420Y-12428650D01*
X16315420Y-12428650D02*
X16334468Y-12438174D01*
X16334468Y-12438174D02*
X16343991Y-12457222D01*
X16343991Y-12457222D02*
X16343991Y-12476269D01*
X16343991Y-12476269D02*
X16248753Y-12495317D01*
X16420182Y-12552460D02*
X16439230Y-12561984D01*
X16439230Y-12561984D02*
X16477325Y-12561984D01*
X16477325Y-12561984D02*
X16496372Y-12552460D01*
X16496372Y-12552460D02*
X16505896Y-12533412D01*
X16505896Y-12533412D02*
X16505896Y-12523888D01*
X16505896Y-12523888D02*
X16496372Y-12504841D01*
X16496372Y-12504841D02*
X16477325Y-12495317D01*
X16477325Y-12495317D02*
X16448753Y-12495317D01*
X16448753Y-12495317D02*
X16429706Y-12485793D01*
X16429706Y-12485793D02*
X16420182Y-12466746D01*
X16420182Y-12466746D02*
X16420182Y-12457222D01*
X16420182Y-12457222D02*
X16429706Y-12438174D01*
X16429706Y-12438174D02*
X16448753Y-12428650D01*
X16448753Y-12428650D02*
X16477325Y-12428650D01*
X16477325Y-12428650D02*
X16496372Y-12438174D01*
X16572563Y-12638174D02*
X16582087Y-12628650D01*
X16582087Y-12628650D02*
X16601134Y-12600079D01*
X16601134Y-12600079D02*
X16610658Y-12581031D01*
X16610658Y-12581031D02*
X16620182Y-12552460D01*
X16620182Y-12552460D02*
X16629706Y-12504841D01*
X16629706Y-12504841D02*
X16629706Y-12466746D01*
X16629706Y-12466746D02*
X16620182Y-12419127D01*
X16620182Y-12419127D02*
X16610658Y-12390555D01*
X16610658Y-12390555D02*
X16601134Y-12371508D01*
X16601134Y-12371508D02*
X16582087Y-12342936D01*
X16582087Y-12342936D02*
X16572563Y-12333412D01*
M02*
