%TF.GenerationSoftware,KiCad,Pcbnew,8.0.4*%
%TF.CreationDate,2024-08-04T23:07:33+09:00*%
%TF.ProjectId,sdvx-encoder-holder,73647678-2d65-46e6-936f-6465722d686f,rev?*%
%TF.SameCoordinates,Original*%
%TF.FileFunction,Legend,Top*%
%TF.FilePolarity,Positive*%
%FSLAX46Y46*%
G04 Gerber Fmt 4.6, Leading zero omitted, Abs format (unit mm)*
G04 Created by KiCad (PCBNEW 8.0.4) date 2024-08-04 23:07:33*
%MOMM*%
%LPD*%
G01*
G04 APERTURE LIST*
%ADD10C,0.100000*%
%ADD11C,0.150000*%
%ADD12C,0.120000*%
%ADD13C,0.152400*%
G04 APERTURE END LIST*
D10*
X122666666Y-90738665D02*
X122999999Y-90738665D01*
X123142856Y-91262475D02*
X122666666Y-91262475D01*
X122666666Y-91262475D02*
X122666666Y-90262475D01*
X122666666Y-90262475D02*
X123142856Y-90262475D01*
X123571428Y-90595808D02*
X123571428Y-91262475D01*
X123571428Y-90691046D02*
X123619047Y-90643427D01*
X123619047Y-90643427D02*
X123714285Y-90595808D01*
X123714285Y-90595808D02*
X123857142Y-90595808D01*
X123857142Y-90595808D02*
X123952380Y-90643427D01*
X123952380Y-90643427D02*
X123999999Y-90738665D01*
X123999999Y-90738665D02*
X123999999Y-91262475D01*
X124904761Y-91214856D02*
X124809523Y-91262475D01*
X124809523Y-91262475D02*
X124619047Y-91262475D01*
X124619047Y-91262475D02*
X124523809Y-91214856D01*
X124523809Y-91214856D02*
X124476190Y-91167236D01*
X124476190Y-91167236D02*
X124428571Y-91071998D01*
X124428571Y-91071998D02*
X124428571Y-90786284D01*
X124428571Y-90786284D02*
X124476190Y-90691046D01*
X124476190Y-90691046D02*
X124523809Y-90643427D01*
X124523809Y-90643427D02*
X124619047Y-90595808D01*
X124619047Y-90595808D02*
X124809523Y-90595808D01*
X124809523Y-90595808D02*
X124904761Y-90643427D01*
X125476190Y-91262475D02*
X125380952Y-91214856D01*
X125380952Y-91214856D02*
X125333333Y-91167236D01*
X125333333Y-91167236D02*
X125285714Y-91071998D01*
X125285714Y-91071998D02*
X125285714Y-90786284D01*
X125285714Y-90786284D02*
X125333333Y-90691046D01*
X125333333Y-90691046D02*
X125380952Y-90643427D01*
X125380952Y-90643427D02*
X125476190Y-90595808D01*
X125476190Y-90595808D02*
X125619047Y-90595808D01*
X125619047Y-90595808D02*
X125714285Y-90643427D01*
X125714285Y-90643427D02*
X125761904Y-90691046D01*
X125761904Y-90691046D02*
X125809523Y-90786284D01*
X125809523Y-90786284D02*
X125809523Y-91071998D01*
X125809523Y-91071998D02*
X125761904Y-91167236D01*
X125761904Y-91167236D02*
X125714285Y-91214856D01*
X125714285Y-91214856D02*
X125619047Y-91262475D01*
X125619047Y-91262475D02*
X125476190Y-91262475D01*
X126666666Y-91262475D02*
X126666666Y-90262475D01*
X126666666Y-91214856D02*
X126571428Y-91262475D01*
X126571428Y-91262475D02*
X126380952Y-91262475D01*
X126380952Y-91262475D02*
X126285714Y-91214856D01*
X126285714Y-91214856D02*
X126238095Y-91167236D01*
X126238095Y-91167236D02*
X126190476Y-91071998D01*
X126190476Y-91071998D02*
X126190476Y-90786284D01*
X126190476Y-90786284D02*
X126238095Y-90691046D01*
X126238095Y-90691046D02*
X126285714Y-90643427D01*
X126285714Y-90643427D02*
X126380952Y-90595808D01*
X126380952Y-90595808D02*
X126571428Y-90595808D01*
X126571428Y-90595808D02*
X126666666Y-90643427D01*
X127523809Y-91214856D02*
X127428571Y-91262475D01*
X127428571Y-91262475D02*
X127238095Y-91262475D01*
X127238095Y-91262475D02*
X127142857Y-91214856D01*
X127142857Y-91214856D02*
X127095238Y-91119617D01*
X127095238Y-91119617D02*
X127095238Y-90738665D01*
X127095238Y-90738665D02*
X127142857Y-90643427D01*
X127142857Y-90643427D02*
X127238095Y-90595808D01*
X127238095Y-90595808D02*
X127428571Y-90595808D01*
X127428571Y-90595808D02*
X127523809Y-90643427D01*
X127523809Y-90643427D02*
X127571428Y-90738665D01*
X127571428Y-90738665D02*
X127571428Y-90833903D01*
X127571428Y-90833903D02*
X127095238Y-90929141D01*
X128000000Y-91262475D02*
X128000000Y-90595808D01*
X128000000Y-90786284D02*
X128047619Y-90691046D01*
X128047619Y-90691046D02*
X128095238Y-90643427D01*
X128095238Y-90643427D02*
X128190476Y-90595808D01*
X128190476Y-90595808D02*
X128285714Y-90595808D01*
X129380953Y-91262475D02*
X129380953Y-90262475D01*
X129380953Y-90262475D02*
X129714286Y-90976760D01*
X129714286Y-90976760D02*
X130047619Y-90262475D01*
X130047619Y-90262475D02*
X130047619Y-91262475D01*
X130666667Y-91262475D02*
X130571429Y-91214856D01*
X130571429Y-91214856D02*
X130523810Y-91167236D01*
X130523810Y-91167236D02*
X130476191Y-91071998D01*
X130476191Y-91071998D02*
X130476191Y-90786284D01*
X130476191Y-90786284D02*
X130523810Y-90691046D01*
X130523810Y-90691046D02*
X130571429Y-90643427D01*
X130571429Y-90643427D02*
X130666667Y-90595808D01*
X130666667Y-90595808D02*
X130809524Y-90595808D01*
X130809524Y-90595808D02*
X130904762Y-90643427D01*
X130904762Y-90643427D02*
X130952381Y-90691046D01*
X130952381Y-90691046D02*
X131000000Y-90786284D01*
X131000000Y-90786284D02*
X131000000Y-91071998D01*
X131000000Y-91071998D02*
X130952381Y-91167236D01*
X130952381Y-91167236D02*
X130904762Y-91214856D01*
X130904762Y-91214856D02*
X130809524Y-91262475D01*
X130809524Y-91262475D02*
X130666667Y-91262475D01*
X131857143Y-90595808D02*
X131857143Y-91262475D01*
X131428572Y-90595808D02*
X131428572Y-91119617D01*
X131428572Y-91119617D02*
X131476191Y-91214856D01*
X131476191Y-91214856D02*
X131571429Y-91262475D01*
X131571429Y-91262475D02*
X131714286Y-91262475D01*
X131714286Y-91262475D02*
X131809524Y-91214856D01*
X131809524Y-91214856D02*
X131857143Y-91167236D01*
X132333334Y-90595808D02*
X132333334Y-91262475D01*
X132333334Y-90691046D02*
X132380953Y-90643427D01*
X132380953Y-90643427D02*
X132476191Y-90595808D01*
X132476191Y-90595808D02*
X132619048Y-90595808D01*
X132619048Y-90595808D02*
X132714286Y-90643427D01*
X132714286Y-90643427D02*
X132761905Y-90738665D01*
X132761905Y-90738665D02*
X132761905Y-91262475D01*
X133095239Y-90595808D02*
X133476191Y-90595808D01*
X133238096Y-90262475D02*
X133238096Y-91119617D01*
X133238096Y-91119617D02*
X133285715Y-91214856D01*
X133285715Y-91214856D02*
X133380953Y-91262475D01*
X133380953Y-91262475D02*
X133476191Y-91262475D01*
X121023809Y-92872419D02*
X121023809Y-92205752D01*
X121023809Y-92300990D02*
X121071428Y-92253371D01*
X121071428Y-92253371D02*
X121166666Y-92205752D01*
X121166666Y-92205752D02*
X121309523Y-92205752D01*
X121309523Y-92205752D02*
X121404761Y-92253371D01*
X121404761Y-92253371D02*
X121452380Y-92348609D01*
X121452380Y-92348609D02*
X121452380Y-92872419D01*
X121452380Y-92348609D02*
X121499999Y-92253371D01*
X121499999Y-92253371D02*
X121595237Y-92205752D01*
X121595237Y-92205752D02*
X121738094Y-92205752D01*
X121738094Y-92205752D02*
X121833333Y-92253371D01*
X121833333Y-92253371D02*
X121880952Y-92348609D01*
X121880952Y-92348609D02*
X121880952Y-92872419D01*
X122785713Y-92872419D02*
X122785713Y-92348609D01*
X122785713Y-92348609D02*
X122738094Y-92253371D01*
X122738094Y-92253371D02*
X122642856Y-92205752D01*
X122642856Y-92205752D02*
X122452380Y-92205752D01*
X122452380Y-92205752D02*
X122357142Y-92253371D01*
X122785713Y-92824800D02*
X122690475Y-92872419D01*
X122690475Y-92872419D02*
X122452380Y-92872419D01*
X122452380Y-92872419D02*
X122357142Y-92824800D01*
X122357142Y-92824800D02*
X122309523Y-92729561D01*
X122309523Y-92729561D02*
X122309523Y-92634323D01*
X122309523Y-92634323D02*
X122357142Y-92539085D01*
X122357142Y-92539085D02*
X122452380Y-92491466D01*
X122452380Y-92491466D02*
X122690475Y-92491466D01*
X122690475Y-92491466D02*
X122785713Y-92443847D01*
X123690475Y-92872419D02*
X123690475Y-91872419D01*
X123690475Y-92824800D02*
X123595237Y-92872419D01*
X123595237Y-92872419D02*
X123404761Y-92872419D01*
X123404761Y-92872419D02*
X123309523Y-92824800D01*
X123309523Y-92824800D02*
X123261904Y-92777180D01*
X123261904Y-92777180D02*
X123214285Y-92681942D01*
X123214285Y-92681942D02*
X123214285Y-92396228D01*
X123214285Y-92396228D02*
X123261904Y-92300990D01*
X123261904Y-92300990D02*
X123309523Y-92253371D01*
X123309523Y-92253371D02*
X123404761Y-92205752D01*
X123404761Y-92205752D02*
X123595237Y-92205752D01*
X123595237Y-92205752D02*
X123690475Y-92253371D01*
X124547618Y-92824800D02*
X124452380Y-92872419D01*
X124452380Y-92872419D02*
X124261904Y-92872419D01*
X124261904Y-92872419D02*
X124166666Y-92824800D01*
X124166666Y-92824800D02*
X124119047Y-92729561D01*
X124119047Y-92729561D02*
X124119047Y-92348609D01*
X124119047Y-92348609D02*
X124166666Y-92253371D01*
X124166666Y-92253371D02*
X124261904Y-92205752D01*
X124261904Y-92205752D02*
X124452380Y-92205752D01*
X124452380Y-92205752D02*
X124547618Y-92253371D01*
X124547618Y-92253371D02*
X124595237Y-92348609D01*
X124595237Y-92348609D02*
X124595237Y-92443847D01*
X124595237Y-92443847D02*
X124119047Y-92539085D01*
X125785714Y-92872419D02*
X125785714Y-91872419D01*
X125785714Y-92253371D02*
X125880952Y-92205752D01*
X125880952Y-92205752D02*
X126071428Y-92205752D01*
X126071428Y-92205752D02*
X126166666Y-92253371D01*
X126166666Y-92253371D02*
X126214285Y-92300990D01*
X126214285Y-92300990D02*
X126261904Y-92396228D01*
X126261904Y-92396228D02*
X126261904Y-92681942D01*
X126261904Y-92681942D02*
X126214285Y-92777180D01*
X126214285Y-92777180D02*
X126166666Y-92824800D01*
X126166666Y-92824800D02*
X126071428Y-92872419D01*
X126071428Y-92872419D02*
X125880952Y-92872419D01*
X125880952Y-92872419D02*
X125785714Y-92824800D01*
X126595238Y-92205752D02*
X126833333Y-92872419D01*
X127071428Y-92205752D02*
X126833333Y-92872419D01*
X126833333Y-92872419D02*
X126738095Y-93110514D01*
X126738095Y-93110514D02*
X126690476Y-93158133D01*
X126690476Y-93158133D02*
X126595238Y-93205752D01*
X128214286Y-92872419D02*
X128214286Y-91872419D01*
X128214286Y-92253371D02*
X128309524Y-92205752D01*
X128309524Y-92205752D02*
X128500000Y-92205752D01*
X128500000Y-92205752D02*
X128595238Y-92253371D01*
X128595238Y-92253371D02*
X128642857Y-92300990D01*
X128642857Y-92300990D02*
X128690476Y-92396228D01*
X128690476Y-92396228D02*
X128690476Y-92681942D01*
X128690476Y-92681942D02*
X128642857Y-92777180D01*
X128642857Y-92777180D02*
X128595238Y-92824800D01*
X128595238Y-92824800D02*
X128500000Y-92872419D01*
X128500000Y-92872419D02*
X128309524Y-92872419D01*
X128309524Y-92872419D02*
X128214286Y-92824800D01*
X129547619Y-92872419D02*
X129547619Y-92348609D01*
X129547619Y-92348609D02*
X129500000Y-92253371D01*
X129500000Y-92253371D02*
X129404762Y-92205752D01*
X129404762Y-92205752D02*
X129214286Y-92205752D01*
X129214286Y-92205752D02*
X129119048Y-92253371D01*
X129547619Y-92824800D02*
X129452381Y-92872419D01*
X129452381Y-92872419D02*
X129214286Y-92872419D01*
X129214286Y-92872419D02*
X129119048Y-92824800D01*
X129119048Y-92824800D02*
X129071429Y-92729561D01*
X129071429Y-92729561D02*
X129071429Y-92634323D01*
X129071429Y-92634323D02*
X129119048Y-92539085D01*
X129119048Y-92539085D02*
X129214286Y-92491466D01*
X129214286Y-92491466D02*
X129452381Y-92491466D01*
X129452381Y-92491466D02*
X129547619Y-92443847D01*
X129976191Y-92824800D02*
X130071429Y-92872419D01*
X130071429Y-92872419D02*
X130261905Y-92872419D01*
X130261905Y-92872419D02*
X130357143Y-92824800D01*
X130357143Y-92824800D02*
X130404762Y-92729561D01*
X130404762Y-92729561D02*
X130404762Y-92681942D01*
X130404762Y-92681942D02*
X130357143Y-92586704D01*
X130357143Y-92586704D02*
X130261905Y-92539085D01*
X130261905Y-92539085D02*
X130119048Y-92539085D01*
X130119048Y-92539085D02*
X130023810Y-92491466D01*
X130023810Y-92491466D02*
X129976191Y-92396228D01*
X129976191Y-92396228D02*
X129976191Y-92348609D01*
X129976191Y-92348609D02*
X130023810Y-92253371D01*
X130023810Y-92253371D02*
X130119048Y-92205752D01*
X130119048Y-92205752D02*
X130261905Y-92205752D01*
X130261905Y-92205752D02*
X130357143Y-92253371D01*
X130785715Y-92824800D02*
X130880953Y-92872419D01*
X130880953Y-92872419D02*
X131071429Y-92872419D01*
X131071429Y-92872419D02*
X131166667Y-92824800D01*
X131166667Y-92824800D02*
X131214286Y-92729561D01*
X131214286Y-92729561D02*
X131214286Y-92681942D01*
X131214286Y-92681942D02*
X131166667Y-92586704D01*
X131166667Y-92586704D02*
X131071429Y-92539085D01*
X131071429Y-92539085D02*
X130928572Y-92539085D01*
X130928572Y-92539085D02*
X130833334Y-92491466D01*
X130833334Y-92491466D02*
X130785715Y-92396228D01*
X130785715Y-92396228D02*
X130785715Y-92348609D01*
X130785715Y-92348609D02*
X130833334Y-92253371D01*
X130833334Y-92253371D02*
X130928572Y-92205752D01*
X130928572Y-92205752D02*
X131071429Y-92205752D01*
X131071429Y-92205752D02*
X131166667Y-92253371D01*
X131690477Y-92872419D02*
X131880953Y-92872419D01*
X131880953Y-92872419D02*
X131976191Y-92824800D01*
X131976191Y-92824800D02*
X132023810Y-92777180D01*
X132023810Y-92777180D02*
X132119048Y-92634323D01*
X132119048Y-92634323D02*
X132166667Y-92443847D01*
X132166667Y-92443847D02*
X132166667Y-92062895D01*
X132166667Y-92062895D02*
X132119048Y-91967657D01*
X132119048Y-91967657D02*
X132071429Y-91920038D01*
X132071429Y-91920038D02*
X131976191Y-91872419D01*
X131976191Y-91872419D02*
X131785715Y-91872419D01*
X131785715Y-91872419D02*
X131690477Y-91920038D01*
X131690477Y-91920038D02*
X131642858Y-91967657D01*
X131642858Y-91967657D02*
X131595239Y-92062895D01*
X131595239Y-92062895D02*
X131595239Y-92300990D01*
X131595239Y-92300990D02*
X131642858Y-92396228D01*
X131642858Y-92396228D02*
X131690477Y-92443847D01*
X131690477Y-92443847D02*
X131785715Y-92491466D01*
X131785715Y-92491466D02*
X131976191Y-92491466D01*
X131976191Y-92491466D02*
X132071429Y-92443847D01*
X132071429Y-92443847D02*
X132119048Y-92396228D01*
X132119048Y-92396228D02*
X132166667Y-92300990D01*
X132785715Y-91872419D02*
X132880953Y-91872419D01*
X132880953Y-91872419D02*
X132976191Y-91920038D01*
X132976191Y-91920038D02*
X133023810Y-91967657D01*
X133023810Y-91967657D02*
X133071429Y-92062895D01*
X133071429Y-92062895D02*
X133119048Y-92253371D01*
X133119048Y-92253371D02*
X133119048Y-92491466D01*
X133119048Y-92491466D02*
X133071429Y-92681942D01*
X133071429Y-92681942D02*
X133023810Y-92777180D01*
X133023810Y-92777180D02*
X132976191Y-92824800D01*
X132976191Y-92824800D02*
X132880953Y-92872419D01*
X132880953Y-92872419D02*
X132785715Y-92872419D01*
X132785715Y-92872419D02*
X132690477Y-92824800D01*
X132690477Y-92824800D02*
X132642858Y-92777180D01*
X132642858Y-92777180D02*
X132595239Y-92681942D01*
X132595239Y-92681942D02*
X132547620Y-92491466D01*
X132547620Y-92491466D02*
X132547620Y-92253371D01*
X132547620Y-92253371D02*
X132595239Y-92062895D01*
X132595239Y-92062895D02*
X132642858Y-91967657D01*
X132642858Y-91967657D02*
X132690477Y-91920038D01*
X132690477Y-91920038D02*
X132785715Y-91872419D01*
X133452382Y-91872419D02*
X134071429Y-91872419D01*
X134071429Y-91872419D02*
X133738096Y-92253371D01*
X133738096Y-92253371D02*
X133880953Y-92253371D01*
X133880953Y-92253371D02*
X133976191Y-92300990D01*
X133976191Y-92300990D02*
X134023810Y-92348609D01*
X134023810Y-92348609D02*
X134071429Y-92443847D01*
X134071429Y-92443847D02*
X134071429Y-92681942D01*
X134071429Y-92681942D02*
X134023810Y-92777180D01*
X134023810Y-92777180D02*
X133976191Y-92824800D01*
X133976191Y-92824800D02*
X133880953Y-92872419D01*
X133880953Y-92872419D02*
X133595239Y-92872419D01*
X133595239Y-92872419D02*
X133500001Y-92824800D01*
X133500001Y-92824800D02*
X133452382Y-92777180D01*
X134690477Y-91872419D02*
X134785715Y-91872419D01*
X134785715Y-91872419D02*
X134880953Y-91920038D01*
X134880953Y-91920038D02*
X134928572Y-91967657D01*
X134928572Y-91967657D02*
X134976191Y-92062895D01*
X134976191Y-92062895D02*
X135023810Y-92253371D01*
X135023810Y-92253371D02*
X135023810Y-92491466D01*
X135023810Y-92491466D02*
X134976191Y-92681942D01*
X134976191Y-92681942D02*
X134928572Y-92777180D01*
X134928572Y-92777180D02*
X134880953Y-92824800D01*
X134880953Y-92824800D02*
X134785715Y-92872419D01*
X134785715Y-92872419D02*
X134690477Y-92872419D01*
X134690477Y-92872419D02*
X134595239Y-92824800D01*
X134595239Y-92824800D02*
X134547620Y-92777180D01*
X134547620Y-92777180D02*
X134500001Y-92681942D01*
X134500001Y-92681942D02*
X134452382Y-92491466D01*
X134452382Y-92491466D02*
X134452382Y-92253371D01*
X134452382Y-92253371D02*
X134500001Y-92062895D01*
X134500001Y-92062895D02*
X134547620Y-91967657D01*
X134547620Y-91967657D02*
X134595239Y-91920038D01*
X134595239Y-91920038D02*
X134690477Y-91872419D01*
D11*
X121804819Y-101166666D02*
X121328628Y-101499999D01*
X121804819Y-101738094D02*
X120804819Y-101738094D01*
X120804819Y-101738094D02*
X120804819Y-101357142D01*
X120804819Y-101357142D02*
X120852438Y-101261904D01*
X120852438Y-101261904D02*
X120900057Y-101214285D01*
X120900057Y-101214285D02*
X120995295Y-101166666D01*
X120995295Y-101166666D02*
X121138152Y-101166666D01*
X121138152Y-101166666D02*
X121233390Y-101214285D01*
X121233390Y-101214285D02*
X121281009Y-101261904D01*
X121281009Y-101261904D02*
X121328628Y-101357142D01*
X121328628Y-101357142D02*
X121328628Y-101738094D01*
X121804819Y-100214285D02*
X121804819Y-100785713D01*
X121804819Y-100499999D02*
X120804819Y-100499999D01*
X120804819Y-100499999D02*
X120947676Y-100595237D01*
X120947676Y-100595237D02*
X121042914Y-100690475D01*
X121042914Y-100690475D02*
X121090533Y-100785713D01*
X131804819Y-101166666D02*
X131328628Y-101499999D01*
X131804819Y-101738094D02*
X130804819Y-101738094D01*
X130804819Y-101738094D02*
X130804819Y-101357142D01*
X130804819Y-101357142D02*
X130852438Y-101261904D01*
X130852438Y-101261904D02*
X130900057Y-101214285D01*
X130900057Y-101214285D02*
X130995295Y-101166666D01*
X130995295Y-101166666D02*
X131138152Y-101166666D01*
X131138152Y-101166666D02*
X131233390Y-101214285D01*
X131233390Y-101214285D02*
X131281009Y-101261904D01*
X131281009Y-101261904D02*
X131328628Y-101357142D01*
X131328628Y-101357142D02*
X131328628Y-101738094D01*
X130900057Y-100785713D02*
X130852438Y-100738094D01*
X130852438Y-100738094D02*
X130804819Y-100642856D01*
X130804819Y-100642856D02*
X130804819Y-100404761D01*
X130804819Y-100404761D02*
X130852438Y-100309523D01*
X130852438Y-100309523D02*
X130900057Y-100261904D01*
X130900057Y-100261904D02*
X130995295Y-100214285D01*
X130995295Y-100214285D02*
X131090533Y-100214285D01*
X131090533Y-100214285D02*
X131233390Y-100261904D01*
X131233390Y-100261904D02*
X131804819Y-100833332D01*
X131804819Y-100833332D02*
X131804819Y-100214285D01*
X120690476Y-83454819D02*
X120690476Y-82454819D01*
X120690476Y-82454819D02*
X121071428Y-82454819D01*
X121071428Y-82454819D02*
X121166666Y-82502438D01*
X121166666Y-82502438D02*
X121214285Y-82550057D01*
X121214285Y-82550057D02*
X121261904Y-82645295D01*
X121261904Y-82645295D02*
X121261904Y-82788152D01*
X121261904Y-82788152D02*
X121214285Y-82883390D01*
X121214285Y-82883390D02*
X121166666Y-82931009D01*
X121166666Y-82931009D02*
X121071428Y-82978628D01*
X121071428Y-82978628D02*
X120690476Y-82978628D01*
X121690476Y-82931009D02*
X122023809Y-82931009D01*
X122166666Y-83454819D02*
X121690476Y-83454819D01*
X121690476Y-83454819D02*
X121690476Y-82454819D01*
X121690476Y-82454819D02*
X122166666Y-82454819D01*
X123166666Y-83359580D02*
X123119047Y-83407200D01*
X123119047Y-83407200D02*
X122976190Y-83454819D01*
X122976190Y-83454819D02*
X122880952Y-83454819D01*
X122880952Y-83454819D02*
X122738095Y-83407200D01*
X122738095Y-83407200D02*
X122642857Y-83311961D01*
X122642857Y-83311961D02*
X122595238Y-83216723D01*
X122595238Y-83216723D02*
X122547619Y-83026247D01*
X122547619Y-83026247D02*
X122547619Y-82883390D01*
X122547619Y-82883390D02*
X122595238Y-82692914D01*
X122595238Y-82692914D02*
X122642857Y-82597676D01*
X122642857Y-82597676D02*
X122738095Y-82502438D01*
X122738095Y-82502438D02*
X122880952Y-82454819D01*
X122880952Y-82454819D02*
X122976190Y-82454819D01*
X122976190Y-82454819D02*
X123119047Y-82502438D01*
X123119047Y-82502438D02*
X123166666Y-82550057D01*
X124119047Y-83454819D02*
X123547619Y-83454819D01*
X123833333Y-83454819D02*
X123833333Y-82454819D01*
X123833333Y-82454819D02*
X123738095Y-82597676D01*
X123738095Y-82597676D02*
X123642857Y-82692914D01*
X123642857Y-82692914D02*
X123547619Y-82740533D01*
X124976190Y-82454819D02*
X124785714Y-82454819D01*
X124785714Y-82454819D02*
X124690476Y-82502438D01*
X124690476Y-82502438D02*
X124642857Y-82550057D01*
X124642857Y-82550057D02*
X124547619Y-82692914D01*
X124547619Y-82692914D02*
X124500000Y-82883390D01*
X124500000Y-82883390D02*
X124500000Y-83264342D01*
X124500000Y-83264342D02*
X124547619Y-83359580D01*
X124547619Y-83359580D02*
X124595238Y-83407200D01*
X124595238Y-83407200D02*
X124690476Y-83454819D01*
X124690476Y-83454819D02*
X124880952Y-83454819D01*
X124880952Y-83454819D02*
X124976190Y-83407200D01*
X124976190Y-83407200D02*
X125023809Y-83359580D01*
X125023809Y-83359580D02*
X125071428Y-83264342D01*
X125071428Y-83264342D02*
X125071428Y-83026247D01*
X125071428Y-83026247D02*
X125023809Y-82931009D01*
X125023809Y-82931009D02*
X124976190Y-82883390D01*
X124976190Y-82883390D02*
X124880952Y-82835771D01*
X124880952Y-82835771D02*
X124690476Y-82835771D01*
X124690476Y-82835771D02*
X124595238Y-82883390D01*
X124595238Y-82883390D02*
X124547619Y-82931009D01*
X124547619Y-82931009D02*
X124500000Y-83026247D01*
X125500000Y-83073866D02*
X126261905Y-83073866D01*
X127166666Y-82788152D02*
X127166666Y-83454819D01*
X126928571Y-82407200D02*
X126690476Y-83121485D01*
X126690476Y-83121485D02*
X127309523Y-83121485D01*
X127595238Y-83454819D02*
X128119047Y-82788152D01*
X127595238Y-82788152D02*
X128119047Y-83454819D01*
X128404762Y-83454819D02*
X128928571Y-82788152D01*
X128404762Y-82788152D02*
X128928571Y-83454819D01*
X129214286Y-83454819D02*
X129738095Y-82788152D01*
X129214286Y-82788152D02*
X129738095Y-83454819D01*
X130119048Y-83073866D02*
X130880953Y-83073866D01*
X131357143Y-83454819D02*
X131357143Y-82454819D01*
X131357143Y-82454819D02*
X131928571Y-83454819D01*
X131928571Y-83454819D02*
X131928571Y-82454819D01*
X132309524Y-83454819D02*
X132833333Y-82788152D01*
X132309524Y-82788152D02*
X132833333Y-83454819D01*
X133119048Y-83454819D02*
X133642857Y-82788152D01*
X133119048Y-82788152D02*
X133642857Y-83454819D01*
X133928572Y-83454819D02*
X134452381Y-82788152D01*
X133928572Y-82788152D02*
X134452381Y-83454819D01*
X135357143Y-83454819D02*
X134785715Y-83454819D01*
X135071429Y-83454819D02*
X135071429Y-82454819D01*
X135071429Y-82454819D02*
X134976191Y-82597676D01*
X134976191Y-82597676D02*
X134880953Y-82692914D01*
X134880953Y-82692914D02*
X134785715Y-82740533D01*
D12*
%TO.C,R1*%
X122265000Y-101227064D02*
X122265000Y-100772936D01*
X123735000Y-101227064D02*
X123735000Y-100772936D01*
%TO.C,R2*%
X132265000Y-101227064D02*
X132265000Y-100772936D01*
X133735000Y-101227064D02*
X133735000Y-100772936D01*
D13*
%TO.C,PEC16-4xxx-Nxxx1*%
X119872000Y-78872999D02*
X119872000Y-84613158D01*
X119872000Y-87386838D02*
X119872000Y-96424399D01*
X119872000Y-96424399D02*
X121767877Y-96424399D01*
X124232123Y-96424399D02*
X126767877Y-96424399D01*
X129232123Y-96424399D02*
X131767877Y-96424399D01*
X134232123Y-96424399D02*
X136128000Y-96424399D01*
X136128000Y-78872999D02*
X119872000Y-78872999D01*
X136128000Y-84613158D02*
X136128000Y-78872999D01*
X136128000Y-96424399D02*
X136128000Y-87386838D01*
%TD*%
M02*
