%TF.GenerationSoftware,KiCad,Pcbnew,8.0.4*%
%TF.CreationDate,2024-08-04T23:06:54+09:00*%
%TF.ProjectId,sdvx,73647678-2e6b-4696-9361-645f70636258,rev?*%
%TF.SameCoordinates,Original*%
%TF.FileFunction,Soldermask,Bot*%
%TF.FilePolarity,Negative*%
%FSLAX46Y46*%
G04 Gerber Fmt 4.6, Leading zero omitted, Abs format (unit mm)*
G04 Created by KiCad (PCBNEW 8.0.4) date 2024-08-04 23:06:54*
%MOMM*%
%LPD*%
G01*
G04 APERTURE LIST*
G04 Aperture macros list*
%AMRoundRect*
0 Rectangle with rounded corners*
0 $1 Rounding radius*
0 $2 $3 $4 $5 $6 $7 $8 $9 X,Y pos of 4 corners*
0 Add a 4 corners polygon primitive as box body*
4,1,4,$2,$3,$4,$5,$6,$7,$8,$9,$2,$3,0*
0 Add four circle primitives for the rounded corners*
1,1,$1+$1,$2,$3*
1,1,$1+$1,$4,$5*
1,1,$1+$1,$6,$7*
1,1,$1+$1,$8,$9*
0 Add four rect primitives between the rounded corners*
20,1,$1+$1,$2,$3,$4,$5,0*
20,1,$1+$1,$4,$5,$6,$7,0*
20,1,$1+$1,$6,$7,$8,$9,0*
20,1,$1+$1,$8,$9,$2,$3,0*%
G04 Aperture macros list end*
%ADD10RoundRect,0.250000X-0.600000X-0.750000X0.600000X-0.750000X0.600000X0.750000X-0.600000X0.750000X0*%
%ADD11O,1.700000X2.000000*%
%ADD12C,3.800000*%
%ADD13RoundRect,0.250000X-0.600000X-0.725000X0.600000X-0.725000X0.600000X0.725000X-0.600000X0.725000X0*%
%ADD14O,1.700000X1.950000*%
%ADD15R,1.600000X1.600000*%
%ADD16C,1.600000*%
G04 APERTURE END LIST*
D10*
%TO.C,FX-R1*%
X151000000Y-68000000D03*
D11*
X153500000Y-68000000D03*
%TD*%
D12*
%TO.C,REF\u002A\u002A*%
X127000000Y-120000000D03*
%TD*%
D10*
%TO.C,FX-L1*%
X135500000Y-68000000D03*
D11*
X138000000Y-68000000D03*
%TD*%
D12*
%TO.C,REF\u002A\u002A*%
X127000000Y-63000000D03*
%TD*%
D13*
%TO.C,VOL-R1*%
X147250000Y-114725000D03*
D14*
X149750000Y-114725000D03*
X152250000Y-114725000D03*
X154750000Y-114725000D03*
%TD*%
D10*
%TO.C,BT-C1*%
X147250000Y-80645000D03*
D11*
X149750000Y-80645000D03*
%TD*%
D12*
%TO.C,REF\u002A\u002A*%
X161000000Y-120000000D03*
%TD*%
D10*
%TO.C,BT-A1*%
X129750000Y-80645000D03*
D11*
X132250000Y-80645000D03*
%TD*%
D10*
%TO.C,BT-B1*%
X138500000Y-80620000D03*
D11*
X141000000Y-80620000D03*
%TD*%
D10*
%TO.C,BT-D1*%
X156000000Y-80620000D03*
D11*
X158500000Y-80620000D03*
%TD*%
D13*
%TO.C,VOL-L1*%
X133250000Y-114700000D03*
D14*
X135750000Y-114700000D03*
X138250000Y-114700000D03*
X140750000Y-114700000D03*
%TD*%
D15*
%TO.C,U1*%
X129280000Y-107145000D03*
D16*
X131820000Y-107145000D03*
X134360000Y-107145000D03*
X136900000Y-107145000D03*
X139440000Y-107145000D03*
X141980000Y-107145000D03*
X144520000Y-107145000D03*
X147060000Y-107145000D03*
X149600000Y-107145000D03*
X152140000Y-107145000D03*
X154680000Y-107145000D03*
X157220000Y-107145000D03*
X157220000Y-104605000D03*
X157220000Y-102065000D03*
X157220000Y-99525000D03*
X157220000Y-96985000D03*
X157220000Y-94445000D03*
X157220000Y-91905000D03*
X154680000Y-91905000D03*
X152140000Y-91905000D03*
X149600000Y-91905000D03*
X147060000Y-91905000D03*
X144520000Y-91905000D03*
X141980000Y-91905000D03*
X139440000Y-91905000D03*
X136900000Y-91905000D03*
X134360000Y-91905000D03*
X131820000Y-91905000D03*
X129280000Y-91905000D03*
X139440000Y-104605000D03*
X139440000Y-94445000D03*
%TD*%
D12*
%TO.C,REF\u002A\u002A*%
X161000000Y-63000000D03*
%TD*%
M02*
