%TF.GenerationSoftware,KiCad,Pcbnew,8.0.4*%
%TF.CreationDate,2024-08-04T23:06:54+09:00*%
%TF.ProjectId,sdvx,73647678-2e6b-4696-9361-645f70636258,rev?*%
%TF.SameCoordinates,Original*%
%TF.FileFunction,Copper,L2,Bot*%
%TF.FilePolarity,Positive*%
%FSLAX46Y46*%
G04 Gerber Fmt 4.6, Leading zero omitted, Abs format (unit mm)*
G04 Created by KiCad (PCBNEW 8.0.4) date 2024-08-04 23:06:54*
%MOMM*%
%LPD*%
G01*
G04 APERTURE LIST*
G04 Aperture macros list*
%AMRoundRect*
0 Rectangle with rounded corners*
0 $1 Rounding radius*
0 $2 $3 $4 $5 $6 $7 $8 $9 X,Y pos of 4 corners*
0 Add a 4 corners polygon primitive as box body*
4,1,4,$2,$3,$4,$5,$6,$7,$8,$9,$2,$3,0*
0 Add four circle primitives for the rounded corners*
1,1,$1+$1,$2,$3*
1,1,$1+$1,$4,$5*
1,1,$1+$1,$6,$7*
1,1,$1+$1,$8,$9*
0 Add four rect primitives between the rounded corners*
20,1,$1+$1,$2,$3,$4,$5,0*
20,1,$1+$1,$4,$5,$6,$7,0*
20,1,$1+$1,$6,$7,$8,$9,0*
20,1,$1+$1,$8,$9,$2,$3,0*%
G04 Aperture macros list end*
%TA.AperFunction,ComponentPad*%
%ADD10RoundRect,0.250000X-0.600000X-0.750000X0.600000X-0.750000X0.600000X0.750000X-0.600000X0.750000X0*%
%TD*%
%TA.AperFunction,ComponentPad*%
%ADD11O,1.700000X2.000000*%
%TD*%
%TA.AperFunction,ComponentPad*%
%ADD12C,3.800000*%
%TD*%
%TA.AperFunction,ComponentPad*%
%ADD13RoundRect,0.250000X-0.600000X-0.725000X0.600000X-0.725000X0.600000X0.725000X-0.600000X0.725000X0*%
%TD*%
%TA.AperFunction,ComponentPad*%
%ADD14O,1.700000X1.950000*%
%TD*%
%TA.AperFunction,ComponentPad*%
%ADD15R,1.600000X1.600000*%
%TD*%
%TA.AperFunction,ComponentPad*%
%ADD16C,1.600000*%
%TD*%
G04 APERTURE END LIST*
D10*
%TO.P,FX-R1,1,Pin_1*%
%TO.N,Net-(FX-R1-Pin_1)*%
X151000000Y-68000000D03*
D11*
%TO.P,FX-R1,2,Pin_2*%
%TO.N,GND*%
X153500000Y-68000000D03*
%TD*%
D12*
%TO.P,REF\u002A\u002A,1*%
%TO.N,N/C*%
X127000000Y-120000000D03*
%TD*%
D10*
%TO.P,FX-L1,1,Pin_1*%
%TO.N,Net-(FX-L1-Pin_1)*%
X135500000Y-68000000D03*
D11*
%TO.P,FX-L1,2,Pin_2*%
%TO.N,GND*%
X138000000Y-68000000D03*
%TD*%
D12*
%TO.P,REF\u002A\u002A,1*%
%TO.N,N/C*%
X127000000Y-63000000D03*
%TD*%
D13*
%TO.P,VOL-R1,1,Pin_1*%
%TO.N,+5V*%
X147250000Y-114725000D03*
D14*
%TO.P,VOL-R1,2,Pin_2*%
%TO.N,Net-(U1-7_INT2_RX)*%
X149750000Y-114725000D03*
%TO.P,VOL-R1,3,Pin_3*%
%TO.N,Net-(U1-8_INT3_TX)*%
X152250000Y-114725000D03*
%TO.P,VOL-R1,4,Pin_4*%
%TO.N,GND*%
X154750000Y-114725000D03*
%TD*%
D10*
%TO.P,BT-C1,1,Pin_1*%
%TO.N,Net-(BT-C1-Pin_1)*%
X147250000Y-80645000D03*
D11*
%TO.P,BT-C1,2,Pin_2*%
%TO.N,GND*%
X149750000Y-80645000D03*
%TD*%
D12*
%TO.P,REF\u002A\u002A,1*%
%TO.N,N/C*%
X161000000Y-120000000D03*
%TD*%
D10*
%TO.P,BT-A1,1,Pin_1*%
%TO.N,Net-(BT-A1-Pin_1)*%
X129750000Y-80645000D03*
D11*
%TO.P,BT-A1,2,Pin_2*%
%TO.N,GND*%
X132250000Y-80645000D03*
%TD*%
D10*
%TO.P,BT-B1,1,Pin_1*%
%TO.N,Net-(BT-B1-Pin_1)*%
X138500000Y-80620000D03*
D11*
%TO.P,BT-B1,2,Pin_2*%
%TO.N,GND*%
X141000000Y-80620000D03*
%TD*%
D10*
%TO.P,BT-D1,1,Pin_1*%
%TO.N,Net-(BT-D1-Pin_1)*%
X156000000Y-80620000D03*
D11*
%TO.P,BT-D1,2,Pin_2*%
%TO.N,GND*%
X158500000Y-80620000D03*
%TD*%
D13*
%TO.P,VOL-L1,1,Pin_1*%
%TO.N,+5V*%
X133250000Y-114700000D03*
D14*
%TO.P,VOL-L1,2,Pin_2*%
%TO.N,Net-(U1-5_INT0_PWM)*%
X135750000Y-114700000D03*
%TO.P,VOL-L1,3,Pin_3*%
%TO.N,Net-(U1-6_INT1)*%
X138250000Y-114700000D03*
%TO.P,VOL-L1,4,Pin_4*%
%TO.N,GND*%
X140750000Y-114700000D03*
%TD*%
D15*
%TO.P,U1,1,GND*%
%TO.N,GND*%
X129280000Y-107145000D03*
D16*
%TO.P,U1,2,0*%
%TO.N,unconnected-(U1-0-Pad2)*%
X131820000Y-107145000D03*
%TO.P,U1,3,1*%
%TO.N,unconnected-(U1-1-Pad3)*%
X134360000Y-107145000D03*
%TO.P,U1,4,2*%
%TO.N,unconnected-(U1-2-Pad4)*%
X136900000Y-107145000D03*
%TO.P,U1,5,3*%
%TO.N,unconnected-(U1-3-Pad5)*%
X139440000Y-107145000D03*
%TO.P,U1,6,4_PWM*%
%TO.N,unconnected-(U1-4_PWM-Pad6)*%
X141980000Y-107145000D03*
%TO.P,U1,7,5_INT0_PWM*%
%TO.N,Net-(U1-5_INT0_PWM)*%
X144520000Y-107145000D03*
%TO.P,U1,8,6_INT1*%
%TO.N,Net-(U1-6_INT1)*%
X147060000Y-107145000D03*
%TO.P,U1,9,7_INT2_RX*%
%TO.N,Net-(U1-7_INT2_RX)*%
X149600000Y-107145000D03*
%TO.P,U1,10,8_INT3_TX*%
%TO.N,Net-(U1-8_INT3_TX)*%
X152140000Y-107145000D03*
%TO.P,U1,11,9_PWM*%
%TO.N,unconnected-(U1-9_PWM-Pad11)*%
X154680000Y-107145000D03*
%TO.P,U1,12,10_PWM*%
%TO.N,unconnected-(U1-10_PWM-Pad12)*%
X157220000Y-107145000D03*
%TO.P,U1,13,23*%
%TO.N,unconnected-(U1-23-Pad13)*%
X157220000Y-104605000D03*
%TO.P,U1,14,+5V*%
%TO.N,+5V*%
X157220000Y-102065000D03*
%TO.P,U1,15,GND*%
%TO.N,GND*%
X157220000Y-99525000D03*
%TO.P,U1,16,RST*%
%TO.N,unconnected-(U1-RST-Pad16)*%
X157220000Y-96985000D03*
%TO.P,U1,17,22_A11*%
%TO.N,unconnected-(U1-22_A11-Pad17)*%
X157220000Y-94445000D03*
%TO.P,U1,18,11_A10_LED*%
%TO.N,unconnected-(U1-11_A10_LED-Pad18)*%
X157220000Y-91905000D03*
%TO.P,U1,19,12_A9_PWM*%
%TO.N,Net-(BT-D1-Pin_1)*%
X154680000Y-91905000D03*
%TO.P,U1,20,13_A8*%
%TO.N,Net-(BT-C1-Pin_1)*%
X152140000Y-91905000D03*
%TO.P,U1,21,14_A7_PWM*%
%TO.N,unconnected-(U1-14_A7_PWM-Pad21)*%
X149600000Y-91905000D03*
%TO.P,U1,22,15_A6_PWM*%
%TO.N,unconnected-(U1-15_A6_PWM-Pad22)*%
X147060000Y-91905000D03*
%TO.P,U1,23,16_A5*%
%TO.N,Net-(FX-R1-Pin_1)*%
X144520000Y-91905000D03*
%TO.P,U1,24,17_A4*%
%TO.N,Net-(FX-L1-Pin_1)*%
X141980000Y-91905000D03*
%TO.P,U1,25,18_A3*%
%TO.N,unconnected-(U1-18_A3-Pad25)*%
X139440000Y-91905000D03*
%TO.P,U1,26,19_A2*%
%TO.N,unconnected-(U1-19_A2-Pad26)*%
X136900000Y-91905000D03*
%TO.P,U1,27,20_A1*%
%TO.N,Net-(BT-B1-Pin_1)*%
X134360000Y-91905000D03*
%TO.P,U1,28,21_A0*%
%TO.N,Net-(BT-A1-Pin_1)*%
X131820000Y-91905000D03*
%TO.P,U1,29,+5V*%
%TO.N,+5V*%
X129280000Y-91905000D03*
%TO.P,U1,30,24*%
%TO.N,unconnected-(U1-24-Pad30)*%
X139440000Y-104605000D03*
%TO.P,U1,31,AREF*%
%TO.N,unconnected-(U1-AREF-Pad31)*%
X139440000Y-94445000D03*
%TD*%
D12*
%TO.P,REF\u002A\u002A,1*%
%TO.N,N/C*%
X161000000Y-63000000D03*
%TD*%
%TA.AperFunction,Conductor*%
%TO.N,GND*%
G36*
X164442539Y-59520185D02*
G01*
X164488294Y-59572989D01*
X164499500Y-59624500D01*
X164499500Y-123375500D01*
X164479815Y-123442539D01*
X164427011Y-123488294D01*
X164375500Y-123499500D01*
X123624500Y-123499500D01*
X123557461Y-123479815D01*
X123511706Y-123427011D01*
X123500500Y-123375500D01*
X123500500Y-119999994D01*
X124594754Y-119999994D01*
X124594754Y-120000005D01*
X124613718Y-120301446D01*
X124613719Y-120301453D01*
X124670320Y-120598164D01*
X124763659Y-120885431D01*
X124763661Y-120885436D01*
X124892265Y-121158732D01*
X124892268Y-121158738D01*
X125054111Y-121413763D01*
X125246652Y-121646505D01*
X125466836Y-121853272D01*
X125466846Y-121853280D01*
X125711193Y-122030808D01*
X125711198Y-122030810D01*
X125711205Y-122030816D01*
X125975896Y-122176332D01*
X125975901Y-122176334D01*
X125975903Y-122176335D01*
X125975904Y-122176336D01*
X126256734Y-122287524D01*
X126256737Y-122287525D01*
X126354259Y-122312564D01*
X126549302Y-122362642D01*
X126696039Y-122381179D01*
X126848963Y-122400499D01*
X126848969Y-122400499D01*
X126848973Y-122400500D01*
X126848975Y-122400500D01*
X127151025Y-122400500D01*
X127151027Y-122400500D01*
X127151032Y-122400499D01*
X127151036Y-122400499D01*
X127230591Y-122390448D01*
X127450698Y-122362642D01*
X127743262Y-122287525D01*
X127743265Y-122287524D01*
X128024095Y-122176336D01*
X128024096Y-122176335D01*
X128024094Y-122176335D01*
X128024104Y-122176332D01*
X128288795Y-122030816D01*
X128533162Y-121853274D01*
X128753349Y-121646504D01*
X128945885Y-121413768D01*
X129107733Y-121158736D01*
X129236341Y-120885430D01*
X129329681Y-120598160D01*
X129386280Y-120301457D01*
X129405246Y-120000000D01*
X129405246Y-119999994D01*
X158594754Y-119999994D01*
X158594754Y-120000005D01*
X158613718Y-120301446D01*
X158613719Y-120301453D01*
X158670320Y-120598164D01*
X158763659Y-120885431D01*
X158763661Y-120885436D01*
X158892265Y-121158732D01*
X158892268Y-121158738D01*
X159054111Y-121413763D01*
X159246652Y-121646505D01*
X159466836Y-121853272D01*
X159466846Y-121853280D01*
X159711193Y-122030808D01*
X159711198Y-122030810D01*
X159711205Y-122030816D01*
X159975896Y-122176332D01*
X159975901Y-122176334D01*
X159975903Y-122176335D01*
X159975904Y-122176336D01*
X160256734Y-122287524D01*
X160256737Y-122287525D01*
X160354259Y-122312564D01*
X160549302Y-122362642D01*
X160696039Y-122381179D01*
X160848963Y-122400499D01*
X160848969Y-122400499D01*
X160848973Y-122400500D01*
X160848975Y-122400500D01*
X161151025Y-122400500D01*
X161151027Y-122400500D01*
X161151032Y-122400499D01*
X161151036Y-122400499D01*
X161230591Y-122390448D01*
X161450698Y-122362642D01*
X161743262Y-122287525D01*
X161743265Y-122287524D01*
X162024095Y-122176336D01*
X162024096Y-122176335D01*
X162024094Y-122176335D01*
X162024104Y-122176332D01*
X162288795Y-122030816D01*
X162533162Y-121853274D01*
X162753349Y-121646504D01*
X162945885Y-121413768D01*
X163107733Y-121158736D01*
X163236341Y-120885430D01*
X163329681Y-120598160D01*
X163386280Y-120301457D01*
X163405246Y-120000000D01*
X163386280Y-119698543D01*
X163329681Y-119401840D01*
X163236341Y-119114570D01*
X163107733Y-118841264D01*
X162945885Y-118586232D01*
X162753349Y-118353496D01*
X162533162Y-118146726D01*
X162533159Y-118146724D01*
X162533153Y-118146719D01*
X162288806Y-117969191D01*
X162288799Y-117969186D01*
X162288795Y-117969184D01*
X162024104Y-117823668D01*
X162024101Y-117823666D01*
X162024096Y-117823664D01*
X162024095Y-117823663D01*
X161743265Y-117712475D01*
X161743262Y-117712474D01*
X161450695Y-117637357D01*
X161151036Y-117599500D01*
X161151027Y-117599500D01*
X160848973Y-117599500D01*
X160848963Y-117599500D01*
X160549304Y-117637357D01*
X160256737Y-117712474D01*
X160256734Y-117712475D01*
X159975904Y-117823663D01*
X159975903Y-117823664D01*
X159711205Y-117969184D01*
X159711193Y-117969191D01*
X159466846Y-118146719D01*
X159466836Y-118146727D01*
X159246652Y-118353494D01*
X159054111Y-118586236D01*
X158892268Y-118841261D01*
X158892265Y-118841267D01*
X158763661Y-119114563D01*
X158763659Y-119114568D01*
X158670320Y-119401835D01*
X158613719Y-119698546D01*
X158613718Y-119698553D01*
X158594754Y-119999994D01*
X129405246Y-119999994D01*
X129386280Y-119698543D01*
X129329681Y-119401840D01*
X129236341Y-119114570D01*
X129107733Y-118841264D01*
X128945885Y-118586232D01*
X128753349Y-118353496D01*
X128533162Y-118146726D01*
X128533159Y-118146724D01*
X128533153Y-118146719D01*
X128288806Y-117969191D01*
X128288799Y-117969186D01*
X128288795Y-117969184D01*
X128024104Y-117823668D01*
X128024101Y-117823666D01*
X128024096Y-117823664D01*
X128024095Y-117823663D01*
X127743265Y-117712475D01*
X127743262Y-117712474D01*
X127450695Y-117637357D01*
X127151036Y-117599500D01*
X127151027Y-117599500D01*
X126848973Y-117599500D01*
X126848963Y-117599500D01*
X126549304Y-117637357D01*
X126256737Y-117712474D01*
X126256734Y-117712475D01*
X125975904Y-117823663D01*
X125975903Y-117823664D01*
X125711205Y-117969184D01*
X125711193Y-117969191D01*
X125466846Y-118146719D01*
X125466836Y-118146727D01*
X125246652Y-118353494D01*
X125054111Y-118586236D01*
X124892268Y-118841261D01*
X124892265Y-118841267D01*
X124763661Y-119114563D01*
X124763659Y-119114568D01*
X124670320Y-119401835D01*
X124613719Y-119698546D01*
X124613718Y-119698553D01*
X124594754Y-119999994D01*
X123500500Y-119999994D01*
X123500500Y-113924983D01*
X131899500Y-113924983D01*
X131899500Y-115475001D01*
X131899501Y-115475018D01*
X131910000Y-115577796D01*
X131910001Y-115577799D01*
X131955894Y-115716294D01*
X131965186Y-115744334D01*
X132057288Y-115893656D01*
X132181344Y-116017712D01*
X132330666Y-116109814D01*
X132497203Y-116164999D01*
X132599991Y-116175500D01*
X133900008Y-116175499D01*
X134002797Y-116164999D01*
X134169334Y-116109814D01*
X134318656Y-116017712D01*
X134442712Y-115893656D01*
X134534814Y-115744334D01*
X134534814Y-115744331D01*
X134538178Y-115738879D01*
X134590126Y-115692154D01*
X134659088Y-115680931D01*
X134723170Y-115708774D01*
X134731398Y-115716294D01*
X134870213Y-115855109D01*
X135042179Y-115980048D01*
X135042181Y-115980049D01*
X135042184Y-115980051D01*
X135231588Y-116076557D01*
X135433757Y-116142246D01*
X135643713Y-116175500D01*
X135643714Y-116175500D01*
X135856286Y-116175500D01*
X135856287Y-116175500D01*
X136066243Y-116142246D01*
X136268412Y-116076557D01*
X136457816Y-115980051D01*
X136479789Y-115964086D01*
X136629786Y-115855109D01*
X136629788Y-115855106D01*
X136629792Y-115855104D01*
X136780104Y-115704792D01*
X136899683Y-115540204D01*
X136955011Y-115497540D01*
X137024624Y-115491561D01*
X137086420Y-115524166D01*
X137100313Y-115540199D01*
X137202560Y-115680931D01*
X137219896Y-115704792D01*
X137370213Y-115855109D01*
X137542179Y-115980048D01*
X137542181Y-115980049D01*
X137542184Y-115980051D01*
X137731588Y-116076557D01*
X137933757Y-116142246D01*
X138143713Y-116175500D01*
X138143714Y-116175500D01*
X138356286Y-116175500D01*
X138356287Y-116175500D01*
X138566243Y-116142246D01*
X138768412Y-116076557D01*
X138957816Y-115980051D01*
X138979789Y-115964086D01*
X139129786Y-115855109D01*
X139129788Y-115855106D01*
X139129792Y-115855104D01*
X139280104Y-115704792D01*
X139280106Y-115704788D01*
X139280109Y-115704786D01*
X139405048Y-115532820D01*
X139405047Y-115532820D01*
X139405051Y-115532816D01*
X139501557Y-115343412D01*
X139567246Y-115141243D01*
X139600500Y-114931287D01*
X139600500Y-114468713D01*
X139567246Y-114258757D01*
X139501557Y-114056588D01*
X139447239Y-113949983D01*
X145899500Y-113949983D01*
X145899500Y-115500001D01*
X145899501Y-115500018D01*
X145910000Y-115602796D01*
X145910001Y-115602799D01*
X145955094Y-115738879D01*
X145965186Y-115769334D01*
X146057288Y-115918656D01*
X146181344Y-116042712D01*
X146330666Y-116134814D01*
X146497203Y-116189999D01*
X146599991Y-116200500D01*
X147900008Y-116200499D01*
X148002797Y-116189999D01*
X148169334Y-116134814D01*
X148318656Y-116042712D01*
X148442712Y-115918656D01*
X148534814Y-115769334D01*
X148534814Y-115769331D01*
X148538178Y-115763879D01*
X148590126Y-115717154D01*
X148659088Y-115705931D01*
X148723170Y-115733774D01*
X148731398Y-115741294D01*
X148870213Y-115880109D01*
X149042179Y-116005048D01*
X149042181Y-116005049D01*
X149042184Y-116005051D01*
X149231588Y-116101557D01*
X149433757Y-116167246D01*
X149643713Y-116200500D01*
X149643714Y-116200500D01*
X149856286Y-116200500D01*
X149856287Y-116200500D01*
X150066243Y-116167246D01*
X150268412Y-116101557D01*
X150457816Y-116005051D01*
X150492230Y-115980048D01*
X150629786Y-115880109D01*
X150629788Y-115880106D01*
X150629792Y-115880104D01*
X150780104Y-115729792D01*
X150899683Y-115565204D01*
X150955011Y-115522540D01*
X151024624Y-115516561D01*
X151086420Y-115549166D01*
X151100313Y-115565199D01*
X151184397Y-115680931D01*
X151219896Y-115729792D01*
X151370213Y-115880109D01*
X151542179Y-116005048D01*
X151542181Y-116005049D01*
X151542184Y-116005051D01*
X151731588Y-116101557D01*
X151933757Y-116167246D01*
X152143713Y-116200500D01*
X152143714Y-116200500D01*
X152356286Y-116200500D01*
X152356287Y-116200500D01*
X152566243Y-116167246D01*
X152768412Y-116101557D01*
X152957816Y-116005051D01*
X152992230Y-115980048D01*
X153129786Y-115880109D01*
X153129788Y-115880106D01*
X153129792Y-115880104D01*
X153280104Y-115729792D01*
X153280106Y-115729788D01*
X153280109Y-115729786D01*
X153405048Y-115557820D01*
X153405047Y-115557820D01*
X153405051Y-115557816D01*
X153501557Y-115368412D01*
X153567246Y-115166243D01*
X153600500Y-114956287D01*
X153600500Y-114493713D01*
X153567246Y-114283757D01*
X153501557Y-114081588D01*
X153405051Y-113892184D01*
X153405049Y-113892181D01*
X153405048Y-113892179D01*
X153280109Y-113720213D01*
X153129786Y-113569890D01*
X152957820Y-113444951D01*
X152768414Y-113348444D01*
X152768413Y-113348443D01*
X152768412Y-113348443D01*
X152566243Y-113282754D01*
X152566241Y-113282753D01*
X152566240Y-113282753D01*
X152404957Y-113257208D01*
X152356287Y-113249500D01*
X152143713Y-113249500D01*
X152095042Y-113257208D01*
X151933760Y-113282753D01*
X151731585Y-113348444D01*
X151542179Y-113444951D01*
X151370213Y-113569890D01*
X151219894Y-113720209D01*
X151219890Y-113720214D01*
X151100318Y-113884793D01*
X151044989Y-113927459D01*
X150975375Y-113933438D01*
X150913580Y-113900833D01*
X150899682Y-113884793D01*
X150780109Y-113720214D01*
X150780105Y-113720209D01*
X150629786Y-113569890D01*
X150457820Y-113444951D01*
X150268414Y-113348444D01*
X150268413Y-113348443D01*
X150268412Y-113348443D01*
X150066243Y-113282754D01*
X150066241Y-113282753D01*
X150066240Y-113282753D01*
X149904957Y-113257208D01*
X149856287Y-113249500D01*
X149643713Y-113249500D01*
X149595042Y-113257208D01*
X149433760Y-113282753D01*
X149231585Y-113348444D01*
X149042179Y-113444951D01*
X148870215Y-113569889D01*
X148731398Y-113708706D01*
X148670075Y-113742190D01*
X148600383Y-113737206D01*
X148544450Y-113695334D01*
X148538178Y-113686120D01*
X148442712Y-113531344D01*
X148318657Y-113407289D01*
X148318656Y-113407288D01*
X148223253Y-113348443D01*
X148169336Y-113315187D01*
X148169331Y-113315185D01*
X148167862Y-113314698D01*
X148002797Y-113260001D01*
X148002795Y-113260000D01*
X147900010Y-113249500D01*
X146599998Y-113249500D01*
X146599981Y-113249501D01*
X146497203Y-113260000D01*
X146497200Y-113260001D01*
X146330668Y-113315185D01*
X146330663Y-113315187D01*
X146181342Y-113407289D01*
X146057289Y-113531342D01*
X145965187Y-113680663D01*
X145965185Y-113680668D01*
X145953083Y-113717190D01*
X145910001Y-113847203D01*
X145910001Y-113847204D01*
X145910000Y-113847204D01*
X145899500Y-113949983D01*
X139447239Y-113949983D01*
X139405051Y-113867184D01*
X139405049Y-113867181D01*
X139405048Y-113867179D01*
X139280109Y-113695213D01*
X139129786Y-113544890D01*
X138957820Y-113419951D01*
X138768414Y-113323444D01*
X138768413Y-113323443D01*
X138768412Y-113323443D01*
X138566243Y-113257754D01*
X138566241Y-113257753D01*
X138566240Y-113257753D01*
X138404957Y-113232208D01*
X138356287Y-113224500D01*
X138143713Y-113224500D01*
X138095042Y-113232208D01*
X137933760Y-113257753D01*
X137731585Y-113323444D01*
X137542179Y-113419951D01*
X137370213Y-113544890D01*
X137219894Y-113695209D01*
X137219890Y-113695214D01*
X137100318Y-113859793D01*
X137044989Y-113902459D01*
X136975375Y-113908438D01*
X136913580Y-113875833D01*
X136899682Y-113859793D01*
X136780109Y-113695214D01*
X136780105Y-113695209D01*
X136629786Y-113544890D01*
X136457820Y-113419951D01*
X136268414Y-113323444D01*
X136268413Y-113323443D01*
X136268412Y-113323443D01*
X136066243Y-113257754D01*
X136066241Y-113257753D01*
X136066240Y-113257753D01*
X135904957Y-113232208D01*
X135856287Y-113224500D01*
X135643713Y-113224500D01*
X135595042Y-113232208D01*
X135433760Y-113257753D01*
X135231585Y-113323444D01*
X135042179Y-113419951D01*
X134870215Y-113544889D01*
X134731398Y-113683706D01*
X134670075Y-113717190D01*
X134600383Y-113712206D01*
X134544450Y-113670334D01*
X134538178Y-113661120D01*
X134442712Y-113506344D01*
X134318657Y-113382289D01*
X134318656Y-113382288D01*
X134169334Y-113290186D01*
X134002797Y-113235001D01*
X134002795Y-113235000D01*
X133900010Y-113224500D01*
X132599998Y-113224500D01*
X132599981Y-113224501D01*
X132497203Y-113235000D01*
X132497200Y-113235001D01*
X132330668Y-113290185D01*
X132330663Y-113290187D01*
X132181342Y-113382289D01*
X132057289Y-113506342D01*
X131965187Y-113655663D01*
X131965185Y-113655668D01*
X131943797Y-113720213D01*
X131910001Y-113822203D01*
X131910001Y-113822204D01*
X131910000Y-113822204D01*
X131899500Y-113924983D01*
X123500500Y-113924983D01*
X123500500Y-107144998D01*
X130514532Y-107144998D01*
X130514532Y-107145001D01*
X130534364Y-107371686D01*
X130534366Y-107371697D01*
X130593258Y-107591488D01*
X130593261Y-107591497D01*
X130689431Y-107797732D01*
X130689432Y-107797734D01*
X130819954Y-107984141D01*
X130980858Y-108145045D01*
X130980861Y-108145047D01*
X131167266Y-108275568D01*
X131373504Y-108371739D01*
X131593308Y-108430635D01*
X131755230Y-108444801D01*
X131819998Y-108450468D01*
X131820000Y-108450468D01*
X131820002Y-108450468D01*
X131876673Y-108445509D01*
X132046692Y-108430635D01*
X132266496Y-108371739D01*
X132472734Y-108275568D01*
X132659139Y-108145047D01*
X132820047Y-107984139D01*
X132950568Y-107797734D01*
X132977618Y-107739724D01*
X133023790Y-107687285D01*
X133090983Y-107668133D01*
X133157865Y-107688348D01*
X133202382Y-107739725D01*
X133229429Y-107797728D01*
X133229432Y-107797734D01*
X133359954Y-107984141D01*
X133520858Y-108145045D01*
X133520861Y-108145047D01*
X133707266Y-108275568D01*
X133913504Y-108371739D01*
X134133308Y-108430635D01*
X134295230Y-108444801D01*
X134359998Y-108450468D01*
X134360000Y-108450468D01*
X134360002Y-108450468D01*
X134416673Y-108445509D01*
X134586692Y-108430635D01*
X134806496Y-108371739D01*
X135012734Y-108275568D01*
X135199139Y-108145047D01*
X135360047Y-107984139D01*
X135490568Y-107797734D01*
X135517618Y-107739724D01*
X135563790Y-107687285D01*
X135630983Y-107668133D01*
X135697865Y-107688348D01*
X135742382Y-107739725D01*
X135769429Y-107797728D01*
X135769432Y-107797734D01*
X135899954Y-107984141D01*
X136060858Y-108145045D01*
X136060861Y-108145047D01*
X136247266Y-108275568D01*
X136453504Y-108371739D01*
X136673308Y-108430635D01*
X136835230Y-108444801D01*
X136899998Y-108450468D01*
X136900000Y-108450468D01*
X136900002Y-108450468D01*
X136956673Y-108445509D01*
X137126692Y-108430635D01*
X137346496Y-108371739D01*
X137552734Y-108275568D01*
X137739139Y-108145047D01*
X137900047Y-107984139D01*
X138030568Y-107797734D01*
X138057618Y-107739724D01*
X138103790Y-107687285D01*
X138170983Y-107668133D01*
X138237865Y-107688348D01*
X138282382Y-107739725D01*
X138309429Y-107797728D01*
X138309432Y-107797734D01*
X138439954Y-107984141D01*
X138600858Y-108145045D01*
X138600861Y-108145047D01*
X138787266Y-108275568D01*
X138993504Y-108371739D01*
X139213308Y-108430635D01*
X139375230Y-108444801D01*
X139439998Y-108450468D01*
X139440000Y-108450468D01*
X139440002Y-108450468D01*
X139496673Y-108445509D01*
X139666692Y-108430635D01*
X139886496Y-108371739D01*
X140092734Y-108275568D01*
X140279139Y-108145047D01*
X140440047Y-107984139D01*
X140570568Y-107797734D01*
X140597618Y-107739724D01*
X140643790Y-107687285D01*
X140710983Y-107668133D01*
X140777865Y-107688348D01*
X140822382Y-107739725D01*
X140849429Y-107797728D01*
X140849432Y-107797734D01*
X140979954Y-107984141D01*
X141140858Y-108145045D01*
X141140861Y-108145047D01*
X141327266Y-108275568D01*
X141533504Y-108371739D01*
X141753308Y-108430635D01*
X141915230Y-108444801D01*
X141979998Y-108450468D01*
X141980000Y-108450468D01*
X141980002Y-108450468D01*
X142036673Y-108445509D01*
X142206692Y-108430635D01*
X142426496Y-108371739D01*
X142632734Y-108275568D01*
X142819139Y-108145047D01*
X142980047Y-107984139D01*
X143110568Y-107797734D01*
X143137618Y-107739724D01*
X143183790Y-107687285D01*
X143250983Y-107668133D01*
X143317865Y-107688348D01*
X143362382Y-107739725D01*
X143389429Y-107797728D01*
X143389432Y-107797734D01*
X143519954Y-107984141D01*
X143680858Y-108145045D01*
X143680861Y-108145047D01*
X143867266Y-108275568D01*
X144073504Y-108371739D01*
X144293308Y-108430635D01*
X144455230Y-108444801D01*
X144519998Y-108450468D01*
X144520000Y-108450468D01*
X144520002Y-108450468D01*
X144576673Y-108445509D01*
X144746692Y-108430635D01*
X144966496Y-108371739D01*
X145172734Y-108275568D01*
X145359139Y-108145047D01*
X145520047Y-107984139D01*
X145650568Y-107797734D01*
X145677618Y-107739724D01*
X145723790Y-107687285D01*
X145790983Y-107668133D01*
X145857865Y-107688348D01*
X145902382Y-107739725D01*
X145929429Y-107797728D01*
X145929432Y-107797734D01*
X146059954Y-107984141D01*
X146220858Y-108145045D01*
X146220861Y-108145047D01*
X146407266Y-108275568D01*
X146613504Y-108371739D01*
X146833308Y-108430635D01*
X146995230Y-108444801D01*
X147059998Y-108450468D01*
X147060000Y-108450468D01*
X147060002Y-108450468D01*
X147116673Y-108445509D01*
X147286692Y-108430635D01*
X147506496Y-108371739D01*
X147712734Y-108275568D01*
X147899139Y-108145047D01*
X148060047Y-107984139D01*
X148190568Y-107797734D01*
X148217618Y-107739724D01*
X148263790Y-107687285D01*
X148330983Y-107668133D01*
X148397865Y-107688348D01*
X148442382Y-107739725D01*
X148469429Y-107797728D01*
X148469432Y-107797734D01*
X148599954Y-107984141D01*
X148760858Y-108145045D01*
X148760861Y-108145047D01*
X148947266Y-108275568D01*
X149153504Y-108371739D01*
X149373308Y-108430635D01*
X149535230Y-108444801D01*
X149599998Y-108450468D01*
X149600000Y-108450468D01*
X149600002Y-108450468D01*
X149656673Y-108445509D01*
X149826692Y-108430635D01*
X150046496Y-108371739D01*
X150252734Y-108275568D01*
X150439139Y-108145047D01*
X150600047Y-107984139D01*
X150730568Y-107797734D01*
X150757618Y-107739724D01*
X150803790Y-107687285D01*
X150870983Y-107668133D01*
X150937865Y-107688348D01*
X150982382Y-107739725D01*
X151009429Y-107797728D01*
X151009432Y-107797734D01*
X151139954Y-107984141D01*
X151300858Y-108145045D01*
X151300861Y-108145047D01*
X151487266Y-108275568D01*
X151693504Y-108371739D01*
X151913308Y-108430635D01*
X152075230Y-108444801D01*
X152139998Y-108450468D01*
X152140000Y-108450468D01*
X152140002Y-108450468D01*
X152196673Y-108445509D01*
X152366692Y-108430635D01*
X152586496Y-108371739D01*
X152792734Y-108275568D01*
X152979139Y-108145047D01*
X153140047Y-107984139D01*
X153270568Y-107797734D01*
X153297618Y-107739724D01*
X153343790Y-107687285D01*
X153410983Y-107668133D01*
X153477865Y-107688348D01*
X153522382Y-107739725D01*
X153549429Y-107797728D01*
X153549432Y-107797734D01*
X153679954Y-107984141D01*
X153840858Y-108145045D01*
X153840861Y-108145047D01*
X154027266Y-108275568D01*
X154233504Y-108371739D01*
X154453308Y-108430635D01*
X154615230Y-108444801D01*
X154679998Y-108450468D01*
X154680000Y-108450468D01*
X154680002Y-108450468D01*
X154736673Y-108445509D01*
X154906692Y-108430635D01*
X155126496Y-108371739D01*
X155332734Y-108275568D01*
X155519139Y-108145047D01*
X155680047Y-107984139D01*
X155810568Y-107797734D01*
X155837618Y-107739724D01*
X155883790Y-107687285D01*
X155950983Y-107668133D01*
X156017865Y-107688348D01*
X156062382Y-107739725D01*
X156089429Y-107797728D01*
X156089432Y-107797734D01*
X156219954Y-107984141D01*
X156380858Y-108145045D01*
X156380861Y-108145047D01*
X156567266Y-108275568D01*
X156773504Y-108371739D01*
X156993308Y-108430635D01*
X157155230Y-108444801D01*
X157219998Y-108450468D01*
X157220000Y-108450468D01*
X157220002Y-108450468D01*
X157276673Y-108445509D01*
X157446692Y-108430635D01*
X157666496Y-108371739D01*
X157872734Y-108275568D01*
X158059139Y-108145047D01*
X158220047Y-107984139D01*
X158350568Y-107797734D01*
X158446739Y-107591496D01*
X158505635Y-107371692D01*
X158525468Y-107145000D01*
X158505635Y-106918308D01*
X158446739Y-106698504D01*
X158350568Y-106492266D01*
X158220047Y-106305861D01*
X158220045Y-106305858D01*
X158059141Y-106144954D01*
X157872734Y-106014432D01*
X157872728Y-106014429D01*
X157814725Y-105987382D01*
X157762285Y-105941210D01*
X157743133Y-105874017D01*
X157763348Y-105807135D01*
X157814725Y-105762618D01*
X157872734Y-105735568D01*
X158059139Y-105605047D01*
X158220047Y-105444139D01*
X158350568Y-105257734D01*
X158446739Y-105051496D01*
X158505635Y-104831692D01*
X158525468Y-104605000D01*
X158505635Y-104378308D01*
X158446739Y-104158504D01*
X158350568Y-103952266D01*
X158220047Y-103765861D01*
X158220045Y-103765858D01*
X158059141Y-103604954D01*
X157872734Y-103474432D01*
X157872728Y-103474429D01*
X157814725Y-103447382D01*
X157762285Y-103401210D01*
X157743133Y-103334017D01*
X157763348Y-103267135D01*
X157814725Y-103222618D01*
X157872734Y-103195568D01*
X158059139Y-103065047D01*
X158220047Y-102904139D01*
X158350568Y-102717734D01*
X158446739Y-102511496D01*
X158505635Y-102291692D01*
X158525468Y-102065000D01*
X158505635Y-101838308D01*
X158446739Y-101618504D01*
X158350568Y-101412266D01*
X158220047Y-101225861D01*
X158220045Y-101225858D01*
X158059141Y-101064954D01*
X157872734Y-100934432D01*
X157872732Y-100934431D01*
X157666497Y-100838261D01*
X157666488Y-100838258D01*
X157446697Y-100779366D01*
X157446693Y-100779365D01*
X157446692Y-100779365D01*
X157446691Y-100779364D01*
X157446686Y-100779364D01*
X157220002Y-100759532D01*
X157219998Y-100759532D01*
X156993313Y-100779364D01*
X156993302Y-100779366D01*
X156773511Y-100838258D01*
X156773502Y-100838261D01*
X156567267Y-100934431D01*
X156567265Y-100934432D01*
X156380858Y-101064954D01*
X156219954Y-101225858D01*
X156089432Y-101412265D01*
X156089431Y-101412267D01*
X155993261Y-101618502D01*
X155993258Y-101618511D01*
X155934366Y-101838302D01*
X155934364Y-101838313D01*
X155914532Y-102064998D01*
X155914532Y-102065001D01*
X155934364Y-102291686D01*
X155934366Y-102291697D01*
X155993258Y-102511488D01*
X155993261Y-102511497D01*
X156089431Y-102717732D01*
X156089432Y-102717734D01*
X156219954Y-102904141D01*
X156380858Y-103065045D01*
X156380861Y-103065047D01*
X156567266Y-103195568D01*
X156625275Y-103222618D01*
X156677714Y-103268791D01*
X156696866Y-103335984D01*
X156676650Y-103402865D01*
X156625275Y-103447382D01*
X156567267Y-103474431D01*
X156567265Y-103474432D01*
X156380858Y-103604954D01*
X156219954Y-103765858D01*
X156089432Y-103952265D01*
X156089431Y-103952267D01*
X155993261Y-104158502D01*
X155993258Y-104158511D01*
X155934366Y-104378302D01*
X155934364Y-104378313D01*
X155914532Y-104604998D01*
X155914532Y-104605001D01*
X155934364Y-104831686D01*
X155934366Y-104831697D01*
X155993258Y-105051488D01*
X155993261Y-105051497D01*
X156089431Y-105257732D01*
X156089432Y-105257734D01*
X156219954Y-105444141D01*
X156380858Y-105605045D01*
X156380861Y-105605047D01*
X156567266Y-105735568D01*
X156625275Y-105762618D01*
X156677714Y-105808791D01*
X156696866Y-105875984D01*
X156676650Y-105942865D01*
X156625275Y-105987382D01*
X156567267Y-106014431D01*
X156567265Y-106014432D01*
X156380858Y-106144954D01*
X156219954Y-106305858D01*
X156089432Y-106492265D01*
X156089431Y-106492267D01*
X156062382Y-106550275D01*
X156016209Y-106602714D01*
X155949016Y-106621866D01*
X155882135Y-106601650D01*
X155837618Y-106550275D01*
X155810568Y-106492267D01*
X155810567Y-106492265D01*
X155680045Y-106305858D01*
X155519141Y-106144954D01*
X155332734Y-106014432D01*
X155332732Y-106014431D01*
X155126497Y-105918261D01*
X155126488Y-105918258D01*
X154906697Y-105859366D01*
X154906693Y-105859365D01*
X154906692Y-105859365D01*
X154906691Y-105859364D01*
X154906686Y-105859364D01*
X154680002Y-105839532D01*
X154679998Y-105839532D01*
X154453313Y-105859364D01*
X154453302Y-105859366D01*
X154233511Y-105918258D01*
X154233502Y-105918261D01*
X154027267Y-106014431D01*
X154027265Y-106014432D01*
X153840858Y-106144954D01*
X153679954Y-106305858D01*
X153549432Y-106492265D01*
X153549431Y-106492267D01*
X153522382Y-106550275D01*
X153476209Y-106602714D01*
X153409016Y-106621866D01*
X153342135Y-106601650D01*
X153297618Y-106550275D01*
X153270568Y-106492267D01*
X153270567Y-106492265D01*
X153140045Y-106305858D01*
X152979141Y-106144954D01*
X152792734Y-106014432D01*
X152792732Y-106014431D01*
X152586497Y-105918261D01*
X152586488Y-105918258D01*
X152366697Y-105859366D01*
X152366693Y-105859365D01*
X152366692Y-105859365D01*
X152366691Y-105859364D01*
X152366686Y-105859364D01*
X152140002Y-105839532D01*
X152139998Y-105839532D01*
X151913313Y-105859364D01*
X151913302Y-105859366D01*
X151693511Y-105918258D01*
X151693502Y-105918261D01*
X151487267Y-106014431D01*
X151487265Y-106014432D01*
X151300858Y-106144954D01*
X151139954Y-106305858D01*
X151009432Y-106492265D01*
X151009431Y-106492267D01*
X150982382Y-106550275D01*
X150936209Y-106602714D01*
X150869016Y-106621866D01*
X150802135Y-106601650D01*
X150757618Y-106550275D01*
X150730568Y-106492267D01*
X150730567Y-106492265D01*
X150600045Y-106305858D01*
X150439141Y-106144954D01*
X150252734Y-106014432D01*
X150252732Y-106014431D01*
X150046497Y-105918261D01*
X150046488Y-105918258D01*
X149826697Y-105859366D01*
X149826693Y-105859365D01*
X149826692Y-105859365D01*
X149826691Y-105859364D01*
X149826686Y-105859364D01*
X149600002Y-105839532D01*
X149599998Y-105839532D01*
X149373313Y-105859364D01*
X149373302Y-105859366D01*
X149153511Y-105918258D01*
X149153502Y-105918261D01*
X148947267Y-106014431D01*
X148947265Y-106014432D01*
X148760858Y-106144954D01*
X148599954Y-106305858D01*
X148469432Y-106492265D01*
X148469431Y-106492267D01*
X148442382Y-106550275D01*
X148396209Y-106602714D01*
X148329016Y-106621866D01*
X148262135Y-106601650D01*
X148217618Y-106550275D01*
X148190568Y-106492267D01*
X148190567Y-106492265D01*
X148060045Y-106305858D01*
X147899141Y-106144954D01*
X147712734Y-106014432D01*
X147712732Y-106014431D01*
X147506497Y-105918261D01*
X147506488Y-105918258D01*
X147286697Y-105859366D01*
X147286693Y-105859365D01*
X147286692Y-105859365D01*
X147286691Y-105859364D01*
X147286686Y-105859364D01*
X147060002Y-105839532D01*
X147059998Y-105839532D01*
X146833313Y-105859364D01*
X146833302Y-105859366D01*
X146613511Y-105918258D01*
X146613502Y-105918261D01*
X146407267Y-106014431D01*
X146407265Y-106014432D01*
X146220858Y-106144954D01*
X146059954Y-106305858D01*
X145929432Y-106492265D01*
X145929431Y-106492267D01*
X145902382Y-106550275D01*
X145856209Y-106602714D01*
X145789016Y-106621866D01*
X145722135Y-106601650D01*
X145677618Y-106550275D01*
X145650568Y-106492267D01*
X145650567Y-106492265D01*
X145520045Y-106305858D01*
X145359141Y-106144954D01*
X145172734Y-106014432D01*
X145172732Y-106014431D01*
X144966497Y-105918261D01*
X144966488Y-105918258D01*
X144746697Y-105859366D01*
X144746693Y-105859365D01*
X144746692Y-105859365D01*
X144746691Y-105859364D01*
X144746686Y-105859364D01*
X144520002Y-105839532D01*
X144519998Y-105839532D01*
X144293313Y-105859364D01*
X144293302Y-105859366D01*
X144073511Y-105918258D01*
X144073502Y-105918261D01*
X143867267Y-106014431D01*
X143867265Y-106014432D01*
X143680858Y-106144954D01*
X143519954Y-106305858D01*
X143389432Y-106492265D01*
X143389431Y-106492267D01*
X143362382Y-106550275D01*
X143316209Y-106602714D01*
X143249016Y-106621866D01*
X143182135Y-106601650D01*
X143137618Y-106550275D01*
X143110568Y-106492267D01*
X143110567Y-106492265D01*
X142980045Y-106305858D01*
X142819141Y-106144954D01*
X142632734Y-106014432D01*
X142632732Y-106014431D01*
X142426497Y-105918261D01*
X142426488Y-105918258D01*
X142206697Y-105859366D01*
X142206693Y-105859365D01*
X142206692Y-105859365D01*
X142206691Y-105859364D01*
X142206686Y-105859364D01*
X141980002Y-105839532D01*
X141979998Y-105839532D01*
X141753313Y-105859364D01*
X141753302Y-105859366D01*
X141533511Y-105918258D01*
X141533502Y-105918261D01*
X141327267Y-106014431D01*
X141327265Y-106014432D01*
X141140858Y-106144954D01*
X140979954Y-106305858D01*
X140849432Y-106492265D01*
X140849431Y-106492267D01*
X140822382Y-106550275D01*
X140776209Y-106602714D01*
X140709016Y-106621866D01*
X140642135Y-106601650D01*
X140597618Y-106550275D01*
X140570568Y-106492267D01*
X140570567Y-106492265D01*
X140440045Y-106305858D01*
X140279141Y-106144954D01*
X140092734Y-106014432D01*
X140092728Y-106014429D01*
X140034725Y-105987382D01*
X139982285Y-105941210D01*
X139963133Y-105874017D01*
X139983348Y-105807135D01*
X140034725Y-105762618D01*
X140092734Y-105735568D01*
X140279139Y-105605047D01*
X140440047Y-105444139D01*
X140570568Y-105257734D01*
X140666739Y-105051496D01*
X140725635Y-104831692D01*
X140745468Y-104605000D01*
X140725635Y-104378308D01*
X140666739Y-104158504D01*
X140570568Y-103952266D01*
X140440047Y-103765861D01*
X140440045Y-103765858D01*
X140279141Y-103604954D01*
X140092734Y-103474432D01*
X140092732Y-103474431D01*
X139886497Y-103378261D01*
X139886488Y-103378258D01*
X139666697Y-103319366D01*
X139666693Y-103319365D01*
X139666692Y-103319365D01*
X139666691Y-103319364D01*
X139666686Y-103319364D01*
X139440002Y-103299532D01*
X139439998Y-103299532D01*
X139213313Y-103319364D01*
X139213302Y-103319366D01*
X138993511Y-103378258D01*
X138993502Y-103378261D01*
X138787267Y-103474431D01*
X138787265Y-103474432D01*
X138600858Y-103604954D01*
X138439954Y-103765858D01*
X138309432Y-103952265D01*
X138309431Y-103952267D01*
X138213261Y-104158502D01*
X138213258Y-104158511D01*
X138154366Y-104378302D01*
X138154364Y-104378313D01*
X138134532Y-104604998D01*
X138134532Y-104605001D01*
X138154364Y-104831686D01*
X138154366Y-104831697D01*
X138213258Y-105051488D01*
X138213261Y-105051497D01*
X138309431Y-105257732D01*
X138309432Y-105257734D01*
X138439954Y-105444141D01*
X138600858Y-105605045D01*
X138600861Y-105605047D01*
X138787266Y-105735568D01*
X138845275Y-105762618D01*
X138897714Y-105808791D01*
X138916866Y-105875984D01*
X138896650Y-105942865D01*
X138845275Y-105987382D01*
X138787267Y-106014431D01*
X138787265Y-106014432D01*
X138600858Y-106144954D01*
X138439954Y-106305858D01*
X138309432Y-106492265D01*
X138309431Y-106492267D01*
X138282382Y-106550275D01*
X138236209Y-106602714D01*
X138169016Y-106621866D01*
X138102135Y-106601650D01*
X138057618Y-106550275D01*
X138030568Y-106492267D01*
X138030567Y-106492265D01*
X137900045Y-106305858D01*
X137739141Y-106144954D01*
X137552734Y-106014432D01*
X137552732Y-106014431D01*
X137346497Y-105918261D01*
X137346488Y-105918258D01*
X137126697Y-105859366D01*
X137126693Y-105859365D01*
X137126692Y-105859365D01*
X137126691Y-105859364D01*
X137126686Y-105859364D01*
X136900002Y-105839532D01*
X136899998Y-105839532D01*
X136673313Y-105859364D01*
X136673302Y-105859366D01*
X136453511Y-105918258D01*
X136453502Y-105918261D01*
X136247267Y-106014431D01*
X136247265Y-106014432D01*
X136060858Y-106144954D01*
X135899954Y-106305858D01*
X135769432Y-106492265D01*
X135769431Y-106492267D01*
X135742382Y-106550275D01*
X135696209Y-106602714D01*
X135629016Y-106621866D01*
X135562135Y-106601650D01*
X135517618Y-106550275D01*
X135490568Y-106492267D01*
X135490567Y-106492265D01*
X135360045Y-106305858D01*
X135199141Y-106144954D01*
X135012734Y-106014432D01*
X135012732Y-106014431D01*
X134806497Y-105918261D01*
X134806488Y-105918258D01*
X134586697Y-105859366D01*
X134586693Y-105859365D01*
X134586692Y-105859365D01*
X134586691Y-105859364D01*
X134586686Y-105859364D01*
X134360002Y-105839532D01*
X134359998Y-105839532D01*
X134133313Y-105859364D01*
X134133302Y-105859366D01*
X133913511Y-105918258D01*
X133913502Y-105918261D01*
X133707267Y-106014431D01*
X133707265Y-106014432D01*
X133520858Y-106144954D01*
X133359954Y-106305858D01*
X133229432Y-106492265D01*
X133229431Y-106492267D01*
X133202382Y-106550275D01*
X133156209Y-106602714D01*
X133089016Y-106621866D01*
X133022135Y-106601650D01*
X132977618Y-106550275D01*
X132950568Y-106492267D01*
X132950567Y-106492265D01*
X132820045Y-106305858D01*
X132659141Y-106144954D01*
X132472734Y-106014432D01*
X132472732Y-106014431D01*
X132266497Y-105918261D01*
X132266488Y-105918258D01*
X132046697Y-105859366D01*
X132046693Y-105859365D01*
X132046692Y-105859365D01*
X132046691Y-105859364D01*
X132046686Y-105859364D01*
X131820002Y-105839532D01*
X131819998Y-105839532D01*
X131593313Y-105859364D01*
X131593302Y-105859366D01*
X131373511Y-105918258D01*
X131373502Y-105918261D01*
X131167267Y-106014431D01*
X131167265Y-106014432D01*
X130980858Y-106144954D01*
X130819954Y-106305858D01*
X130689432Y-106492265D01*
X130689431Y-106492267D01*
X130593261Y-106698502D01*
X130593258Y-106698511D01*
X130534366Y-106918302D01*
X130534364Y-106918313D01*
X130514532Y-107144998D01*
X123500500Y-107144998D01*
X123500500Y-91904998D01*
X127974532Y-91904998D01*
X127974532Y-91905001D01*
X127994364Y-92131686D01*
X127994366Y-92131697D01*
X128053258Y-92351488D01*
X128053261Y-92351497D01*
X128149431Y-92557732D01*
X128149432Y-92557734D01*
X128279954Y-92744141D01*
X128440858Y-92905045D01*
X128440861Y-92905047D01*
X128627266Y-93035568D01*
X128833504Y-93131739D01*
X129053308Y-93190635D01*
X129215230Y-93204801D01*
X129279998Y-93210468D01*
X129280000Y-93210468D01*
X129280002Y-93210468D01*
X129336673Y-93205509D01*
X129506692Y-93190635D01*
X129726496Y-93131739D01*
X129932734Y-93035568D01*
X130119139Y-92905047D01*
X130280047Y-92744139D01*
X130410568Y-92557734D01*
X130437618Y-92499724D01*
X130483790Y-92447285D01*
X130550983Y-92428133D01*
X130617865Y-92448348D01*
X130662382Y-92499725D01*
X130689429Y-92557728D01*
X130689432Y-92557734D01*
X130819954Y-92744141D01*
X130980858Y-92905045D01*
X130980861Y-92905047D01*
X131167266Y-93035568D01*
X131373504Y-93131739D01*
X131593308Y-93190635D01*
X131755230Y-93204801D01*
X131819998Y-93210468D01*
X131820000Y-93210468D01*
X131820002Y-93210468D01*
X131876673Y-93205509D01*
X132046692Y-93190635D01*
X132266496Y-93131739D01*
X132472734Y-93035568D01*
X132659139Y-92905047D01*
X132820047Y-92744139D01*
X132950568Y-92557734D01*
X132977618Y-92499724D01*
X133023790Y-92447285D01*
X133090983Y-92428133D01*
X133157865Y-92448348D01*
X133202382Y-92499725D01*
X133229429Y-92557728D01*
X133229432Y-92557734D01*
X133359954Y-92744141D01*
X133520858Y-92905045D01*
X133520861Y-92905047D01*
X133707266Y-93035568D01*
X133913504Y-93131739D01*
X134133308Y-93190635D01*
X134295230Y-93204801D01*
X134359998Y-93210468D01*
X134360000Y-93210468D01*
X134360002Y-93210468D01*
X134416673Y-93205509D01*
X134586692Y-93190635D01*
X134806496Y-93131739D01*
X135012734Y-93035568D01*
X135199139Y-92905047D01*
X135360047Y-92744139D01*
X135490568Y-92557734D01*
X135517618Y-92499724D01*
X135563790Y-92447285D01*
X135630983Y-92428133D01*
X135697865Y-92448348D01*
X135742382Y-92499725D01*
X135769429Y-92557728D01*
X135769432Y-92557734D01*
X135899954Y-92744141D01*
X136060858Y-92905045D01*
X136060861Y-92905047D01*
X136247266Y-93035568D01*
X136453504Y-93131739D01*
X136673308Y-93190635D01*
X136835230Y-93204801D01*
X136899998Y-93210468D01*
X136900000Y-93210468D01*
X136900002Y-93210468D01*
X136956673Y-93205509D01*
X137126692Y-93190635D01*
X137346496Y-93131739D01*
X137552734Y-93035568D01*
X137739139Y-92905047D01*
X137900047Y-92744139D01*
X138030568Y-92557734D01*
X138057618Y-92499724D01*
X138103790Y-92447285D01*
X138170983Y-92428133D01*
X138237865Y-92448348D01*
X138282382Y-92499725D01*
X138309429Y-92557728D01*
X138309432Y-92557734D01*
X138439954Y-92744141D01*
X138600858Y-92905045D01*
X138600861Y-92905047D01*
X138787266Y-93035568D01*
X138845275Y-93062618D01*
X138897714Y-93108791D01*
X138916866Y-93175984D01*
X138896650Y-93242865D01*
X138845275Y-93287382D01*
X138787267Y-93314431D01*
X138787265Y-93314432D01*
X138600858Y-93444954D01*
X138439954Y-93605858D01*
X138309432Y-93792265D01*
X138309431Y-93792267D01*
X138213261Y-93998502D01*
X138213258Y-93998511D01*
X138154366Y-94218302D01*
X138154364Y-94218313D01*
X138134532Y-94444998D01*
X138134532Y-94445001D01*
X138154364Y-94671686D01*
X138154366Y-94671697D01*
X138213258Y-94891488D01*
X138213261Y-94891497D01*
X138309431Y-95097732D01*
X138309432Y-95097734D01*
X138439954Y-95284141D01*
X138600858Y-95445045D01*
X138600861Y-95445047D01*
X138787266Y-95575568D01*
X138993504Y-95671739D01*
X139213308Y-95730635D01*
X139375230Y-95744801D01*
X139439998Y-95750468D01*
X139440000Y-95750468D01*
X139440002Y-95750468D01*
X139496673Y-95745509D01*
X139666692Y-95730635D01*
X139886496Y-95671739D01*
X140092734Y-95575568D01*
X140279139Y-95445047D01*
X140440047Y-95284139D01*
X140570568Y-95097734D01*
X140666739Y-94891496D01*
X140725635Y-94671692D01*
X140745468Y-94445000D01*
X140725635Y-94218308D01*
X140666739Y-93998504D01*
X140570568Y-93792266D01*
X140440047Y-93605861D01*
X140440045Y-93605858D01*
X140279141Y-93444954D01*
X140092734Y-93314432D01*
X140092728Y-93314429D01*
X140034725Y-93287382D01*
X139982285Y-93241210D01*
X139963133Y-93174017D01*
X139983348Y-93107135D01*
X140034725Y-93062618D01*
X140092734Y-93035568D01*
X140279139Y-92905047D01*
X140440047Y-92744139D01*
X140570568Y-92557734D01*
X140597618Y-92499724D01*
X140643790Y-92447285D01*
X140710983Y-92428133D01*
X140777865Y-92448348D01*
X140822382Y-92499725D01*
X140849429Y-92557728D01*
X140849432Y-92557734D01*
X140979954Y-92744141D01*
X141140858Y-92905045D01*
X141140861Y-92905047D01*
X141327266Y-93035568D01*
X141533504Y-93131739D01*
X141753308Y-93190635D01*
X141915230Y-93204801D01*
X141979998Y-93210468D01*
X141980000Y-93210468D01*
X141980002Y-93210468D01*
X142036673Y-93205509D01*
X142206692Y-93190635D01*
X142426496Y-93131739D01*
X142632734Y-93035568D01*
X142819139Y-92905047D01*
X142980047Y-92744139D01*
X143110568Y-92557734D01*
X143137618Y-92499724D01*
X143183790Y-92447285D01*
X143250983Y-92428133D01*
X143317865Y-92448348D01*
X143362382Y-92499725D01*
X143389429Y-92557728D01*
X143389432Y-92557734D01*
X143519954Y-92744141D01*
X143680858Y-92905045D01*
X143680861Y-92905047D01*
X143867266Y-93035568D01*
X144073504Y-93131739D01*
X144293308Y-93190635D01*
X144455230Y-93204801D01*
X144519998Y-93210468D01*
X144520000Y-93210468D01*
X144520002Y-93210468D01*
X144576673Y-93205509D01*
X144746692Y-93190635D01*
X144966496Y-93131739D01*
X145172734Y-93035568D01*
X145359139Y-92905047D01*
X145520047Y-92744139D01*
X145650568Y-92557734D01*
X145677618Y-92499724D01*
X145723790Y-92447285D01*
X145790983Y-92428133D01*
X145857865Y-92448348D01*
X145902382Y-92499725D01*
X145929429Y-92557728D01*
X145929432Y-92557734D01*
X146059954Y-92744141D01*
X146220858Y-92905045D01*
X146220861Y-92905047D01*
X146407266Y-93035568D01*
X146613504Y-93131739D01*
X146833308Y-93190635D01*
X146995230Y-93204801D01*
X147059998Y-93210468D01*
X147060000Y-93210468D01*
X147060002Y-93210468D01*
X147116673Y-93205509D01*
X147286692Y-93190635D01*
X147506496Y-93131739D01*
X147712734Y-93035568D01*
X147899139Y-92905047D01*
X148060047Y-92744139D01*
X148190568Y-92557734D01*
X148217618Y-92499724D01*
X148263790Y-92447285D01*
X148330983Y-92428133D01*
X148397865Y-92448348D01*
X148442382Y-92499725D01*
X148469429Y-92557728D01*
X148469432Y-92557734D01*
X148599954Y-92744141D01*
X148760858Y-92905045D01*
X148760861Y-92905047D01*
X148947266Y-93035568D01*
X149153504Y-93131739D01*
X149373308Y-93190635D01*
X149535230Y-93204801D01*
X149599998Y-93210468D01*
X149600000Y-93210468D01*
X149600002Y-93210468D01*
X149656673Y-93205509D01*
X149826692Y-93190635D01*
X150046496Y-93131739D01*
X150252734Y-93035568D01*
X150439139Y-92905047D01*
X150600047Y-92744139D01*
X150730568Y-92557734D01*
X150757618Y-92499724D01*
X150803790Y-92447285D01*
X150870983Y-92428133D01*
X150937865Y-92448348D01*
X150982382Y-92499725D01*
X151009429Y-92557728D01*
X151009432Y-92557734D01*
X151139954Y-92744141D01*
X151300858Y-92905045D01*
X151300861Y-92905047D01*
X151487266Y-93035568D01*
X151693504Y-93131739D01*
X151913308Y-93190635D01*
X152075230Y-93204801D01*
X152139998Y-93210468D01*
X152140000Y-93210468D01*
X152140002Y-93210468D01*
X152196673Y-93205509D01*
X152366692Y-93190635D01*
X152586496Y-93131739D01*
X152792734Y-93035568D01*
X152979139Y-92905047D01*
X153140047Y-92744139D01*
X153270568Y-92557734D01*
X153297618Y-92499724D01*
X153343790Y-92447285D01*
X153410983Y-92428133D01*
X153477865Y-92448348D01*
X153522382Y-92499725D01*
X153549429Y-92557728D01*
X153549432Y-92557734D01*
X153679954Y-92744141D01*
X153840858Y-92905045D01*
X153840861Y-92905047D01*
X154027266Y-93035568D01*
X154233504Y-93131739D01*
X154453308Y-93190635D01*
X154615230Y-93204801D01*
X154679998Y-93210468D01*
X154680000Y-93210468D01*
X154680002Y-93210468D01*
X154736673Y-93205509D01*
X154906692Y-93190635D01*
X155126496Y-93131739D01*
X155332734Y-93035568D01*
X155519139Y-92905047D01*
X155680047Y-92744139D01*
X155810568Y-92557734D01*
X155837618Y-92499724D01*
X155883790Y-92447285D01*
X155950983Y-92428133D01*
X156017865Y-92448348D01*
X156062382Y-92499725D01*
X156089429Y-92557728D01*
X156089432Y-92557734D01*
X156219954Y-92744141D01*
X156380858Y-92905045D01*
X156380861Y-92905047D01*
X156567266Y-93035568D01*
X156625275Y-93062618D01*
X156677714Y-93108791D01*
X156696866Y-93175984D01*
X156676650Y-93242865D01*
X156625275Y-93287382D01*
X156567267Y-93314431D01*
X156567265Y-93314432D01*
X156380858Y-93444954D01*
X156219954Y-93605858D01*
X156089432Y-93792265D01*
X156089431Y-93792267D01*
X155993261Y-93998502D01*
X155993258Y-93998511D01*
X155934366Y-94218302D01*
X155934364Y-94218313D01*
X155914532Y-94444998D01*
X155914532Y-94445001D01*
X155934364Y-94671686D01*
X155934366Y-94671697D01*
X155993258Y-94891488D01*
X155993261Y-94891497D01*
X156089431Y-95097732D01*
X156089432Y-95097734D01*
X156219954Y-95284141D01*
X156380858Y-95445045D01*
X156380861Y-95445047D01*
X156567266Y-95575568D01*
X156625275Y-95602618D01*
X156677714Y-95648791D01*
X156696866Y-95715984D01*
X156676650Y-95782865D01*
X156625275Y-95827382D01*
X156567267Y-95854431D01*
X156567265Y-95854432D01*
X156380858Y-95984954D01*
X156219954Y-96145858D01*
X156089432Y-96332265D01*
X156089431Y-96332267D01*
X155993261Y-96538502D01*
X155993258Y-96538511D01*
X155934366Y-96758302D01*
X155934364Y-96758313D01*
X155914532Y-96984998D01*
X155914532Y-96985001D01*
X155934364Y-97211686D01*
X155934366Y-97211697D01*
X155993258Y-97431488D01*
X155993261Y-97431497D01*
X156089431Y-97637732D01*
X156089432Y-97637734D01*
X156219954Y-97824141D01*
X156380858Y-97985045D01*
X156380861Y-97985047D01*
X156567266Y-98115568D01*
X156773504Y-98211739D01*
X156993308Y-98270635D01*
X157155230Y-98284801D01*
X157219998Y-98290468D01*
X157220000Y-98290468D01*
X157220002Y-98290468D01*
X157276673Y-98285509D01*
X157446692Y-98270635D01*
X157666496Y-98211739D01*
X157872734Y-98115568D01*
X158059139Y-97985047D01*
X158220047Y-97824139D01*
X158350568Y-97637734D01*
X158446739Y-97431496D01*
X158505635Y-97211692D01*
X158525468Y-96985000D01*
X158505635Y-96758308D01*
X158446739Y-96538504D01*
X158350568Y-96332266D01*
X158220047Y-96145861D01*
X158220045Y-96145858D01*
X158059141Y-95984954D01*
X157872734Y-95854432D01*
X157872728Y-95854429D01*
X157814725Y-95827382D01*
X157762285Y-95781210D01*
X157743133Y-95714017D01*
X157763348Y-95647135D01*
X157814725Y-95602618D01*
X157872734Y-95575568D01*
X158059139Y-95445047D01*
X158220047Y-95284139D01*
X158350568Y-95097734D01*
X158446739Y-94891496D01*
X158505635Y-94671692D01*
X158525468Y-94445000D01*
X158505635Y-94218308D01*
X158446739Y-93998504D01*
X158350568Y-93792266D01*
X158220047Y-93605861D01*
X158220045Y-93605858D01*
X158059141Y-93444954D01*
X157872734Y-93314432D01*
X157872728Y-93314429D01*
X157814725Y-93287382D01*
X157762285Y-93241210D01*
X157743133Y-93174017D01*
X157763348Y-93107135D01*
X157814725Y-93062618D01*
X157872734Y-93035568D01*
X158059139Y-92905047D01*
X158220047Y-92744139D01*
X158350568Y-92557734D01*
X158446739Y-92351496D01*
X158505635Y-92131692D01*
X158525468Y-91905000D01*
X158505635Y-91678308D01*
X158446739Y-91458504D01*
X158350568Y-91252266D01*
X158220047Y-91065861D01*
X158220045Y-91065858D01*
X158059141Y-90904954D01*
X157872734Y-90774432D01*
X157872732Y-90774431D01*
X157666497Y-90678261D01*
X157666488Y-90678258D01*
X157446697Y-90619366D01*
X157446693Y-90619365D01*
X157446692Y-90619365D01*
X157446691Y-90619364D01*
X157446686Y-90619364D01*
X157220002Y-90599532D01*
X157219998Y-90599532D01*
X156993313Y-90619364D01*
X156993302Y-90619366D01*
X156773511Y-90678258D01*
X156773502Y-90678261D01*
X156567267Y-90774431D01*
X156567265Y-90774432D01*
X156380858Y-90904954D01*
X156219954Y-91065858D01*
X156089432Y-91252265D01*
X156089431Y-91252267D01*
X156062382Y-91310275D01*
X156016209Y-91362714D01*
X155949016Y-91381866D01*
X155882135Y-91361650D01*
X155837618Y-91310275D01*
X155810568Y-91252267D01*
X155810567Y-91252265D01*
X155680045Y-91065858D01*
X155519141Y-90904954D01*
X155332734Y-90774432D01*
X155332732Y-90774431D01*
X155126497Y-90678261D01*
X155126488Y-90678258D01*
X154906697Y-90619366D01*
X154906693Y-90619365D01*
X154906692Y-90619365D01*
X154906691Y-90619364D01*
X154906686Y-90619364D01*
X154680002Y-90599532D01*
X154679998Y-90599532D01*
X154453313Y-90619364D01*
X154453302Y-90619366D01*
X154233511Y-90678258D01*
X154233502Y-90678261D01*
X154027267Y-90774431D01*
X154027265Y-90774432D01*
X153840858Y-90904954D01*
X153679954Y-91065858D01*
X153549432Y-91252265D01*
X153549431Y-91252267D01*
X153522382Y-91310275D01*
X153476209Y-91362714D01*
X153409016Y-91381866D01*
X153342135Y-91361650D01*
X153297618Y-91310275D01*
X153270568Y-91252267D01*
X153270567Y-91252265D01*
X153140045Y-91065858D01*
X152979141Y-90904954D01*
X152792734Y-90774432D01*
X152792732Y-90774431D01*
X152586497Y-90678261D01*
X152586488Y-90678258D01*
X152366697Y-90619366D01*
X152366693Y-90619365D01*
X152366692Y-90619365D01*
X152366691Y-90619364D01*
X152366686Y-90619364D01*
X152140002Y-90599532D01*
X152139998Y-90599532D01*
X151913313Y-90619364D01*
X151913302Y-90619366D01*
X151693511Y-90678258D01*
X151693502Y-90678261D01*
X151487267Y-90774431D01*
X151487265Y-90774432D01*
X151300858Y-90904954D01*
X151139954Y-91065858D01*
X151009432Y-91252265D01*
X151009431Y-91252267D01*
X150982382Y-91310275D01*
X150936209Y-91362714D01*
X150869016Y-91381866D01*
X150802135Y-91361650D01*
X150757618Y-91310275D01*
X150730568Y-91252267D01*
X150730567Y-91252265D01*
X150600045Y-91065858D01*
X150439141Y-90904954D01*
X150252734Y-90774432D01*
X150252732Y-90774431D01*
X150046497Y-90678261D01*
X150046488Y-90678258D01*
X149826697Y-90619366D01*
X149826693Y-90619365D01*
X149826692Y-90619365D01*
X149826691Y-90619364D01*
X149826686Y-90619364D01*
X149600002Y-90599532D01*
X149599998Y-90599532D01*
X149373313Y-90619364D01*
X149373302Y-90619366D01*
X149153511Y-90678258D01*
X149153502Y-90678261D01*
X148947267Y-90774431D01*
X148947265Y-90774432D01*
X148760858Y-90904954D01*
X148599954Y-91065858D01*
X148469432Y-91252265D01*
X148469431Y-91252267D01*
X148442382Y-91310275D01*
X148396209Y-91362714D01*
X148329016Y-91381866D01*
X148262135Y-91361650D01*
X148217618Y-91310275D01*
X148190568Y-91252267D01*
X148190567Y-91252265D01*
X148060045Y-91065858D01*
X147899141Y-90904954D01*
X147712734Y-90774432D01*
X147712732Y-90774431D01*
X147506497Y-90678261D01*
X147506488Y-90678258D01*
X147286697Y-90619366D01*
X147286693Y-90619365D01*
X147286692Y-90619365D01*
X147286691Y-90619364D01*
X147286686Y-90619364D01*
X147060002Y-90599532D01*
X147059998Y-90599532D01*
X146833313Y-90619364D01*
X146833302Y-90619366D01*
X146613511Y-90678258D01*
X146613502Y-90678261D01*
X146407267Y-90774431D01*
X146407265Y-90774432D01*
X146220858Y-90904954D01*
X146059954Y-91065858D01*
X145929432Y-91252265D01*
X145929431Y-91252267D01*
X145902382Y-91310275D01*
X145856209Y-91362714D01*
X145789016Y-91381866D01*
X145722135Y-91361650D01*
X145677618Y-91310275D01*
X145650568Y-91252267D01*
X145650567Y-91252265D01*
X145520045Y-91065858D01*
X145359141Y-90904954D01*
X145172734Y-90774432D01*
X145172732Y-90774431D01*
X144966497Y-90678261D01*
X144966488Y-90678258D01*
X144746697Y-90619366D01*
X144746693Y-90619365D01*
X144746692Y-90619365D01*
X144746691Y-90619364D01*
X144746686Y-90619364D01*
X144520002Y-90599532D01*
X144519998Y-90599532D01*
X144293313Y-90619364D01*
X144293302Y-90619366D01*
X144073511Y-90678258D01*
X144073502Y-90678261D01*
X143867267Y-90774431D01*
X143867265Y-90774432D01*
X143680858Y-90904954D01*
X143519954Y-91065858D01*
X143389432Y-91252265D01*
X143389431Y-91252267D01*
X143362382Y-91310275D01*
X143316209Y-91362714D01*
X143249016Y-91381866D01*
X143182135Y-91361650D01*
X143137618Y-91310275D01*
X143110568Y-91252267D01*
X143110567Y-91252265D01*
X142980045Y-91065858D01*
X142819141Y-90904954D01*
X142632734Y-90774432D01*
X142632732Y-90774431D01*
X142426497Y-90678261D01*
X142426488Y-90678258D01*
X142206697Y-90619366D01*
X142206693Y-90619365D01*
X142206692Y-90619365D01*
X142206691Y-90619364D01*
X142206686Y-90619364D01*
X141980002Y-90599532D01*
X141979998Y-90599532D01*
X141753313Y-90619364D01*
X141753302Y-90619366D01*
X141533511Y-90678258D01*
X141533502Y-90678261D01*
X141327267Y-90774431D01*
X141327265Y-90774432D01*
X141140858Y-90904954D01*
X140979954Y-91065858D01*
X140849432Y-91252265D01*
X140849431Y-91252267D01*
X140822382Y-91310275D01*
X140776209Y-91362714D01*
X140709016Y-91381866D01*
X140642135Y-91361650D01*
X140597618Y-91310275D01*
X140570568Y-91252267D01*
X140570567Y-91252265D01*
X140440045Y-91065858D01*
X140279141Y-90904954D01*
X140092734Y-90774432D01*
X140092732Y-90774431D01*
X139886497Y-90678261D01*
X139886488Y-90678258D01*
X139666697Y-90619366D01*
X139666693Y-90619365D01*
X139666692Y-90619365D01*
X139666691Y-90619364D01*
X139666686Y-90619364D01*
X139440002Y-90599532D01*
X139439998Y-90599532D01*
X139213313Y-90619364D01*
X139213302Y-90619366D01*
X138993511Y-90678258D01*
X138993502Y-90678261D01*
X138787267Y-90774431D01*
X138787265Y-90774432D01*
X138600858Y-90904954D01*
X138439954Y-91065858D01*
X138309432Y-91252265D01*
X138309431Y-91252267D01*
X138282382Y-91310275D01*
X138236209Y-91362714D01*
X138169016Y-91381866D01*
X138102135Y-91361650D01*
X138057618Y-91310275D01*
X138030568Y-91252267D01*
X138030567Y-91252265D01*
X137900045Y-91065858D01*
X137739141Y-90904954D01*
X137552734Y-90774432D01*
X137552732Y-90774431D01*
X137346497Y-90678261D01*
X137346488Y-90678258D01*
X137126697Y-90619366D01*
X137126693Y-90619365D01*
X137126692Y-90619365D01*
X137126691Y-90619364D01*
X137126686Y-90619364D01*
X136900002Y-90599532D01*
X136899998Y-90599532D01*
X136673313Y-90619364D01*
X136673302Y-90619366D01*
X136453511Y-90678258D01*
X136453502Y-90678261D01*
X136247267Y-90774431D01*
X136247265Y-90774432D01*
X136060858Y-90904954D01*
X135899954Y-91065858D01*
X135769432Y-91252265D01*
X135769431Y-91252267D01*
X135742382Y-91310275D01*
X135696209Y-91362714D01*
X135629016Y-91381866D01*
X135562135Y-91361650D01*
X135517618Y-91310275D01*
X135490568Y-91252267D01*
X135490567Y-91252265D01*
X135360045Y-91065858D01*
X135199141Y-90904954D01*
X135012734Y-90774432D01*
X135012732Y-90774431D01*
X134806497Y-90678261D01*
X134806488Y-90678258D01*
X134586697Y-90619366D01*
X134586693Y-90619365D01*
X134586692Y-90619365D01*
X134586691Y-90619364D01*
X134586686Y-90619364D01*
X134360002Y-90599532D01*
X134359998Y-90599532D01*
X134133313Y-90619364D01*
X134133302Y-90619366D01*
X133913511Y-90678258D01*
X133913502Y-90678261D01*
X133707267Y-90774431D01*
X133707265Y-90774432D01*
X133520858Y-90904954D01*
X133359954Y-91065858D01*
X133229432Y-91252265D01*
X133229431Y-91252267D01*
X133202382Y-91310275D01*
X133156209Y-91362714D01*
X133089016Y-91381866D01*
X133022135Y-91361650D01*
X132977618Y-91310275D01*
X132950568Y-91252267D01*
X132950567Y-91252265D01*
X132820045Y-91065858D01*
X132659141Y-90904954D01*
X132472734Y-90774432D01*
X132472732Y-90774431D01*
X132266497Y-90678261D01*
X132266488Y-90678258D01*
X132046697Y-90619366D01*
X132046693Y-90619365D01*
X132046692Y-90619365D01*
X132046691Y-90619364D01*
X132046686Y-90619364D01*
X131820002Y-90599532D01*
X131819998Y-90599532D01*
X131593313Y-90619364D01*
X131593302Y-90619366D01*
X131373511Y-90678258D01*
X131373502Y-90678261D01*
X131167267Y-90774431D01*
X131167265Y-90774432D01*
X130980858Y-90904954D01*
X130819954Y-91065858D01*
X130689432Y-91252265D01*
X130689431Y-91252267D01*
X130662382Y-91310275D01*
X130616209Y-91362714D01*
X130549016Y-91381866D01*
X130482135Y-91361650D01*
X130437618Y-91310275D01*
X130410568Y-91252267D01*
X130410567Y-91252265D01*
X130280045Y-91065858D01*
X130119141Y-90904954D01*
X129932734Y-90774432D01*
X129932732Y-90774431D01*
X129726497Y-90678261D01*
X129726488Y-90678258D01*
X129506697Y-90619366D01*
X129506693Y-90619365D01*
X129506692Y-90619365D01*
X129506691Y-90619364D01*
X129506686Y-90619364D01*
X129280002Y-90599532D01*
X129279998Y-90599532D01*
X129053313Y-90619364D01*
X129053302Y-90619366D01*
X128833511Y-90678258D01*
X128833502Y-90678261D01*
X128627267Y-90774431D01*
X128627265Y-90774432D01*
X128440858Y-90904954D01*
X128279954Y-91065858D01*
X128149432Y-91252265D01*
X128149431Y-91252267D01*
X128053261Y-91458502D01*
X128053258Y-91458511D01*
X127994366Y-91678302D01*
X127994364Y-91678313D01*
X127974532Y-91904998D01*
X123500500Y-91904998D01*
X123500500Y-79844983D01*
X128399500Y-79844983D01*
X128399500Y-81445001D01*
X128399501Y-81445018D01*
X128410000Y-81547796D01*
X128410001Y-81547799D01*
X128456901Y-81689331D01*
X128465186Y-81714334D01*
X128557288Y-81863656D01*
X128681344Y-81987712D01*
X128830666Y-82079814D01*
X128997203Y-82134999D01*
X129099991Y-82145500D01*
X130400008Y-82145499D01*
X130502797Y-82134999D01*
X130669334Y-82079814D01*
X130818656Y-81987712D01*
X130942712Y-81863656D01*
X131034814Y-81714334D01*
X131089999Y-81547797D01*
X131100500Y-81445009D01*
X131100499Y-79844992D01*
X131097944Y-79819983D01*
X137149500Y-79819983D01*
X137149500Y-81420001D01*
X137149501Y-81420018D01*
X137160000Y-81522796D01*
X137160001Y-81522799D01*
X137215185Y-81689331D01*
X137215186Y-81689334D01*
X137307288Y-81838656D01*
X137431344Y-81962712D01*
X137580666Y-82054814D01*
X137747203Y-82109999D01*
X137849991Y-82120500D01*
X139150008Y-82120499D01*
X139252797Y-82109999D01*
X139419334Y-82054814D01*
X139568656Y-81962712D01*
X139692712Y-81838656D01*
X139784814Y-81689334D01*
X139839999Y-81522797D01*
X139850500Y-81420009D01*
X139850499Y-79844983D01*
X145899500Y-79844983D01*
X145899500Y-81445001D01*
X145899501Y-81445018D01*
X145910000Y-81547796D01*
X145910001Y-81547799D01*
X145956901Y-81689331D01*
X145965186Y-81714334D01*
X146057288Y-81863656D01*
X146181344Y-81987712D01*
X146330666Y-82079814D01*
X146497203Y-82134999D01*
X146599991Y-82145500D01*
X147900008Y-82145499D01*
X148002797Y-82134999D01*
X148169334Y-82079814D01*
X148318656Y-81987712D01*
X148442712Y-81863656D01*
X148534814Y-81714334D01*
X148589999Y-81547797D01*
X148600500Y-81445009D01*
X148600499Y-79844992D01*
X148597944Y-79819983D01*
X154649500Y-79819983D01*
X154649500Y-81420001D01*
X154649501Y-81420018D01*
X154660000Y-81522796D01*
X154660001Y-81522799D01*
X154715185Y-81689331D01*
X154715186Y-81689334D01*
X154807288Y-81838656D01*
X154931344Y-81962712D01*
X155080666Y-82054814D01*
X155247203Y-82109999D01*
X155349991Y-82120500D01*
X156650008Y-82120499D01*
X156752797Y-82109999D01*
X156919334Y-82054814D01*
X157068656Y-81962712D01*
X157192712Y-81838656D01*
X157284814Y-81689334D01*
X157339999Y-81522797D01*
X157350500Y-81420009D01*
X157350499Y-79819992D01*
X157339999Y-79717203D01*
X157284814Y-79550666D01*
X157192712Y-79401344D01*
X157068656Y-79277288D01*
X156919334Y-79185186D01*
X156752797Y-79130001D01*
X156752795Y-79130000D01*
X156650010Y-79119500D01*
X155349998Y-79119500D01*
X155349981Y-79119501D01*
X155247203Y-79130000D01*
X155247200Y-79130001D01*
X155080668Y-79185185D01*
X155080663Y-79185187D01*
X154931342Y-79277289D01*
X154807289Y-79401342D01*
X154715187Y-79550663D01*
X154715186Y-79550666D01*
X154660001Y-79717203D01*
X154660001Y-79717204D01*
X154660000Y-79717204D01*
X154649500Y-79819983D01*
X148597944Y-79819983D01*
X148589999Y-79742203D01*
X148534814Y-79575666D01*
X148442712Y-79426344D01*
X148318656Y-79302288D01*
X148169334Y-79210186D01*
X148002797Y-79155001D01*
X148002795Y-79155000D01*
X147900010Y-79144500D01*
X146599998Y-79144500D01*
X146599981Y-79144501D01*
X146497203Y-79155000D01*
X146497200Y-79155001D01*
X146330668Y-79210185D01*
X146330663Y-79210187D01*
X146181342Y-79302289D01*
X146057289Y-79426342D01*
X145965187Y-79575663D01*
X145965186Y-79575666D01*
X145910001Y-79742203D01*
X145910001Y-79742204D01*
X145910000Y-79742204D01*
X145899500Y-79844983D01*
X139850499Y-79844983D01*
X139850499Y-79819992D01*
X139839999Y-79717203D01*
X139784814Y-79550666D01*
X139692712Y-79401344D01*
X139568656Y-79277288D01*
X139419334Y-79185186D01*
X139252797Y-79130001D01*
X139252795Y-79130000D01*
X139150010Y-79119500D01*
X137849998Y-79119500D01*
X137849981Y-79119501D01*
X137747203Y-79130000D01*
X137747200Y-79130001D01*
X137580668Y-79185185D01*
X137580663Y-79185187D01*
X137431342Y-79277289D01*
X137307289Y-79401342D01*
X137215187Y-79550663D01*
X137215186Y-79550666D01*
X137160001Y-79717203D01*
X137160001Y-79717204D01*
X137160000Y-79717204D01*
X137149500Y-79819983D01*
X131097944Y-79819983D01*
X131089999Y-79742203D01*
X131034814Y-79575666D01*
X130942712Y-79426344D01*
X130818656Y-79302288D01*
X130669334Y-79210186D01*
X130502797Y-79155001D01*
X130502795Y-79155000D01*
X130400010Y-79144500D01*
X129099998Y-79144500D01*
X129099981Y-79144501D01*
X128997203Y-79155000D01*
X128997200Y-79155001D01*
X128830668Y-79210185D01*
X128830663Y-79210187D01*
X128681342Y-79302289D01*
X128557289Y-79426342D01*
X128465187Y-79575663D01*
X128465186Y-79575666D01*
X128410001Y-79742203D01*
X128410001Y-79742204D01*
X128410000Y-79742204D01*
X128399500Y-79844983D01*
X123500500Y-79844983D01*
X123500500Y-67199983D01*
X134149500Y-67199983D01*
X134149500Y-68800001D01*
X134149501Y-68800018D01*
X134160000Y-68902796D01*
X134160001Y-68902799D01*
X134215185Y-69069331D01*
X134215186Y-69069334D01*
X134307288Y-69218656D01*
X134431344Y-69342712D01*
X134580666Y-69434814D01*
X134747203Y-69489999D01*
X134849991Y-69500500D01*
X136150008Y-69500499D01*
X136252797Y-69489999D01*
X136419334Y-69434814D01*
X136568656Y-69342712D01*
X136692712Y-69218656D01*
X136784814Y-69069334D01*
X136839999Y-68902797D01*
X136850500Y-68800009D01*
X136850499Y-67199992D01*
X136850498Y-67199983D01*
X149649500Y-67199983D01*
X149649500Y-68800001D01*
X149649501Y-68800018D01*
X149660000Y-68902796D01*
X149660001Y-68902799D01*
X149715185Y-69069331D01*
X149715186Y-69069334D01*
X149807288Y-69218656D01*
X149931344Y-69342712D01*
X150080666Y-69434814D01*
X150247203Y-69489999D01*
X150349991Y-69500500D01*
X151650008Y-69500499D01*
X151752797Y-69489999D01*
X151919334Y-69434814D01*
X152068656Y-69342712D01*
X152192712Y-69218656D01*
X152284814Y-69069334D01*
X152339999Y-68902797D01*
X152350500Y-68800009D01*
X152350499Y-67199992D01*
X152339999Y-67097203D01*
X152284814Y-66930666D01*
X152192712Y-66781344D01*
X152068656Y-66657288D01*
X151919334Y-66565186D01*
X151752797Y-66510001D01*
X151752795Y-66510000D01*
X151650010Y-66499500D01*
X150349998Y-66499500D01*
X150349981Y-66499501D01*
X150247203Y-66510000D01*
X150247200Y-66510001D01*
X150080668Y-66565185D01*
X150080663Y-66565187D01*
X149931342Y-66657289D01*
X149807289Y-66781342D01*
X149715187Y-66930663D01*
X149715186Y-66930666D01*
X149660001Y-67097203D01*
X149660001Y-67097204D01*
X149660000Y-67097204D01*
X149649500Y-67199983D01*
X136850498Y-67199983D01*
X136839999Y-67097203D01*
X136784814Y-66930666D01*
X136692712Y-66781344D01*
X136568656Y-66657288D01*
X136419334Y-66565186D01*
X136252797Y-66510001D01*
X136252795Y-66510000D01*
X136150010Y-66499500D01*
X134849998Y-66499500D01*
X134849981Y-66499501D01*
X134747203Y-66510000D01*
X134747200Y-66510001D01*
X134580668Y-66565185D01*
X134580663Y-66565187D01*
X134431342Y-66657289D01*
X134307289Y-66781342D01*
X134215187Y-66930663D01*
X134215186Y-66930666D01*
X134160001Y-67097203D01*
X134160001Y-67097204D01*
X134160000Y-67097204D01*
X134149500Y-67199983D01*
X123500500Y-67199983D01*
X123500500Y-62999994D01*
X124594754Y-62999994D01*
X124594754Y-63000005D01*
X124613718Y-63301446D01*
X124613719Y-63301453D01*
X124670320Y-63598164D01*
X124763659Y-63885431D01*
X124763661Y-63885436D01*
X124892265Y-64158732D01*
X124892268Y-64158738D01*
X125054111Y-64413763D01*
X125246652Y-64646505D01*
X125466836Y-64853272D01*
X125466846Y-64853280D01*
X125711193Y-65030808D01*
X125711198Y-65030810D01*
X125711205Y-65030816D01*
X125975896Y-65176332D01*
X125975901Y-65176334D01*
X125975903Y-65176335D01*
X125975904Y-65176336D01*
X126256734Y-65287524D01*
X126256737Y-65287525D01*
X126354259Y-65312564D01*
X126549302Y-65362642D01*
X126696039Y-65381179D01*
X126848963Y-65400499D01*
X126848969Y-65400499D01*
X126848973Y-65400500D01*
X126848975Y-65400500D01*
X127151025Y-65400500D01*
X127151027Y-65400500D01*
X127151032Y-65400499D01*
X127151036Y-65400499D01*
X127230591Y-65390448D01*
X127450698Y-65362642D01*
X127743262Y-65287525D01*
X127743265Y-65287524D01*
X128024095Y-65176336D01*
X128024096Y-65176335D01*
X128024094Y-65176335D01*
X128024104Y-65176332D01*
X128288795Y-65030816D01*
X128533162Y-64853274D01*
X128753349Y-64646504D01*
X128945885Y-64413768D01*
X129107733Y-64158736D01*
X129236341Y-63885430D01*
X129329681Y-63598160D01*
X129386280Y-63301457D01*
X129405246Y-63000000D01*
X129405246Y-62999994D01*
X158594754Y-62999994D01*
X158594754Y-63000005D01*
X158613718Y-63301446D01*
X158613719Y-63301453D01*
X158670320Y-63598164D01*
X158763659Y-63885431D01*
X158763661Y-63885436D01*
X158892265Y-64158732D01*
X158892268Y-64158738D01*
X159054111Y-64413763D01*
X159246652Y-64646505D01*
X159466836Y-64853272D01*
X159466846Y-64853280D01*
X159711193Y-65030808D01*
X159711198Y-65030810D01*
X159711205Y-65030816D01*
X159975896Y-65176332D01*
X159975901Y-65176334D01*
X159975903Y-65176335D01*
X159975904Y-65176336D01*
X160256734Y-65287524D01*
X160256737Y-65287525D01*
X160354259Y-65312564D01*
X160549302Y-65362642D01*
X160696039Y-65381179D01*
X160848963Y-65400499D01*
X160848969Y-65400499D01*
X160848973Y-65400500D01*
X160848975Y-65400500D01*
X161151025Y-65400500D01*
X161151027Y-65400500D01*
X161151032Y-65400499D01*
X161151036Y-65400499D01*
X161230591Y-65390448D01*
X161450698Y-65362642D01*
X161743262Y-65287525D01*
X161743265Y-65287524D01*
X162024095Y-65176336D01*
X162024096Y-65176335D01*
X162024094Y-65176335D01*
X162024104Y-65176332D01*
X162288795Y-65030816D01*
X162533162Y-64853274D01*
X162753349Y-64646504D01*
X162945885Y-64413768D01*
X163107733Y-64158736D01*
X163236341Y-63885430D01*
X163329681Y-63598160D01*
X163386280Y-63301457D01*
X163405246Y-63000000D01*
X163386280Y-62698543D01*
X163329681Y-62401840D01*
X163236341Y-62114570D01*
X163107733Y-61841264D01*
X162945885Y-61586232D01*
X162753349Y-61353496D01*
X162533162Y-61146726D01*
X162533159Y-61146724D01*
X162533153Y-61146719D01*
X162288806Y-60969191D01*
X162288799Y-60969186D01*
X162288795Y-60969184D01*
X162024104Y-60823668D01*
X162024101Y-60823666D01*
X162024096Y-60823664D01*
X162024095Y-60823663D01*
X161743265Y-60712475D01*
X161743262Y-60712474D01*
X161450695Y-60637357D01*
X161151036Y-60599500D01*
X161151027Y-60599500D01*
X160848973Y-60599500D01*
X160848963Y-60599500D01*
X160549304Y-60637357D01*
X160256737Y-60712474D01*
X160256734Y-60712475D01*
X159975904Y-60823663D01*
X159975903Y-60823664D01*
X159711205Y-60969184D01*
X159711193Y-60969191D01*
X159466846Y-61146719D01*
X159466836Y-61146727D01*
X159246652Y-61353494D01*
X159054111Y-61586236D01*
X158892268Y-61841261D01*
X158892265Y-61841267D01*
X158763661Y-62114563D01*
X158763659Y-62114568D01*
X158670320Y-62401835D01*
X158613719Y-62698546D01*
X158613718Y-62698553D01*
X158594754Y-62999994D01*
X129405246Y-62999994D01*
X129386280Y-62698543D01*
X129329681Y-62401840D01*
X129236341Y-62114570D01*
X129107733Y-61841264D01*
X128945885Y-61586232D01*
X128753349Y-61353496D01*
X128533162Y-61146726D01*
X128533159Y-61146724D01*
X128533153Y-61146719D01*
X128288806Y-60969191D01*
X128288799Y-60969186D01*
X128288795Y-60969184D01*
X128024104Y-60823668D01*
X128024101Y-60823666D01*
X128024096Y-60823664D01*
X128024095Y-60823663D01*
X127743265Y-60712475D01*
X127743262Y-60712474D01*
X127450695Y-60637357D01*
X127151036Y-60599500D01*
X127151027Y-60599500D01*
X126848973Y-60599500D01*
X126848963Y-60599500D01*
X126549304Y-60637357D01*
X126256737Y-60712474D01*
X126256734Y-60712475D01*
X125975904Y-60823663D01*
X125975903Y-60823664D01*
X125711205Y-60969184D01*
X125711193Y-60969191D01*
X125466846Y-61146719D01*
X125466836Y-61146727D01*
X125246652Y-61353494D01*
X125054111Y-61586236D01*
X124892268Y-61841261D01*
X124892265Y-61841267D01*
X124763661Y-62114563D01*
X124763659Y-62114568D01*
X124670320Y-62401835D01*
X124613719Y-62698546D01*
X124613718Y-62698553D01*
X124594754Y-62999994D01*
X123500500Y-62999994D01*
X123500500Y-59624500D01*
X123520185Y-59557461D01*
X123572989Y-59511706D01*
X123624500Y-59500500D01*
X164375500Y-59500500D01*
X164442539Y-59520185D01*
G37*
%TD.AperFunction*%
%TD*%
M02*
