%TF.GenerationSoftware,KiCad,Pcbnew,8.0.4*%
%TF.CreationDate,2024-08-04T23:06:57+09:00*%
%TF.ProjectId,sdvx,73647678-2e6b-4696-9361-645f70636258,rev?*%
%TF.SameCoordinates,Original*%
%TF.FileFunction,Drillmap*%
%TF.FilePolarity,Positive*%
%FSLAX45Y45*%
G04 Gerber Fmt 4.5, Leading zero omitted, Abs format (unit mm)*
G04 Created by KiCad (PCBNEW 8.0.4) date 2024-08-04 23:06:57*
%MOMM*%
%LPD*%
G01*
G04 APERTURE LIST*
%ADD10C,0.050000*%
%ADD11C,0.200000*%
G04 APERTURE END LIST*
D10*
X12300000Y-5900000D02*
X16500000Y-5900000D01*
X16500000Y-12400000D01*
X12300000Y-12400000D01*
X12300000Y-5900000D01*
D11*
X12558277Y-12713984D02*
X12558277Y-12513984D01*
X12558277Y-12513984D02*
X12605896Y-12513984D01*
X12605896Y-12513984D02*
X12634467Y-12523508D01*
X12634467Y-12523508D02*
X12653515Y-12542555D01*
X12653515Y-12542555D02*
X12663039Y-12561603D01*
X12663039Y-12561603D02*
X12672562Y-12599698D01*
X12672562Y-12599698D02*
X12672562Y-12628269D01*
X12672562Y-12628269D02*
X12663039Y-12666365D01*
X12663039Y-12666365D02*
X12653515Y-12685412D01*
X12653515Y-12685412D02*
X12634467Y-12704460D01*
X12634467Y-12704460D02*
X12605896Y-12713984D01*
X12605896Y-12713984D02*
X12558277Y-12713984D01*
X12758277Y-12713984D02*
X12758277Y-12580650D01*
X12758277Y-12618746D02*
X12767801Y-12599698D01*
X12767801Y-12599698D02*
X12777324Y-12590174D01*
X12777324Y-12590174D02*
X12796372Y-12580650D01*
X12796372Y-12580650D02*
X12815420Y-12580650D01*
X12882086Y-12713984D02*
X12882086Y-12580650D01*
X12882086Y-12513984D02*
X12872562Y-12523508D01*
X12872562Y-12523508D02*
X12882086Y-12533031D01*
X12882086Y-12533031D02*
X12891610Y-12523508D01*
X12891610Y-12523508D02*
X12882086Y-12513984D01*
X12882086Y-12513984D02*
X12882086Y-12533031D01*
X13005896Y-12713984D02*
X12986848Y-12704460D01*
X12986848Y-12704460D02*
X12977324Y-12685412D01*
X12977324Y-12685412D02*
X12977324Y-12513984D01*
X13110658Y-12713984D02*
X13091610Y-12704460D01*
X13091610Y-12704460D02*
X13082086Y-12685412D01*
X13082086Y-12685412D02*
X13082086Y-12513984D01*
X13339229Y-12713984D02*
X13339229Y-12513984D01*
X13339229Y-12513984D02*
X13405896Y-12656841D01*
X13405896Y-12656841D02*
X13472562Y-12513984D01*
X13472562Y-12513984D02*
X13472562Y-12713984D01*
X13653515Y-12713984D02*
X13653515Y-12609222D01*
X13653515Y-12609222D02*
X13643991Y-12590174D01*
X13643991Y-12590174D02*
X13624943Y-12580650D01*
X13624943Y-12580650D02*
X13586848Y-12580650D01*
X13586848Y-12580650D02*
X13567801Y-12590174D01*
X13653515Y-12704460D02*
X13634467Y-12713984D01*
X13634467Y-12713984D02*
X13586848Y-12713984D01*
X13586848Y-12713984D02*
X13567801Y-12704460D01*
X13567801Y-12704460D02*
X13558277Y-12685412D01*
X13558277Y-12685412D02*
X13558277Y-12666365D01*
X13558277Y-12666365D02*
X13567801Y-12647317D01*
X13567801Y-12647317D02*
X13586848Y-12637793D01*
X13586848Y-12637793D02*
X13634467Y-12637793D01*
X13634467Y-12637793D02*
X13653515Y-12628269D01*
X13748753Y-12580650D02*
X13748753Y-12780650D01*
X13748753Y-12590174D02*
X13767801Y-12580650D01*
X13767801Y-12580650D02*
X13805896Y-12580650D01*
X13805896Y-12580650D02*
X13824943Y-12590174D01*
X13824943Y-12590174D02*
X13834467Y-12599698D01*
X13834467Y-12599698D02*
X13843991Y-12618746D01*
X13843991Y-12618746D02*
X13843991Y-12675888D01*
X13843991Y-12675888D02*
X13834467Y-12694936D01*
X13834467Y-12694936D02*
X13824943Y-12704460D01*
X13824943Y-12704460D02*
X13805896Y-12713984D01*
X13805896Y-12713984D02*
X13767801Y-12713984D01*
X13767801Y-12713984D02*
X13748753Y-12704460D01*
X13929705Y-12694936D02*
X13939229Y-12704460D01*
X13939229Y-12704460D02*
X13929705Y-12713984D01*
X13929705Y-12713984D02*
X13920182Y-12704460D01*
X13920182Y-12704460D02*
X13929705Y-12694936D01*
X13929705Y-12694936D02*
X13929705Y-12713984D01*
X13929705Y-12590174D02*
X13939229Y-12599698D01*
X13939229Y-12599698D02*
X13929705Y-12609222D01*
X13929705Y-12609222D02*
X13920182Y-12599698D01*
X13920182Y-12599698D02*
X13929705Y-12590174D01*
X13929705Y-12590174D02*
X13929705Y-12609222D01*
M02*
