M48
; DRILL file {KiCad 8.0.4} date 2024-08-04T23:06:56+0900
; FORMAT={-:-/ absolute / inch / decimal}
; #@! TF.CreationDate,2024-08-04T23:06:56+09:00
; #@! TF.GenerationSoftware,Kicad,Pcbnew,8.0.4
; #@! TF.FileFunction,Plated,1,2,PTH
FMAT,2
INCH
; #@! TA.AperFunction,Plated,PTH,ComponentDrill
T1C0.0374
; #@! TA.AperFunction,Plated,PTH,ComponentDrill
T2C0.0394
; #@! TA.AperFunction,Plated,PTH,ComponentDrill
T3C0.0433
; #@! TA.AperFunction,Plated,PTH,ComponentDrill
T4C0.0866
%
G90
G05
T1
X5.2461Y-4.5157
X5.3445Y-4.5157
X5.4429Y-4.5157
X5.5413Y-4.5157
X5.7972Y-4.5167
X5.8957Y-4.5167
X5.9941Y-4.5167
X6.0925Y-4.5167
T2
X5.1083Y-3.175
X5.2067Y-3.175
X5.3346Y-2.6772
X5.4331Y-2.6772
X5.4528Y-3.174
X5.5512Y-3.174
X5.7972Y-3.175
X5.8957Y-3.175
X5.9449Y-2.6772
X6.0433Y-2.6772
X6.1417Y-3.174
X6.2402Y-3.174
T3
X5.0898Y-3.6183
X5.0898Y-4.2183
X5.1898Y-3.6183
X5.1898Y-4.2183
X5.2898Y-3.6183
X5.2898Y-4.2183
X5.3898Y-3.6183
X5.3898Y-4.2183
X5.4898Y-3.6183
X5.4898Y-3.7183
X5.4898Y-4.1183
X5.4898Y-4.2183
X5.5898Y-3.6183
X5.5898Y-4.2183
X5.6898Y-3.6183
X5.6898Y-4.2183
X5.7898Y-3.6183
X5.7898Y-4.2183
X5.8898Y-3.6183
X5.8898Y-4.2183
X5.9898Y-3.6183
X5.9898Y-4.2183
X6.0898Y-3.6183
X6.0898Y-4.2183
X6.1898Y-3.6183
X6.1898Y-3.7183
X6.1898Y-3.8183
X6.1898Y-3.9183
X6.1898Y-4.0183
X6.1898Y-4.1183
X6.1898Y-4.2183
T4
X5.0Y-2.4803
X5.0Y-4.7244
X6.3386Y-2.4803
X6.3386Y-4.7244
M30
